<svg width="51" height="51" viewBox="0 0 51 51" fill="none" xmlns="http://www.w3.org/2000/svg">
<rect width="51" height="51" rx="25.5" fill="url(#paint0_linear_2670_28086)"/>
<path d="M12.0596 23.1621V31.6355C12.0596 35.5084 15.1992 38.648 19.0721 38.648H27.5455" stroke="white" stroke-width="2.04531" stroke-linecap="round"/>
<path d="M31.6361 12.0596H23.4549C19.582 12.0596 16.4424 15.1992 16.4424 19.0721V27.2533C16.4424 31.1262 19.582 34.2658 23.4549 34.2658H31.6361C35.509 34.2658 38.6486 31.1262 38.6486 27.2533V19.0721C38.6486 15.1992 35.509 12.0596 31.6361 12.0596Z" stroke="white" stroke-width="2.04531"/>
<path d="M27.3991 23.6004V23.3921C27.3991 22.797 27.7141 22.2464 28.227 21.9447C29.2528 21.3412 30.0044 20.2144 29.7016 19.0634C29.4462 18.093 28.8377 17.3184 27.3991 17.3184C25.0616 17.3184 24.9155 19.0715 24.9155 20.0941" stroke="white" stroke-width="2.04531" stroke-linecap="round"/>
<path d="M27.5454 29.0059C28.3523 29.0059 29.0063 28.3518 29.0063 27.5449C29.0063 26.7381 28.3523 26.084 27.5454 26.084C26.7386 26.084 26.0845 26.7381 26.0845 27.5449C26.0845 28.3518 26.7386 29.0059 27.5454 29.0059Z" fill="white"/>
<defs>
<linearGradient id="paint0_linear_2670_28086" x1="25.5" y1="0" x2="25.5" y2="51" gradientUnits="userSpaceOnUse">
<stop stop-color="#FFC600"/>
<stop offset="1" stop-color="#FE8A30"/>
</linearGradient>
</defs>
</svg>
