<svg width="45" height="44" viewBox="0 0 45 44" fill="none" xmlns="http://www.w3.org/2000/svg">
<rect x="0.127441" y="0.000976562" width="43.9994" height="43.9994" rx="21.9997" fill="white"/>
<path d="M17.3769 19.6258V17.2509C17.3769 13.9722 18.8481 11.3135 22.1268 11.3135C25.4054 11.3135 26.8767 13.9722 26.8767 17.2509V19.6258M12.0332 28.8881V23.4257C12.0332 22.0958 12.0332 21.4308 12.2921 20.9237C12.5196 20.4764 12.8829 20.1127 13.3299 19.8847C13.8382 19.627 14.5032 19.627 15.8331 19.627H28.4204C29.7504 19.627 30.4153 19.627 30.9236 19.8847C31.3704 20.1124 31.7338 20.4757 31.9614 20.9225C32.2203 21.4308 32.2203 22.0958 32.2203 23.4257V28.8881C32.2203 30.2181 32.2203 30.8831 31.9614 31.3913C31.7338 31.8382 31.3704 32.2015 30.9236 32.4292C30.4153 32.6881 29.7504 32.6881 28.4204 32.6881H15.8331C14.5032 32.6881 13.8382 32.6881 13.3299 32.4292C12.8831 32.2015 12.5198 31.8382 12.2921 31.3913C12.0332 30.8843 12.0332 30.2193 12.0332 28.8881Z" stroke="url(#paint0_linear_2670_28105)" stroke-width="1.89996" stroke-linecap="round" stroke-linejoin="round"/>
<defs>
<linearGradient id="paint0_linear_2670_28105" x1="28.3382" y1="33.2988" x2="26.359" y2="10.7844" gradientUnits="userSpaceOnUse">
<stop stop-color="#C3C3C3"/>
<stop offset="1" stop-color="#DCDCDC"/>
</linearGradient>
</defs>
</svg>
