<svg width="50" height="49" viewBox="0 0 50 49" fill="none" xmlns="http://www.w3.org/2000/svg">
<rect x="0.710938" y="0.400391" width="48.6" height="48.6" rx="24.3" fill="url(#paint0_linear_2670_28069)"/>
<path d="M37.8109 22.532C37.9112 21.8485 37.4384 21.2131 36.755 21.1128L29.6907 20.0801L26.5339 13.6469C26.4202 13.4507 26.2571 13.2877 26.0607 13.1742C25.4407 12.8159 24.6474 13.028 24.289 13.6481L21.1335 20.0801L14.0692 21.1129C13.7991 21.1525 13.5495 21.2794 13.3582 21.4742C12.8742 21.9671 12.8816 22.7591 13.3746 23.243L18.4906 28.2589L17.2833 35.3391C17.2719 35.4068 17.266 35.4754 17.2658 35.5443C17.2639 36.236 17.8232 36.7984 18.515 36.8003C18.719 36.8 18.9198 36.7497 19.0997 36.6538L25.4121 33.3164L31.7232 36.6526C31.9671 36.7821 32.2469 36.8271 32.5192 36.7808C33.1994 36.6647 33.6568 36.0193 33.5408 35.3391L32.3335 28.2589L37.4508 23.2417C37.6449 23.0507 37.7713 22.8015 37.8109 22.532ZM31.2251 27.5948C31.0788 27.7384 31.0118 27.9444 31.0457 28.1466L32.3079 35.5478L25.7038 32.0564C25.5209 31.9612 25.3032 31.9612 25.1203 32.0564L18.5162 35.549L19.7784 28.1466C19.8123 27.9445 19.7454 27.7385 19.5989 27.5949L14.2498 22.3507L21.64 21.2703C21.8441 21.2398 22.0202 21.1112 22.1113 20.9261L25.4121 14.1988L28.7128 20.926C28.8039 21.1111 28.9801 21.2397 29.1841 21.2703L36.5755 22.3494L31.2251 27.5948Z" fill="white"/>
<defs>
<linearGradient id="paint0_linear_2670_28069" x1="25.0109" y1="0.400391" x2="25.0109" y2="49.0004" gradientUnits="userSpaceOnUse">
<stop stop-color="#0083CA"/>
<stop offset="1" stop-color="#0A9C9D"/>
</linearGradient>
</defs>
</svg>
