<svg width="42" height="41" viewBox="0 0 42 41" fill="none" xmlns="http://www.w3.org/2000/svg">
<g clip-path="url(#clip0_1122_7023)">
<path d="M32.1455 9.18262C32.184 8.76499 32.0551 8.3489 31.7871 8.02637C31.5192 7.70401 31.1341 7.50144 30.7168 7.46289C30.2993 7.42439 29.883 7.55321 29.5605 7.82129L21.0977 14.8809L12.6348 8.05859C12.403 7.86547 12.1206 7.7428 11.8213 7.70508C11.522 7.66736 11.2177 7.71611 10.9453 7.8457C10.6732 7.97526 10.4437 8.17982 10.2842 8.43555C10.1246 8.69155 10.0414 8.98836 10.0449 9.29004C10.0441 9.52599 10.0962 9.75947 10.1973 9.97266C10.2984 10.1858 10.4458 10.3738 10.6289 10.5225L20.1025 18.1504C20.385 18.3827 20.7398 18.5097 21.1055 18.5098C21.4712 18.5098 21.8259 18.3827 22.1084 18.1504L31.582 10.2539C31.9045 9.98583 32.107 9.60024 32.1455 9.18262Z" fill="white"/>
<path d="M32.1455 9.18262C32.184 8.76499 32.0551 8.3489 31.7871 8.02637C31.5192 7.70401 31.1341 7.50144 30.7168 7.46289C30.2993 7.42439 29.883 7.55321 29.5605 7.82129L21.0977 14.8809L12.6348 8.05859C12.403 7.86547 12.1206 7.7428 11.8213 7.70508C11.522 7.66736 11.2177 7.71611 10.9453 7.8457C10.6732 7.97526 10.4437 8.17982 10.2842 8.43555C10.1246 8.69155 10.0414 8.98836 10.0449 9.29004C10.0441 9.52599 10.0962 9.75947 10.1973 9.97266C10.2984 10.1858 10.4458 10.3738 10.6289 10.5225L20.1025 18.1504C20.385 18.3827 20.7398 18.5097 21.1055 18.5098C21.4712 18.5098 21.8259 18.3827 22.1084 18.1504L31.582 10.2539C31.9045 9.98583 32.107 9.60024 32.1455 9.18262Z" stroke="white"/>
</g>
<defs>
<clipPath id="clip0_1122_7023">
<rect width="40.1952" height="40.1952" rx="20.0976" transform="matrix(1.19249e-08 -1 -1 -1.19249e-08 41.0977 40.5195)" fill="white"/>
</clipPath>
</defs>
</svg>
