<svg width="1392" height="148" viewBox="0 0 1392 148" fill="none" xmlns="http://www.w3.org/2000/svg">
<g clip-path="url(#clip0_1353_7531)">
<path d="M-0.00195312 0.666016H1392C1392 7.70437 1385.49 13.5431 1378.51 14.4236C1372.75 15.15 1365.25 16.7361 1356.23 19.9993C1346.58 23.4901 1331.18 42.5009 1336.12 101.325C1336.3 103.464 1336.18 105.663 1335.67 107.746C1328.86 135.207 1321.16 132.145 1319.01 132.133C1312.61 132.095 1301.13 131.649 1295.81 102.649C1291.56 79.4493 1338.35 21.4493 1297.26 23.3827C1256.18 25.316 1287.11 87.1827 1268.75 86.6993C1250.38 86.216 1249.31 56.7327 1248.45 50.9327C1239.26 -10.934 1228.86 22.1982 1216.06 21.4493C1202.1 20.632 1204.46 2.59935 1177.88 7.43268C1151.3 12.266 1142.6 23.866 1109.25 18.5493C1075.9 13.2327 1085.04 53.9819 1062.36 54.316C1049.31 54.5084 1044.15 28.7585 1032 24.605C1029.79 23.8505 1027.42 24.4654 1025.22 25.2406C1007.76 31.39 988.699 35.2176 962.798 16.1327C942.498 6.46602 948.88 10.1785 927.031 10.3327C867.098 35.9493 825.048 42.2327 780.098 20.3204C780.098 20.3204 755.251 10.3031 739.015 10.3327C724.071 10.3599 690.51 23.8511 674.248 23.866C656.633 23.8822 650.081 27.2493 634.615 20.4827C622.438 16.1338 614.565 6.30692 604.308 8.95741C601.883 9.584 599.945 11.3326 598.196 13.1249C581.768 29.9542 571.037 23.5117 569.365 22.416C555.348 13.2327 556.17 11.0468 548.098 11.7827C526.668 13.7362 535.974 33.0493 536.981 45.1327C537.988 57.216 528.281 65.916 518.131 64.466C507.981 63.016 527.798 34.9827 520.065 20.4827C512.331 5.98268 485.046 8.89804 473.181 8.88268C460.733 8.86657 436.224 24.869 424.848 24.8327C407.322 24.7767 368.422 10.4411 353.798 10.3327C334.478 10.1895 302.412 22.6617 289.031 22.416C266.973 22.0109 260.913 17.828 258.581 17.0993C237.232 10.4275 227.343 4.57437 207.821 18.3734C204.29 20.869 200.031 23.4027 198.995 27.6003C197.039 35.525 197.185 51.2636 197.197 65.8197C197.198 66.8499 197.129 67.8818 196.935 68.8936C194.408 82.0641 186.474 88.3541 184.631 88.1493C180.774 87.7208 171.217 90.3322 165.394 80.1474C163.766 77.2994 163.652 73.8882 164.041 70.6306C166.975 46.0205 161.108 38.1574 151.765 38.8493C140.116 39.712 147.898 57.216 130.015 57.216C112.131 57.216 110.696 14.0458 98.598 15.166C67.4566 18.0494 81.198 80.416 83.6147 94.4327C86.0314 108.449 71.048 108.933 64.2814 107.966C57.5147 106.999 50.748 101.683 49.298 91.0493C47.848 80.416 59.2219 44.9111 52.198 24.8327C47.154 10.4137 27.1592 22.618 22.7147 22.416C18.376 22.2188 13.7958 20.8145 9.89357 19.2211C3.48532 16.6043 -0.00195312 10.0118 -0.00195312 3.08985V0.666016Z" fill="#F4FAFC"/>
<path d="M79.9938 96.7538C79.6333 98.3143 72.8559 105.026 65.5735 103.343C58.2912 101.661 54.2033 92.4385 54.5638 90.878C54.9244 89.3175 56.5172 96.6184 63.7996 98.3011C71.082 99.9837 80.3544 95.1933 79.9938 96.7538Z" fill="#0083CA" fill-opacity="0.2"/>
<path d="M529.283 58.7802C529.057 59.7596 524.803 63.9721 520.232 62.916C515.662 61.8599 517.53 53.0216 517.756 52.0421C517.983 51.0627 517.426 58.5747 521.997 59.6308C526.568 60.6869 529.509 57.8008 529.283 58.7802Z" fill="#0083CA" fill-opacity="0.2"/>
<path d="M137.804 50.3352C137.618 51.1396 132.465 54.2161 126.276 52.7861C120.087 51.356 121.533 44.0764 121.719 43.272C121.905 42.4675 122.045 48.7752 128.234 50.2053C134.423 51.6354 137.99 49.5307 137.804 50.3352Z" fill="#0083CA" fill-opacity="0.2"/>
<path d="M1328.99 114.728C1328.27 116.161 1317.34 126.079 1310.65 122.736C1303.97 119.394 1303.14 104.301 1303.85 102.869C1304.57 101.436 1303.97 113.543 1310.65 116.885C1317.34 120.228 1329.71 113.296 1328.99 114.728Z" fill="#0083CA" fill-opacity="0.2"/>
<path d="M1273.87 75.1691C1273.72 76.0978 1269.02 83.5221 1264.26 82.7462C1259.5 81.9703 1255.97 73.5814 1256.12 72.6528C1256.28 71.7242 1258.33 78.6645 1263.09 79.4404C1267.85 80.2163 1274.02 74.2405 1273.87 75.1691Z" fill="#0083CA" fill-opacity="0.2"/>
<path d="M594.055 13.4467C593.338 14.8792 580.294 24.3096 573.609 20.9669C566.924 17.6242 563.815 13.2162 564.531 11.7837C565.247 10.3511 566.924 14.241 573.609 17.5837C580.294 20.9264 594.771 12.0142 594.055 13.4467Z" fill="#0083CA" fill-opacity="0.2"/>
<path d="M676.922 18.0146C676.152 19.4191 651.042 25.8106 642.236 20.9837C633.43 16.1568 627.797 12.0415 628.567 10.637C629.337 9.23255 637.061 13.5267 645.867 18.3536C654.672 23.1805 677.692 16.6101 676.922 18.0146Z" fill="#0083CA" fill-opacity="0.2"/>
<path d="M303.787 12.2006C303.322 13.9992 287.823 18.9067 280.587 17.0339C275.849 15.8074 268.097 14.9427 262.969 12.9991C258.761 11.4045 260.148 8.4843 264.524 9.53385C269.908 10.8253 277.273 13.0259 281.554 14.1339C288.79 16.0067 304.189 10.6501 303.787 12.2006Z" fill="#0083CA" fill-opacity="0.2"/>
<path d="M6.81268 13.2823C7.27819 15.0809 17.2327 21.4234 21.4601 20.3292C24.3903 19.5708 29.4207 19.5474 32.302 17.922C34.7054 16.5662 33.2158 14.033 30.5243 14.6413C27.3667 15.3548 23.0831 16.759 20.5777 17.4074C16.3502 18.5016 6.41137 11.7318 6.81268 13.2823Z" fill="#0083CA" fill-opacity="0.2"/>
<path d="M1011.33 23.5031C1010.52 25.1747 994.362 26.9328 987.637 23.6712C983.232 21.5352 975.804 19.1604 971.158 16.2446C967.347 13.8522 969.282 11.2625 973.366 13.1536C978.39 15.4804 985.177 19.0888 989.156 21.0185C995.881 24.2801 1012.03 22.062 1011.33 23.5031Z" fill="#0083CA" fill-opacity="0.2"/>
<path d="M1148.02 10.9948C1147.85 12.4443 1133.37 17.555 1125.94 16.6726C1121.62 16.1582 1114.99 16.0626 1109.8 15.2659C1104.37 14.4305 1105.12 11.6443 1110.58 12.271C1115.88 12.8785 1122.47 13.846 1126.43 14.3177C1133.86 15.2002 1148.17 9.74511 1148.02 10.9948Z" fill="#0083CA" fill-opacity="0.2"/>
<path d="M1068.35 49.4758C1067.37 50.4034 1055.05 47.5008 1053.46 44.2595C1052.6 42.5109 1051.09 40.7719 1050.33 39.1098C1049.1 36.4512 1052.2 35.7331 1053.62 38.2893C1054.63 40.1027 1055.68 42.2987 1056.44 43.8457C1058.03 47.087 1071.17 46.8283 1068.35 49.4758Z" fill="#0083CA" fill-opacity="0.2"/>
<path d="M1218.83 19.3593C1218.1 20.0418 1209.04 17.9064 1207.87 15.5217C1207.41 14.5888 1206.7 13.6595 1206.13 12.7528C1204.57 10.276 1207.19 9.56255 1208.54 12.1582C1209.1 13.2326 1209.64 14.3603 1210.06 15.2173C1211.23 17.6019 1220.9 17.4115 1218.83 19.3593Z" fill="#0083CA" fill-opacity="0.2"/>
<path d="M852.176 26.1154C853.785 30.0457 809.523 30.6125 796.047 24.2144C788.14 20.4607 779.763 16.4363 774.021 12.9453C768.661 9.68606 770.149 7.51448 775.88 10.0664C783.399 13.4144 794.346 18.498 803.583 22.2115C819.236 28.5042 850.567 22.1852 852.176 26.1154Z" fill="#0083CA" fill-opacity="0.2"/>
<path d="M440.086 15.0991C439.621 16.8976 424.122 21.8052 416.886 19.9324C412.147 18.7058 404.396 17.8411 399.268 15.8976C395.06 14.3029 396.447 11.3827 400.823 12.4323C406.207 13.7237 413.572 15.9244 417.853 17.0324C425.089 18.9052 440.487 13.5485 440.086 15.0991Z" fill="#0083CA" fill-opacity="0.2"/>
<path d="M185.017 77.1777C191.407 74.192 192.136 76.5215 186.159 80.2671C185.5 80.6801 184.826 81.0591 184.15 81.3851C179.907 83.4299 175.66 82.9402 172.55 81.3852C170.161 80.1907 166.97 71.37 167.233 68.8185C167.806 63.2786 171.331 64.8204 172.302 70.3045C172.853 73.4105 174.238 76.6707 176.9 78.0018C179.327 79.2154 182.262 78.4647 185.017 77.1777Z" fill="#0083CA" fill-opacity="0.2"/>
</g>
<defs>
<clipPath id="clip0_1353_7531">
<rect width="1392" height="146.933" fill="white" transform="translate(-0.00195312 0.666016)"/>
</clipPath>
</defs>
</svg>
