<svg width="99" height="56" viewBox="0 0 99 56" fill="none" xmlns="http://www.w3.org/2000/svg">
<g filter="url(#filter0_d_3700_1236)">
<mask id="path-1-outside-1_3700_1236" maskUnits="userSpaceOnUse" x="0.40625" y="1" width="90" height="47" fill="black">
<rect fill="white" x="0.40625" y="1" width="90" height="47"/>
<path d="M8.31645 27.8345C8.5294 28.6863 8.63587 29.751 8.63587 31.0287C8.63587 32.2532 8.5294 33.318 8.31645 34.223C8.5294 35.0748 8.63587 36.1395 8.63587 37.4172C8.63587 38.6417 8.5294 39.7065 8.31645 40.6115H21.0935C21.3064 41.4633 21.4129 42.528 21.4129 43.8057C21.4129 45.0302 21.3064 46.095 21.0935 47H1.92794C1.71499 46.095 1.60852 45.0302 1.60852 43.8057C1.60852 42.528 1.71499 41.4633 1.92794 40.6115C1.71499 39.7065 1.60852 38.6417 1.60852 37.4172C1.60852 36.1395 1.71499 35.0748 1.92794 34.223C1.71499 33.318 1.60852 32.2532 1.60852 31.0287C1.60852 29.751 1.71499 28.6863 1.92794 27.8345C1.71499 26.9295 1.60852 25.8647 1.60852 24.6402C1.60852 23.3625 1.71499 22.2978 1.92794 21.446C1.71499 20.5409 1.60852 19.4762 1.60852 18.2517C1.60852 16.974 1.71499 15.9093 1.92794 15.0575C1.71499 14.1524 1.60852 13.0877 1.60852 11.8632C1.60852 10.5855 1.71499 9.52078 1.92794 8.66898C1.71499 7.76394 1.60852 6.69919 1.60852 5.47473C1.60852 4.19703 1.71499 3.13228 1.92794 2.28048H21.0935C21.3064 3.13228 21.4129 4.19703 21.4129 5.47473C21.4129 6.69919 21.3064 7.76394 21.0935 8.66898H8.31645C8.5294 9.52078 8.63587 10.5855 8.63587 11.8632C8.63587 13.0877 8.5294 14.1524 8.31645 15.0575C8.5294 15.9093 8.63587 16.974 8.63587 18.2517C8.63587 19.4762 8.5294 20.5409 8.31645 21.446H21.0935C21.3064 22.2978 21.4129 23.3625 21.4129 24.6402C21.4129 25.8647 21.3064 26.9295 21.0935 27.8345H8.31645ZM56.2614 40.6115C56.4744 41.4633 56.5808 42.528 56.5808 43.8057C56.5808 45.0302 56.4744 46.095 56.2614 47H49.8729C49.66 46.095 49.5535 45.0302 49.5535 43.8057C49.5535 42.528 49.66 41.4633 49.8729 40.6115H47.4772C47.2643 39.7065 47.1578 38.6417 47.1578 37.4172C47.1578 36.1395 47.2643 35.0748 47.4772 34.223H45.8801C45.6671 33.318 45.5607 32.2532 45.5607 31.0287C45.5607 29.751 45.6671 28.6863 45.8801 27.8345H41.0887C41.3017 28.6863 41.4081 29.751 41.4081 31.0287C41.4081 32.2532 41.3017 33.318 41.0887 34.223H39.4916C39.7045 35.0748 39.811 36.1395 39.811 37.4172C39.811 38.6417 39.7045 39.7065 39.4916 40.6115H37.0959C37.3089 41.4633 37.4153 42.528 37.4153 43.8057C37.4153 45.0302 37.3089 46.095 37.0959 47H30.7074C30.4944 46.095 30.388 45.0302 30.388 43.8057C30.388 42.528 30.4944 41.4633 30.7074 40.6115H33.1031C32.8901 39.7065 32.7837 38.6417 32.7837 37.4172C32.7837 36.1395 32.8901 35.0748 33.1031 34.223H36.2973C36.0844 33.318 35.9779 32.2532 35.9779 31.0287C35.9779 29.751 36.0844 28.6863 36.2973 27.8345H38.693C38.4801 26.9295 38.3736 25.8647 38.3736 24.6402C38.3736 23.3625 38.4801 22.2978 38.693 21.446H36.2973C36.0844 20.5409 35.9779 19.4762 35.9779 18.2517C35.9779 16.974 36.0844 15.9093 36.2973 15.0575H33.1031C32.8901 14.1524 32.7837 13.0877 32.7837 11.8632C32.7837 10.5855 32.8901 9.52078 33.1031 8.66898H30.7074C30.4944 7.76394 30.388 6.69919 30.388 5.47473C30.388 4.19703 30.4944 3.13228 30.7074 2.28048H37.0959C37.3089 3.13228 37.4153 4.19703 37.4153 5.47473C37.4153 6.69919 37.3089 7.76394 37.0959 8.66898H39.4916C39.7045 9.52078 39.811 10.5855 39.811 11.8632C39.811 13.0877 39.7045 14.1524 39.4916 15.0575H41.0887C41.3017 15.9093 41.4081 16.974 41.4081 18.2517C41.4081 19.4762 41.3017 20.5409 41.0887 21.446H45.8801C45.6671 20.5409 45.5607 19.4762 45.5607 18.2517C45.5607 16.974 45.6671 15.9093 45.8801 15.0575H47.4772C47.2643 14.1524 47.1578 13.0877 47.1578 11.8632C47.1578 10.5855 47.2643 9.52078 47.4772 8.66898H49.8729C49.66 7.76394 49.5535 6.69919 49.5535 5.47473C49.5535 4.19703 49.66 3.13228 49.8729 2.28048H56.2614C56.4744 3.13228 56.5808 4.19703 56.5808 5.47473C56.5808 6.69919 56.4744 7.76394 56.2614 8.66898H53.8657C54.0787 9.52078 54.1851 10.5855 54.1851 11.8632C54.1851 13.0877 54.0787 14.1524 53.8657 15.0575H50.6715C50.8844 15.9093 50.9909 16.974 50.9909 18.2517C50.9909 19.4762 50.8844 20.5409 50.6715 21.446H48.2758C48.4887 22.2978 48.5952 23.3625 48.5952 24.6402C48.5952 25.8647 48.4887 26.9295 48.2758 27.8345H50.6715C50.8844 28.6863 50.9909 29.751 50.9909 31.0287C50.9909 32.2532 50.8844 33.318 50.6715 34.223H53.8657C54.0787 35.0748 54.1851 36.1395 54.1851 37.4172C54.1851 38.6417 54.0787 39.7065 53.8657 40.6115H56.2614ZM88.5545 11.8632C88.5545 13.0877 88.4481 14.1524 88.2351 15.0575C88.4481 15.9093 88.5545 16.974 88.5545 18.2517C88.5545 19.4762 88.4481 20.5409 88.2351 21.446H85.0409C85.2538 22.2978 85.3603 23.3625 85.3603 24.6402C85.3603 25.8647 85.2538 26.9295 85.0409 27.8345H69.0696C69.2826 28.6863 69.389 29.751 69.389 31.0287C69.389 32.2532 69.2826 33.318 69.0696 34.223C69.2826 35.0748 69.389 36.1395 69.389 37.4172C69.389 38.6417 69.2826 39.7065 69.0696 40.6115C69.2826 41.4633 69.389 42.528 69.389 43.8057C69.389 45.0302 69.2826 46.095 69.0696 47H62.6811C62.4682 46.095 62.3617 45.0302 62.3617 43.8057C62.3617 42.528 62.4682 41.4633 62.6811 40.6115C62.4682 39.7065 62.3617 38.6417 62.3617 37.4172C62.3617 36.1395 62.4682 35.0748 62.6811 34.223C62.4682 33.318 62.3617 32.2532 62.3617 31.0287C62.3617 29.751 62.4682 28.6863 62.6811 27.8345C62.4682 26.9295 62.3617 25.8647 62.3617 24.6402C62.3617 23.3625 62.4682 22.2978 62.6811 21.446C62.4682 20.5409 62.3617 19.4762 62.3617 18.2517C62.3617 16.974 62.4682 15.9093 62.6811 15.0575C62.4682 14.1524 62.3617 13.0877 62.3617 11.8632C62.3617 10.5855 62.4682 9.52078 62.6811 8.66898C62.4682 7.76394 62.3617 6.69919 62.3617 5.47473C62.3617 4.19703 62.4682 3.13228 62.6811 2.28048H85.0409C85.2538 3.13228 85.3603 4.19703 85.3603 5.47473C85.3603 6.69919 85.2538 7.76394 85.0409 8.66898H88.2351C88.4481 9.52078 88.5545 10.5855 88.5545 11.8632ZM81.8466 21.446C81.6337 20.5409 81.5272 19.4762 81.5272 18.2517C81.5272 16.974 81.6337 15.9093 81.8466 15.0575C81.6337 14.1524 81.5272 13.0877 81.5272 11.8632C81.5272 10.5855 81.6337 9.52078 81.8466 8.66898H69.0696C69.2826 9.52078 69.389 10.5855 69.389 11.8632C69.389 13.0877 69.2826 14.1524 69.0696 15.0575C69.2826 15.9093 69.389 16.974 69.389 18.2517C69.389 19.4762 69.2826 20.5409 69.0696 21.446H81.8466Z"/>
</mask>
<path d="M8.31645 27.8345C8.5294 28.6863 8.63587 29.751 8.63587 31.0287C8.63587 32.2532 8.5294 33.318 8.31645 34.223C8.5294 35.0748 8.63587 36.1395 8.63587 37.4172C8.63587 38.6417 8.5294 39.7065 8.31645 40.6115H21.0935C21.3064 41.4633 21.4129 42.528 21.4129 43.8057C21.4129 45.0302 21.3064 46.095 21.0935 47H1.92794C1.71499 46.095 1.60852 45.0302 1.60852 43.8057C1.60852 42.528 1.71499 41.4633 1.92794 40.6115C1.71499 39.7065 1.60852 38.6417 1.60852 37.4172C1.60852 36.1395 1.71499 35.0748 1.92794 34.223C1.71499 33.318 1.60852 32.2532 1.60852 31.0287C1.60852 29.751 1.71499 28.6863 1.92794 27.8345C1.71499 26.9295 1.60852 25.8647 1.60852 24.6402C1.60852 23.3625 1.71499 22.2978 1.92794 21.446C1.71499 20.5409 1.60852 19.4762 1.60852 18.2517C1.60852 16.974 1.71499 15.9093 1.92794 15.0575C1.71499 14.1524 1.60852 13.0877 1.60852 11.8632C1.60852 10.5855 1.71499 9.52078 1.92794 8.66898C1.71499 7.76394 1.60852 6.69919 1.60852 5.47473C1.60852 4.19703 1.71499 3.13228 1.92794 2.28048H21.0935C21.3064 3.13228 21.4129 4.19703 21.4129 5.47473C21.4129 6.69919 21.3064 7.76394 21.0935 8.66898H8.31645C8.5294 9.52078 8.63587 10.5855 8.63587 11.8632C8.63587 13.0877 8.5294 14.1524 8.31645 15.0575C8.5294 15.9093 8.63587 16.974 8.63587 18.2517C8.63587 19.4762 8.5294 20.5409 8.31645 21.446H21.0935C21.3064 22.2978 21.4129 23.3625 21.4129 24.6402C21.4129 25.8647 21.3064 26.9295 21.0935 27.8345H8.31645ZM56.2614 40.6115C56.4744 41.4633 56.5808 42.528 56.5808 43.8057C56.5808 45.0302 56.4744 46.095 56.2614 47H49.8729C49.66 46.095 49.5535 45.0302 49.5535 43.8057C49.5535 42.528 49.66 41.4633 49.8729 40.6115H47.4772C47.2643 39.7065 47.1578 38.6417 47.1578 37.4172C47.1578 36.1395 47.2643 35.0748 47.4772 34.223H45.8801C45.6671 33.318 45.5607 32.2532 45.5607 31.0287C45.5607 29.751 45.6671 28.6863 45.8801 27.8345H41.0887C41.3017 28.6863 41.4081 29.751 41.4081 31.0287C41.4081 32.2532 41.3017 33.318 41.0887 34.223H39.4916C39.7045 35.0748 39.811 36.1395 39.811 37.4172C39.811 38.6417 39.7045 39.7065 39.4916 40.6115H37.0959C37.3089 41.4633 37.4153 42.528 37.4153 43.8057C37.4153 45.0302 37.3089 46.095 37.0959 47H30.7074C30.4944 46.095 30.388 45.0302 30.388 43.8057C30.388 42.528 30.4944 41.4633 30.7074 40.6115H33.1031C32.8901 39.7065 32.7837 38.6417 32.7837 37.4172C32.7837 36.1395 32.8901 35.0748 33.1031 34.223H36.2973C36.0844 33.318 35.9779 32.2532 35.9779 31.0287C35.9779 29.751 36.0844 28.6863 36.2973 27.8345H38.693C38.4801 26.9295 38.3736 25.8647 38.3736 24.6402C38.3736 23.3625 38.4801 22.2978 38.693 21.446H36.2973C36.0844 20.5409 35.9779 19.4762 35.9779 18.2517C35.9779 16.974 36.0844 15.9093 36.2973 15.0575H33.1031C32.8901 14.1524 32.7837 13.0877 32.7837 11.8632C32.7837 10.5855 32.8901 9.52078 33.1031 8.66898H30.7074C30.4944 7.76394 30.388 6.69919 30.388 5.47473C30.388 4.19703 30.4944 3.13228 30.7074 2.28048H37.0959C37.3089 3.13228 37.4153 4.19703 37.4153 5.47473C37.4153 6.69919 37.3089 7.76394 37.0959 8.66898H39.4916C39.7045 9.52078 39.811 10.5855 39.811 11.8632C39.811 13.0877 39.7045 14.1524 39.4916 15.0575H41.0887C41.3017 15.9093 41.4081 16.974 41.4081 18.2517C41.4081 19.4762 41.3017 20.5409 41.0887 21.446H45.8801C45.6671 20.5409 45.5607 19.4762 45.5607 18.2517C45.5607 16.974 45.6671 15.9093 45.8801 15.0575H47.4772C47.2643 14.1524 47.1578 13.0877 47.1578 11.8632C47.1578 10.5855 47.2643 9.52078 47.4772 8.66898H49.8729C49.66 7.76394 49.5535 6.69919 49.5535 5.47473C49.5535 4.19703 49.66 3.13228 49.8729 2.28048H56.2614C56.4744 3.13228 56.5808 4.19703 56.5808 5.47473C56.5808 6.69919 56.4744 7.76394 56.2614 8.66898H53.8657C54.0787 9.52078 54.1851 10.5855 54.1851 11.8632C54.1851 13.0877 54.0787 14.1524 53.8657 15.0575H50.6715C50.8844 15.9093 50.9909 16.974 50.9909 18.2517C50.9909 19.4762 50.8844 20.5409 50.6715 21.446H48.2758C48.4887 22.2978 48.5952 23.3625 48.5952 24.6402C48.5952 25.8647 48.4887 26.9295 48.2758 27.8345H50.6715C50.8844 28.6863 50.9909 29.751 50.9909 31.0287C50.9909 32.2532 50.8844 33.318 50.6715 34.223H53.8657C54.0787 35.0748 54.1851 36.1395 54.1851 37.4172C54.1851 38.6417 54.0787 39.7065 53.8657 40.6115H56.2614ZM88.5545 11.8632C88.5545 13.0877 88.4481 14.1524 88.2351 15.0575C88.4481 15.9093 88.5545 16.974 88.5545 18.2517C88.5545 19.4762 88.4481 20.5409 88.2351 21.446H85.0409C85.2538 22.2978 85.3603 23.3625 85.3603 24.6402C85.3603 25.8647 85.2538 26.9295 85.0409 27.8345H69.0696C69.2826 28.6863 69.389 29.751 69.389 31.0287C69.389 32.2532 69.2826 33.318 69.0696 34.223C69.2826 35.0748 69.389 36.1395 69.389 37.4172C69.389 38.6417 69.2826 39.7065 69.0696 40.6115C69.2826 41.4633 69.389 42.528 69.389 43.8057C69.389 45.0302 69.2826 46.095 69.0696 47H62.6811C62.4682 46.095 62.3617 45.0302 62.3617 43.8057C62.3617 42.528 62.4682 41.4633 62.6811 40.6115C62.4682 39.7065 62.3617 38.6417 62.3617 37.4172C62.3617 36.1395 62.4682 35.0748 62.6811 34.223C62.4682 33.318 62.3617 32.2532 62.3617 31.0287C62.3617 29.751 62.4682 28.6863 62.6811 27.8345C62.4682 26.9295 62.3617 25.8647 62.3617 24.6402C62.3617 23.3625 62.4682 22.2978 62.6811 21.446C62.4682 20.5409 62.3617 19.4762 62.3617 18.2517C62.3617 16.974 62.4682 15.9093 62.6811 15.0575C62.4682 14.1524 62.3617 13.0877 62.3617 11.8632C62.3617 10.5855 62.4682 9.52078 62.6811 8.66898C62.4682 7.76394 62.3617 6.69919 62.3617 5.47473C62.3617 4.19703 62.4682 3.13228 62.6811 2.28048H85.0409C85.2538 3.13228 85.3603 4.19703 85.3603 5.47473C85.3603 6.69919 85.2538 7.76394 85.0409 8.66898H88.2351C88.4481 9.52078 88.5545 10.5855 88.5545 11.8632ZM81.8466 21.446C81.6337 20.5409 81.5272 19.4762 81.5272 18.2517C81.5272 16.974 81.6337 15.9093 81.8466 15.0575C81.6337 14.1524 81.5272 13.0877 81.5272 11.8632C81.5272 10.5855 81.6337 9.52078 81.8466 8.66898H69.0696C69.2826 9.52078 69.389 10.5855 69.389 11.8632C69.389 13.0877 69.2826 14.1524 69.0696 15.0575C69.2826 15.9093 69.389 16.974 69.389 18.2517C69.389 19.4762 69.2826 20.5409 69.0696 21.446H81.8466Z" fill="url(#paint0_linear_3700_1236)"/>
<path d="M8.31645 27.8345V26.8345H7.03567L7.3463 28.077L8.31645 27.8345ZM8.31645 34.223L7.34303 33.994L7.28746 34.2301L7.3463 34.4655L8.31645 34.223ZM8.31645 40.6115L7.34303 40.3825L7.05384 41.6115H8.31645V40.6115ZM21.0935 40.6115L22.0636 40.369L21.8742 39.6115H21.0935V40.6115ZM21.0935 47V48H21.8855L22.0669 47.229L21.0935 47ZM1.92794 47L0.954526 47.229L1.13593 48H1.92794V47ZM1.92794 40.6115L2.89809 40.854L2.95693 40.6186L2.90136 40.3825L1.92794 40.6115ZM1.92794 34.223L2.89809 34.4655L2.95693 34.2301L2.90136 33.994L1.92794 34.223ZM1.92794 27.8345L2.89809 28.077L2.95693 27.8416L2.90136 27.6055L1.92794 27.8345ZM1.92794 21.446L2.89809 21.6885L2.95693 21.4531L2.90136 21.2169L1.92794 21.446ZM1.92794 15.0575L2.89809 15.3L2.95693 15.0646L2.90136 14.8284L1.92794 15.0575ZM1.92794 8.66898L2.89809 8.91152L2.95693 8.67613L2.90136 8.43994L1.92794 8.66898ZM1.92794 2.28048V1.28048H1.14717L0.957801 2.03794L1.92794 2.28048ZM21.0935 2.28048L22.0636 2.03794L21.8742 1.28048H21.0935V2.28048ZM21.0935 8.66898V9.66898H21.8855L22.0669 8.89802L21.0935 8.66898ZM8.31645 8.66898V7.66898H7.03567L7.3463 8.91152L8.31645 8.66898ZM8.31645 15.0575L7.34303 14.8284L7.28746 15.0646L7.3463 15.3L8.31645 15.0575ZM8.31645 21.446L7.34303 21.2169L7.05384 22.446H8.31645V21.446ZM21.0935 21.446L22.0636 21.2035L21.8742 20.446H21.0935V21.446ZM21.0935 27.8345V28.8345H21.8855L22.0669 28.0635L21.0935 27.8345ZM8.31645 27.8345L7.3463 28.077C7.53268 28.8225 7.63587 29.7993 7.63587 31.0287H8.63587H9.63587C9.63587 29.7028 9.52612 28.5501 9.28659 27.592L8.31645 27.8345ZM8.63587 31.0287H7.63587C7.63587 32.1989 7.53377 33.1833 7.34303 33.994L8.31645 34.223L9.28986 34.452C9.52502 33.4526 9.63587 32.3076 9.63587 31.0287H8.63587ZM8.31645 34.223L7.3463 34.4655C7.53268 35.211 7.63587 36.1878 7.63587 37.4172H8.63587H9.63587C9.63587 36.0913 9.52612 34.9386 9.28659 33.9805L8.31645 34.223ZM8.63587 37.4172H7.63587C7.63587 38.5874 7.53377 39.5718 7.34303 40.3825L8.31645 40.6115L9.28986 40.8405C9.52502 39.8411 9.63587 38.6961 9.63587 37.4172H8.63587ZM8.31645 40.6115V41.6115H21.0935V40.6115V39.6115H8.31645V40.6115ZM21.0935 40.6115L20.1233 40.854C20.3097 41.5995 20.4129 42.5763 20.4129 43.8057H21.4129H22.4129C22.4129 42.4798 22.3031 41.3271 22.0636 40.369L21.0935 40.6115ZM21.4129 43.8057H20.4129C20.4129 44.9759 20.3108 45.9603 20.12 46.771L21.0935 47L22.0669 47.229C22.302 46.2296 22.4129 45.0846 22.4129 43.8057H21.4129ZM21.0935 47V46H1.92794V47V48H21.0935V47ZM1.92794 47L2.90136 46.771C2.71062 45.9603 2.60852 44.9759 2.60852 43.8057H1.60852H0.608519C0.608519 45.0846 0.719366 46.2296 0.954526 47.229L1.92794 47ZM1.60852 43.8057H2.60852C2.60852 42.5763 2.71171 41.5995 2.89809 40.854L1.92794 40.6115L0.957801 40.369C0.718275 41.3271 0.608519 42.4798 0.608519 43.8057H1.60852ZM1.92794 40.6115L2.90136 40.3825C2.71062 39.5718 2.60852 38.5874 2.60852 37.4172H1.60852H0.608519C0.608519 38.6961 0.719366 39.8411 0.954526 40.8405L1.92794 40.6115ZM1.60852 37.4172H2.60852C2.60852 36.1878 2.71171 35.211 2.89809 34.4655L1.92794 34.223L0.957801 33.9805C0.718275 34.9386 0.608519 36.0913 0.608519 37.4172H1.60852ZM1.92794 34.223L2.90136 33.994C2.71062 33.1833 2.60852 32.1989 2.60852 31.0287H1.60852H0.608519C0.608519 32.3076 0.719366 33.4526 0.954526 34.452L1.92794 34.223ZM1.60852 31.0287H2.60852C2.60852 29.7993 2.71171 28.8225 2.89809 28.077L1.92794 27.8345L0.957801 27.592C0.718275 28.5501 0.608519 29.7028 0.608519 31.0287H1.60852ZM1.92794 27.8345L2.90136 27.6055C2.71062 26.7948 2.60852 25.8104 2.60852 24.6402H1.60852H0.608519C0.608519 25.9191 0.719366 27.0641 0.954526 28.0635L1.92794 27.8345ZM1.60852 24.6402H2.60852C2.60852 23.4108 2.71171 22.434 2.89809 21.6885L1.92794 21.446L0.957801 21.2035C0.718275 22.1616 0.608519 23.3143 0.608519 24.6402H1.60852ZM1.92794 21.446L2.90136 21.2169C2.71062 20.4063 2.60852 19.4219 2.60852 18.2517H1.60852H0.608519C0.608519 19.5305 0.719366 20.6756 0.954526 21.675L1.92794 21.446ZM1.60852 18.2517H2.60852C2.60852 17.0223 2.71171 16.0455 2.89809 15.3L1.92794 15.0575L0.957801 14.8149C0.718275 15.7731 0.608519 16.9258 0.608519 18.2517H1.60852ZM1.92794 15.0575L2.90136 14.8284C2.71062 14.0178 2.60852 13.0333 2.60852 11.8632H1.60852H0.608519C0.608519 13.142 0.719366 14.2871 0.954526 15.2865L1.92794 15.0575ZM1.60852 11.8632H2.60852C2.60852 10.6338 2.71171 9.65701 2.89809 8.91152L1.92794 8.66898L0.957801 8.42645C0.718275 9.38455 0.608519 10.5373 0.608519 11.8632H1.60852ZM1.92794 8.66898L2.90136 8.43994C2.71062 7.6293 2.60852 6.64484 2.60852 5.47473H1.60852H0.608519C0.608519 6.75354 0.719366 7.89859 0.954526 8.89802L1.92794 8.66898ZM1.60852 5.47473H2.60852C2.60852 4.24529 2.71171 3.26851 2.89809 2.52302L1.92794 2.28048L0.957801 2.03794C0.718275 2.99605 0.608519 4.14876 0.608519 5.47473H1.60852ZM1.92794 2.28048V3.28048H21.0935V2.28048V1.28048H1.92794V2.28048ZM21.0935 2.28048L20.1233 2.52301C20.3097 3.26851 20.4129 4.24529 20.4129 5.47473H21.4129H22.4129C22.4129 4.14876 22.3031 2.99605 22.0636 2.03794L21.0935 2.28048ZM21.4129 5.47473H20.4129C20.4129 6.64484 20.3108 7.6293 20.12 8.43995L21.0935 8.66898L22.0669 8.89802C22.302 7.89859 22.4129 6.75354 22.4129 5.47473H21.4129ZM21.0935 8.66898V7.66898H8.31645V8.66898V9.66898H21.0935V8.66898ZM8.31645 8.66898L7.3463 8.91152C7.53268 9.65701 7.63587 10.6338 7.63587 11.8632H8.63587H9.63587C9.63587 10.5373 9.52612 9.38455 9.28659 8.42645L8.31645 8.66898ZM8.63587 11.8632H7.63587C7.63587 13.0333 7.53377 14.0178 7.34303 14.8284L8.31645 15.0575L9.28986 15.2865C9.52502 14.2871 9.63587 13.142 9.63587 11.8632H8.63587ZM8.31645 15.0575L7.3463 15.3C7.53268 16.0455 7.63587 17.0223 7.63587 18.2517H8.63587H9.63587C9.63587 16.9258 9.52612 15.7731 9.28659 14.8149L8.31645 15.0575ZM8.63587 18.2517H7.63587C7.63587 19.4219 7.53377 20.4063 7.34303 21.2169L8.31645 21.446L9.28986 21.675C9.52502 20.6756 9.63587 19.5305 9.63587 18.2517H8.63587ZM8.31645 21.446V22.446H21.0935V21.446V20.446H8.31645V21.446ZM21.0935 21.446L20.1233 21.6885C20.3097 22.434 20.4129 23.4108 20.4129 24.6402H21.4129H22.4129C22.4129 23.3143 22.3031 22.1616 22.0636 21.2035L21.0935 21.446ZM21.4129 24.6402H20.4129C20.4129 25.8104 20.3108 26.7948 20.12 27.6055L21.0935 27.8345L22.0669 28.0635C22.302 27.0641 22.4129 25.9191 22.4129 24.6402H21.4129ZM21.0935 27.8345V26.8345H8.31645V27.8345V28.8345H21.0935V27.8345ZM56.2614 40.6115L57.2316 40.369L57.0422 39.6115H56.2614V40.6115ZM56.2614 47V48H57.0534L57.2348 47.229L56.2614 47ZM49.8729 47L48.8995 47.229L49.0809 48H49.8729V47ZM49.8729 40.6115L50.843 40.854L51.1537 39.6115H49.8729V40.6115ZM47.4772 40.6115L46.5038 40.8405L46.6852 41.6115H47.4772V40.6115ZM47.4772 34.223L48.4474 34.4655L48.758 33.223H47.4772V34.223ZM45.8801 34.223L44.9067 34.452L45.0881 35.223H45.8801V34.223ZM45.8801 27.8345L46.8502 28.077L47.1609 26.8345H45.8801V27.8345ZM41.0887 27.8345V26.8345H39.8079L40.1186 28.077L41.0887 27.8345ZM41.0887 34.223V35.223H41.8807L42.0621 34.452L41.0887 34.223ZM39.4916 34.223V33.223H38.2108L38.5214 34.4655L39.4916 34.223ZM39.4916 40.6115V41.6115H40.2836L40.465 40.8405L39.4916 40.6115ZM37.0959 40.6115V39.6115H35.8151L36.1258 40.854L37.0959 40.6115ZM37.0959 47V48H37.8879L38.0693 47.229L37.0959 47ZM30.7074 47L29.734 47.229L29.9154 48H30.7074V47ZM30.7074 40.6115V39.6115H29.9266L29.7373 40.369L30.7074 40.6115ZM33.1031 40.6115V41.6115H34.3657L34.0765 40.3825L33.1031 40.6115ZM33.1031 34.223V33.223H32.3223L32.1329 33.9805L33.1031 34.223ZM36.2973 34.223V35.223H37.5599L37.2708 33.994L36.2973 34.223ZM36.2973 27.8345V26.8345H35.5166L35.3272 27.592L36.2973 27.8345ZM38.693 27.8345V28.8345H39.9556L39.6664 27.6055L38.693 27.8345ZM38.693 21.446L39.6632 21.6885L39.9738 20.446H38.693V21.446ZM36.2973 21.446L35.3239 21.675L35.5053 22.446H36.2973V21.446ZM36.2973 15.0575L37.2675 15.3L37.5781 14.0575H36.2973V15.0575ZM33.1031 15.0575L32.1297 15.2865L32.3111 16.0575H33.1031V15.0575ZM33.1031 8.66898L34.0732 8.91152L34.3839 7.66898H33.1031V8.66898ZM30.7074 8.66898L29.734 8.89802L29.9154 9.66898H30.7074V8.66898ZM30.7074 2.28048V1.28048H29.9266L29.7373 2.03794L30.7074 2.28048ZM37.0959 2.28048L38.066 2.03794L37.8767 1.28048H37.0959V2.28048ZM37.0959 8.66898L36.1225 8.43994L35.8333 9.66898H37.0959V8.66898ZM39.4916 8.66898L40.4617 8.42645L40.2724 7.66898H39.4916V8.66898ZM39.4916 15.0575L38.5182 14.8284L38.229 16.0575H39.4916V15.0575ZM41.0887 15.0575L42.0589 14.8149L41.8695 14.0575H41.0887V15.0575ZM41.0887 21.446L40.1153 21.2169L39.8261 22.446H41.0887V21.446ZM45.8801 21.446V22.446H47.1427L46.8535 21.2169L45.8801 21.446ZM45.8801 15.0575V14.0575H45.0993L44.91 14.8149L45.8801 15.0575ZM47.4772 15.0575V16.0575H48.7398L48.4506 14.8284L47.4772 15.0575ZM47.4772 8.66898V7.66898H46.6964L46.5071 8.42645L47.4772 8.66898ZM49.8729 8.66898V9.66898H51.1355L50.8463 8.43995L49.8729 8.66898ZM49.8729 2.28048V1.28048H49.0921L48.9028 2.03794L49.8729 2.28048ZM56.2614 2.28048L57.2316 2.03794L57.0422 1.28048H56.2614V2.28048ZM56.2614 8.66898V9.66898H57.0534L57.2348 8.89802L56.2614 8.66898ZM53.8657 8.66898V7.66898H52.5849L52.8956 8.91152L53.8657 8.66898ZM53.8657 15.0575V16.0575H54.6577L54.8391 15.2865L53.8657 15.0575ZM50.6715 15.0575V14.0575H49.3907L49.7013 15.3L50.6715 15.0575ZM50.6715 21.446V22.446H51.4635L51.6449 21.675L50.6715 21.446ZM48.2758 21.446V20.446H46.995L47.3056 21.6885L48.2758 21.446ZM48.2758 27.8345L47.3024 27.6055L47.0132 28.8345H48.2758V27.8345ZM50.6715 27.8345L51.6416 27.592L51.4522 26.8345H50.6715V27.8345ZM50.6715 34.223L49.6981 33.994L49.4089 35.223H50.6715V34.223ZM53.8657 34.223L54.8359 33.9805L54.6465 33.223H53.8657V34.223ZM53.8657 40.6115L52.8923 40.3825L52.6031 41.6115H53.8657V40.6115ZM56.2614 40.6115L55.2913 40.854C55.4776 41.5995 55.5808 42.5763 55.5808 43.8057H56.5808H57.5808C57.5808 42.4798 57.4711 41.3271 57.2316 40.369L56.2614 40.6115ZM56.5808 43.8057H55.5808C55.5808 44.9759 55.4787 45.9603 55.288 46.771L56.2614 47L57.2348 47.229C57.47 46.2296 57.5808 45.0846 57.5808 43.8057H56.5808ZM56.2614 47V46H49.8729V47V48H56.2614V47ZM49.8729 47L50.8463 46.771C50.6556 45.9603 50.5535 44.9759 50.5535 43.8057H49.5535H48.5535C48.5535 45.0846 48.6643 46.2296 48.8995 47.229L49.8729 47ZM49.5535 43.8057H50.5535C50.5535 42.5763 50.6567 41.5995 50.843 40.854L49.8729 40.6115L48.9028 40.369C48.6632 41.3271 48.5535 42.4798 48.5535 43.8057H49.5535ZM49.8729 40.6115V39.6115H47.4772V40.6115V41.6115H49.8729V40.6115ZM47.4772 40.6115L48.4506 40.3825C48.2599 39.5718 48.1578 38.5874 48.1578 37.4172H47.1578H46.1578C46.1578 38.6961 46.2686 39.8411 46.5038 40.8405L47.4772 40.6115ZM47.1578 37.4172H48.1578C48.1578 36.1878 48.261 35.211 48.4474 34.4655L47.4772 34.223L46.5071 33.9805C46.2675 34.9386 46.1578 36.0913 46.1578 37.4172H47.1578ZM47.4772 34.223V33.223H45.8801V34.223V35.223H47.4772V34.223ZM45.8801 34.223L46.8535 33.994C46.6628 33.1833 46.5607 32.1989 46.5607 31.0287H45.5607H44.5607C44.5607 32.3076 44.6715 33.4526 44.9067 34.452L45.8801 34.223ZM45.5607 31.0287H46.5607C46.5607 29.7993 46.6639 28.8225 46.8502 28.077L45.8801 27.8345L44.91 27.592C44.6704 28.5501 44.5607 29.7028 44.5607 31.0287H45.5607ZM45.8801 27.8345V26.8345H41.0887V27.8345V28.8345H45.8801V27.8345ZM41.0887 27.8345L40.1186 28.077C40.3049 28.8225 40.4081 29.7993 40.4081 31.0287H41.4081H42.4081C42.4081 29.7028 42.2984 28.5501 42.0589 27.592L41.0887 27.8345ZM41.4081 31.0287H40.4081C40.4081 32.1989 40.306 33.1833 40.1153 33.9939L41.0887 34.223L42.0621 34.452C42.2973 33.4526 42.4081 32.3076 42.4081 31.0287H41.4081ZM41.0887 34.223V33.223H39.4916V34.223V35.223H41.0887V34.223ZM39.4916 34.223L38.5214 34.4655C38.7078 35.211 38.811 36.1878 38.811 37.4172H39.811H40.811C40.811 36.0913 40.7013 34.9386 40.4617 33.9805L39.4916 34.223ZM39.811 37.4172H38.811C38.811 38.5874 38.7089 39.5718 38.5182 40.3825L39.4916 40.6115L40.465 40.8405C40.7002 39.8411 40.811 38.6961 40.811 37.4172H39.811ZM39.4916 40.6115V39.6115H37.0959V40.6115V41.6115H39.4916V40.6115ZM37.0959 40.6115L36.1258 40.854C36.3121 41.5995 36.4153 42.5763 36.4153 43.8057H37.4153H38.4153C38.4153 42.4798 38.3056 41.3271 38.066 40.369L37.0959 40.6115ZM37.4153 43.8057H36.4153C36.4153 44.9759 36.3132 45.9603 36.1225 46.771L37.0959 47L38.0693 47.229C38.3045 46.2296 38.4153 45.0846 38.4153 43.8057H37.4153ZM37.0959 47V46H30.7074V47V48H37.0959V47ZM30.7074 47L31.6808 46.771C31.4901 45.9603 31.388 44.9759 31.388 43.8057H30.388H29.388C29.388 45.0846 29.4988 46.2296 29.734 47.229L30.7074 47ZM30.388 43.8057H31.388C31.388 42.5763 31.4912 41.5995 31.6775 40.854L30.7074 40.6115L29.7373 40.369C29.4977 41.3271 29.388 42.4798 29.388 43.8057H30.388ZM30.7074 40.6115V41.6115H33.1031V40.6115V39.6115H30.7074V40.6115ZM33.1031 40.6115L34.0765 40.3825C33.8858 39.5718 33.7837 38.5874 33.7837 37.4172H32.7837H31.7837C31.7837 38.6961 31.8945 39.8411 32.1297 40.8405L33.1031 40.6115ZM32.7837 37.4172H33.7837C33.7837 36.1878 33.8869 35.211 34.0732 34.4655L33.1031 34.223L32.1329 33.9805C31.8934 34.9386 31.7837 36.0913 31.7837 37.4172H32.7837ZM33.1031 34.223V35.223H36.2973V34.223V33.223H33.1031V34.223ZM36.2973 34.223L37.2708 33.994C37.08 33.1833 36.9779 32.1989 36.9779 31.0287H35.9779H34.9779C34.9779 32.3076 35.0888 33.4526 35.3239 34.452L36.2973 34.223ZM35.9779 31.0287H36.9779C36.9779 29.7993 37.0811 28.8225 37.2675 28.077L36.2973 27.8345L35.3272 27.592C35.0877 28.5501 34.9779 29.7028 34.9779 31.0287H35.9779ZM36.2973 27.8345V28.8345H38.693V27.8345V26.8345H36.2973V27.8345ZM38.693 27.8345L39.6664 27.6055C39.4757 26.7948 39.3736 25.8104 39.3736 24.6402H38.3736H37.3736C37.3736 25.9191 37.4844 27.0641 37.7196 28.0635L38.693 27.8345ZM38.3736 24.6402H39.3736C39.3736 23.4108 39.4768 22.434 39.6632 21.6885L38.693 21.446L37.7229 21.2035C37.4834 22.1616 37.3736 23.3143 37.3736 24.6402H38.3736ZM38.693 21.446V20.446H36.2973V21.446V22.446H38.693V21.446ZM36.2973 21.446L37.2708 21.2169C37.08 20.4063 36.9779 19.4219 36.9779 18.2517H35.9779H34.9779C34.9779 19.5305 35.0888 20.6756 35.3239 21.675L36.2973 21.446ZM35.9779 18.2517H36.9779C36.9779 17.0223 37.0811 16.0455 37.2675 15.3L36.2973 15.0575L35.3272 14.8149C35.0877 15.7731 34.9779 16.9258 34.9779 18.2517H35.9779ZM36.2973 15.0575V14.0575H33.1031V15.0575V16.0575H36.2973V15.0575ZM33.1031 15.0575L34.0765 14.8284C33.8858 14.0178 33.7837 13.0333 33.7837 11.8632H32.7837H31.7837C31.7837 13.142 31.8945 14.2871 32.1297 15.2865L33.1031 15.0575ZM32.7837 11.8632H33.7837C33.7837 10.6338 33.8869 9.65701 34.0732 8.91152L33.1031 8.66898L32.1329 8.42645C31.8934 9.38455 31.7837 10.5373 31.7837 11.8632H32.7837ZM33.1031 8.66898V7.66898H30.7074V8.66898V9.66898H33.1031V8.66898ZM30.7074 8.66898L31.6808 8.43994C31.4901 7.6293 31.388 6.64484 31.388 5.47473H30.388H29.388C29.388 6.75354 29.4988 7.89859 29.734 8.89802L30.7074 8.66898ZM30.388 5.47473H31.388C31.388 4.24529 31.4912 3.26851 31.6775 2.52302L30.7074 2.28048L29.7373 2.03794C29.4977 2.99605 29.388 4.14876 29.388 5.47473H30.388ZM30.7074 2.28048V3.28048H37.0959V2.28048V1.28048H30.7074V2.28048ZM37.0959 2.28048L36.1258 2.52302C36.3121 3.26851 36.4153 4.24529 36.4153 5.47473H37.4153H38.4153C38.4153 4.14876 38.3056 2.99605 38.066 2.03794L37.0959 2.28048ZM37.4153 5.47473H36.4153C36.4153 6.64484 36.3132 7.6293 36.1225 8.43994L37.0959 8.66898L38.0693 8.89802C38.3045 7.89859 38.4153 6.75354 38.4153 5.47473H37.4153ZM37.0959 8.66898V9.66898H39.4916V8.66898V7.66898H37.0959V8.66898ZM39.4916 8.66898L38.5214 8.91152C38.7078 9.65701 38.811 10.6338 38.811 11.8632H39.811H40.811C40.811 10.5373 40.7013 9.38455 40.4617 8.42645L39.4916 8.66898ZM39.811 11.8632H38.811C38.811 13.0333 38.7089 14.0178 38.5182 14.8284L39.4916 15.0575L40.465 15.2865C40.7002 14.2871 40.811 13.142 40.811 11.8632H39.811ZM39.4916 15.0575V16.0575H41.0887V15.0575V14.0575H39.4916V15.0575ZM41.0887 15.0575L40.1186 15.3C40.3049 16.0455 40.4081 17.0223 40.4081 18.2517H41.4081H42.4081C42.4081 16.9258 42.2984 15.7731 42.0589 14.8149L41.0887 15.0575ZM41.4081 18.2517H40.4081C40.4081 19.4219 40.306 20.4063 40.1153 21.2169L41.0887 21.446L42.0621 21.675C42.2973 20.6756 42.4081 19.5305 42.4081 18.2517H41.4081ZM41.0887 21.446V22.446H45.8801V21.446V20.446H41.0887V21.446ZM45.8801 21.446L46.8535 21.2169C46.6628 20.4063 46.5607 19.4219 46.5607 18.2517H45.5607H44.5607C44.5607 19.5305 44.6715 20.6756 44.9067 21.675L45.8801 21.446ZM45.5607 18.2517H46.5607C46.5607 17.0223 46.6639 16.0455 46.8502 15.3L45.8801 15.0575L44.91 14.8149C44.6704 15.7731 44.5607 16.9258 44.5607 18.2517H45.5607ZM45.8801 15.0575V16.0575H47.4772V15.0575V14.0575H45.8801V15.0575ZM47.4772 15.0575L48.4506 14.8284C48.2599 14.0178 48.1578 13.0333 48.1578 11.8632H47.1578H46.1578C46.1578 13.142 46.2686 14.2871 46.5038 15.2865L47.4772 15.0575ZM47.1578 11.8632H48.1578C48.1578 10.6338 48.261 9.65701 48.4474 8.91152L47.4772 8.66898L46.5071 8.42645C46.2675 9.38455 46.1578 10.5373 46.1578 11.8632H47.1578ZM47.4772 8.66898V9.66898H49.8729V8.66898V7.66898H47.4772V8.66898ZM49.8729 8.66898L50.8463 8.43995C50.6556 7.6293 50.5535 6.64484 50.5535 5.47473H49.5535H48.5535C48.5535 6.75354 48.6643 7.89859 48.8995 8.89802L49.8729 8.66898ZM49.5535 5.47473H50.5535C50.5535 4.24529 50.6567 3.26851 50.843 2.52301L49.8729 2.28048L48.9028 2.03794C48.6632 2.99605 48.5535 4.14876 48.5535 5.47473H49.5535ZM49.8729 2.28048V3.28048H56.2614V2.28048V1.28048H49.8729V2.28048ZM56.2614 2.28048L55.2913 2.52302C55.4776 3.26851 55.5808 4.24529 55.5808 5.47473H56.5808H57.5808C57.5808 4.14876 57.4711 2.99605 57.2316 2.03794L56.2614 2.28048ZM56.5808 5.47473H55.5808C55.5808 6.64484 55.4787 7.6293 55.288 8.43994L56.2614 8.66898L57.2348 8.89802C57.47 7.89859 57.5808 6.75354 57.5808 5.47473H56.5808ZM56.2614 8.66898V7.66898H53.8657V8.66898V9.66898H56.2614V8.66898ZM53.8657 8.66898L52.8956 8.91152C53.082 9.65701 53.1851 10.6338 53.1851 11.8632H54.1851H55.1851C55.1851 10.5373 55.0754 9.38455 54.8359 8.42645L53.8657 8.66898ZM54.1851 11.8632H53.1851C53.1851 13.0333 53.083 14.0178 52.8923 14.8284L53.8657 15.0575L54.8391 15.2865C55.0743 14.2871 55.1851 13.142 55.1851 11.8632H54.1851ZM53.8657 15.0575V14.0575H50.6715V15.0575V16.0575H53.8657V15.0575ZM50.6715 15.0575L49.7013 15.3C49.8877 16.0455 49.9909 17.0223 49.9909 18.2517H50.9909H51.9909C51.9909 16.9258 51.8811 15.7731 51.6416 14.815L50.6715 15.0575ZM50.9909 18.2517H49.9909C49.9909 19.4219 49.8888 20.4063 49.6981 21.2169L50.6715 21.446L51.6449 21.675C51.88 20.6756 51.9909 19.5305 51.9909 18.2517H50.9909ZM50.6715 21.446V20.446H48.2758V21.446V22.446H50.6715V21.446ZM48.2758 21.446L47.3056 21.6885C47.492 22.434 47.5952 23.4108 47.5952 24.6402H48.5952H49.5952C49.5952 23.3143 49.4854 22.1616 49.2459 21.2035L48.2758 21.446ZM48.5952 24.6402H47.5952C47.5952 25.8104 47.4931 26.7948 47.3024 27.6055L48.2758 27.8345L49.2492 28.0635C49.4844 27.0641 49.5952 25.9191 49.5952 24.6402H48.5952ZM48.2758 27.8345V28.8345H50.6715V27.8345V26.8345H48.2758V27.8345ZM50.6715 27.8345L49.7013 28.077C49.8877 28.8225 49.9909 29.7993 49.9909 31.0287H50.9909H51.9909C51.9909 29.7028 51.8811 28.5501 51.6416 27.592L50.6715 27.8345ZM50.9909 31.0287H49.9909C49.9909 32.1989 49.8888 33.1833 49.6981 33.994L50.6715 34.223L51.6449 34.452C51.88 33.4526 51.9909 32.3076 51.9909 31.0287H50.9909ZM50.6715 34.223V35.223H53.8657V34.223V33.223H50.6715V34.223ZM53.8657 34.223L52.8956 34.4655C53.082 35.211 53.1851 36.1878 53.1851 37.4172H54.1851H55.1851C55.1851 36.0913 55.0754 34.9386 54.8359 33.9805L53.8657 34.223ZM54.1851 37.4172H53.1851C53.1851 38.5874 53.083 39.5718 52.8923 40.3825L53.8657 40.6115L54.8391 40.8405C55.0743 39.8411 55.1851 38.6961 55.1851 37.4172H54.1851ZM53.8657 40.6115V41.6115H56.2614V40.6115V39.6115H53.8657V40.6115ZM88.2351 15.0575L87.2617 14.8284L87.2061 15.0646L87.265 15.3L88.2351 15.0575ZM88.2351 21.446V22.446H89.0271L89.2085 21.675L88.2351 21.446ZM85.0409 21.446V20.446H83.7601L84.0707 21.6885L85.0409 21.446ZM85.0409 27.8345V28.8345H85.8329L86.0143 28.0635L85.0409 27.8345ZM69.0696 27.8345V26.8345H67.7888L68.0995 28.077L69.0696 27.8345ZM69.0696 34.223L68.0962 33.994L68.0406 34.2301L68.0995 34.4655L69.0696 34.223ZM69.0696 40.6115L68.0962 40.3825L68.0406 40.6186L68.0995 40.854L69.0696 40.6115ZM69.0696 47V48H69.8616L70.043 47.229L69.0696 47ZM62.6811 47L61.7077 47.229L61.8891 48H62.6811V47ZM62.6811 40.6115L63.6512 40.854L63.7101 40.6186L63.6545 40.3825L62.6811 40.6115ZM62.6811 34.223L63.6512 34.4655L63.7101 34.2301L63.6545 33.994L62.6811 34.223ZM62.6811 27.8345L63.6512 28.077L63.7101 27.8416L63.6545 27.6055L62.6811 27.8345ZM62.6811 21.446L63.6512 21.6885L63.7101 21.4531L63.6545 21.2169L62.6811 21.446ZM62.6811 15.0575L63.6512 15.3L63.7101 15.0646L63.6545 14.8284L62.6811 15.0575ZM62.6811 8.66898L63.6512 8.91152L63.7101 8.67613L63.6545 8.43994L62.6811 8.66898ZM62.6811 2.28048V1.28048H61.9003L61.711 2.03794L62.6811 2.28048ZM85.0409 2.28048L86.011 2.03794L85.8216 1.28048H85.0409V2.28048ZM85.0409 8.66898L84.0675 8.43995L83.7783 9.66898H85.0409V8.66898ZM88.2351 8.66898L89.2053 8.42645L89.0159 7.66898H88.2351V8.66898ZM81.8466 21.446V22.446H83.1092L82.82 21.2169L81.8466 21.446ZM81.8466 15.0575L82.8168 15.3L82.8756 15.0646L82.82 14.8284L81.8466 15.0575ZM81.8466 8.66898L82.8168 8.91151L83.1274 7.66898H81.8466V8.66898ZM69.0696 8.66898V7.66898H67.7888L68.0995 8.91152L69.0696 8.66898ZM69.0696 15.0575L68.0962 14.8284L68.0406 15.0646L68.0995 15.3L69.0696 15.0575ZM69.0696 21.446L68.0962 21.2169L67.807 22.446H69.0696V21.446ZM88.5545 11.8632H87.5545C87.5545 13.0333 87.4524 14.0178 87.2617 14.8284L88.2351 15.0575L89.2085 15.2865C89.4437 14.2871 89.5545 13.142 89.5545 11.8632H88.5545ZM88.2351 15.0575L87.265 15.3C87.4513 16.0455 87.5545 17.0223 87.5545 18.2517H88.5545H89.5545C89.5545 16.9258 89.4448 15.7731 89.2053 14.8149L88.2351 15.0575ZM88.5545 18.2517H87.5545C87.5545 19.4219 87.4524 20.4063 87.2617 21.2169L88.2351 21.446L89.2085 21.675C89.4437 20.6756 89.5545 19.5305 89.5545 18.2517H88.5545ZM88.2351 21.446V20.446H85.0409V21.446V22.446H88.2351V21.446ZM85.0409 21.446L84.0707 21.6885C84.2571 22.434 84.3603 23.4108 84.3603 24.6402H85.3603H86.3603C86.3603 23.3143 86.2505 22.1616 86.011 21.2035L85.0409 21.446ZM85.3603 24.6402H84.3603C84.3603 25.8104 84.2582 26.7948 84.0675 27.6055L85.0409 27.8345L86.0143 28.0635C86.2494 27.0641 86.3603 25.9191 86.3603 24.6402H85.3603ZM85.0409 27.8345V26.8345H69.0696V27.8345V28.8345H85.0409V27.8345ZM69.0696 27.8345L68.0995 28.077C68.2858 28.8225 68.389 29.7993 68.389 31.0287H69.389H70.389C70.389 29.7028 70.2793 28.5501 70.0397 27.592L69.0696 27.8345ZM69.389 31.0287H68.389C68.389 32.1989 68.2869 33.1833 68.0962 33.994L69.0696 34.223L70.043 34.452C70.2782 33.4526 70.389 32.3076 70.389 31.0287H69.389ZM69.0696 34.223L68.0995 34.4655C68.2858 35.211 68.389 36.1878 68.389 37.4172H69.389H70.389C70.389 36.0913 70.2793 34.9386 70.0397 33.9805L69.0696 34.223ZM69.389 37.4172H68.389C68.389 38.5874 68.2869 39.5718 68.0962 40.3825L69.0696 40.6115L70.043 40.8405C70.2782 39.8411 70.389 38.6961 70.389 37.4172H69.389ZM69.0696 40.6115L68.0995 40.854C68.2858 41.5995 68.389 42.5763 68.389 43.8057H69.389H70.389C70.389 42.4798 70.2793 41.3271 70.0397 40.369L69.0696 40.6115ZM69.389 43.8057H68.389C68.389 44.9759 68.2869 45.9603 68.0962 46.771L69.0696 47L70.043 47.229C70.2782 46.2296 70.389 45.0846 70.389 43.8057H69.389ZM69.0696 47V46H62.6811V47V48H69.0696V47ZM62.6811 47L63.6545 46.771C63.4638 45.9603 63.3617 44.9759 63.3617 43.8057H62.3617H61.3617C61.3617 45.0846 61.4725 46.2296 61.7077 47.229L62.6811 47ZM62.3617 43.8057H63.3617C63.3617 42.5763 63.4649 41.5995 63.6512 40.854L62.6811 40.6115L61.711 40.369C61.4714 41.3271 61.3617 42.4798 61.3617 43.8057H62.3617ZM62.6811 40.6115L63.6545 40.3825C63.4638 39.5718 63.3617 38.5874 63.3617 37.4172H62.3617H61.3617C61.3617 38.6961 61.4725 39.8411 61.7077 40.8405L62.6811 40.6115ZM62.3617 37.4172H63.3617C63.3617 36.1878 63.4649 35.211 63.6512 34.4655L62.6811 34.223L61.711 33.9805C61.4714 34.9386 61.3617 36.0913 61.3617 37.4172H62.3617ZM62.6811 34.223L63.6545 33.994C63.4638 33.1833 63.3617 32.1989 63.3617 31.0287H62.3617H61.3617C61.3617 32.3076 61.4725 33.4526 61.7077 34.452L62.6811 34.223ZM62.3617 31.0287H63.3617C63.3617 29.7993 63.4649 28.8225 63.6512 28.077L62.6811 27.8345L61.711 27.592C61.4714 28.5501 61.3617 29.7028 61.3617 31.0287H62.3617ZM62.6811 27.8345L63.6545 27.6055C63.4638 26.7948 63.3617 25.8104 63.3617 24.6402H62.3617H61.3617C61.3617 25.9191 61.4725 27.0641 61.7077 28.0635L62.6811 27.8345ZM62.3617 24.6402H63.3617C63.3617 23.4108 63.4649 22.434 63.6512 21.6885L62.6811 21.446L61.711 21.2035C61.4714 22.1616 61.3617 23.3143 61.3617 24.6402H62.3617ZM62.6811 21.446L63.6545 21.2169C63.4638 20.4063 63.3617 19.4219 63.3617 18.2517H62.3617H61.3617C61.3617 19.5305 61.4725 20.6756 61.7077 21.675L62.6811 21.446ZM62.3617 18.2517H63.3617C63.3617 17.0223 63.4649 16.0455 63.6512 15.3L62.6811 15.0575L61.711 14.8149C61.4714 15.7731 61.3617 16.9258 61.3617 18.2517H62.3617ZM62.6811 15.0575L63.6545 14.8284C63.4638 14.0178 63.3617 13.0333 63.3617 11.8632H62.3617H61.3617C61.3617 13.142 61.4725 14.2871 61.7077 15.2865L62.6811 15.0575ZM62.3617 11.8632H63.3617C63.3617 10.6338 63.4649 9.65701 63.6512 8.91152L62.6811 8.66898L61.711 8.42645C61.4714 9.38455 61.3617 10.5373 61.3617 11.8632H62.3617ZM62.6811 8.66898L63.6545 8.43994C63.4638 7.6293 63.3617 6.64484 63.3617 5.47473H62.3617H61.3617C61.3617 6.75354 61.4725 7.89859 61.7077 8.89802L62.6811 8.66898ZM62.3617 5.47473H63.3617C63.3617 4.24529 63.4649 3.26851 63.6512 2.52302L62.6811 2.28048L61.711 2.03794C61.4714 2.99605 61.3617 4.14876 61.3617 5.47473H62.3617ZM62.6811 2.28048V3.28048H85.0409V2.28048V1.28048H62.6811V2.28048ZM85.0409 2.28048L84.0707 2.52301C84.2571 3.26851 84.3603 4.24529 84.3603 5.47473H85.3603H86.3603C86.3603 4.14876 86.2505 2.99605 86.011 2.03794L85.0409 2.28048ZM85.3603 5.47473H84.3603C84.3603 6.64484 84.2582 7.6293 84.0675 8.43995L85.0409 8.66898L86.0143 8.89802C86.2494 7.89859 86.3603 6.75354 86.3603 5.47473H85.3603ZM85.0409 8.66898V9.66898H88.2351V8.66898V7.66898H85.0409V8.66898ZM88.2351 8.66898L87.265 8.91152C87.4513 9.65701 87.5545 10.6338 87.5545 11.8632H88.5545H89.5545C89.5545 10.5373 89.4448 9.38455 89.2053 8.42645L88.2351 8.66898ZM81.8466 21.446L82.82 21.2169C82.6293 20.4063 82.5272 19.4219 82.5272 18.2517H81.5272H80.5272C80.5272 19.5305 80.638 20.6756 80.8732 21.675L81.8466 21.446ZM81.5272 18.2517H82.5272C82.5272 17.0223 82.6304 16.0455 82.8168 15.3L81.8466 15.0575L80.8765 14.815C80.6369 15.7731 80.5272 16.9258 80.5272 18.2517H81.5272ZM81.8466 15.0575L82.82 14.8284C82.6293 14.0178 82.5272 13.0333 82.5272 11.8632H81.5272H80.5272C80.5272 13.142 80.638 14.2871 80.8732 15.2865L81.8466 15.0575ZM81.5272 11.8632H82.5272C82.5272 10.6338 82.6304 9.65701 82.8168 8.91151L81.8466 8.66898L80.8765 8.42645C80.6369 9.38455 80.5272 10.5373 80.5272 11.8632H81.5272ZM81.8466 8.66898V7.66898H69.0696V8.66898V9.66898H81.8466V8.66898ZM69.0696 8.66898L68.0995 8.91152C68.2858 9.65701 68.389 10.6338 68.389 11.8632H69.389H70.389C70.389 10.5373 70.2793 9.38455 70.0397 8.42645L69.0696 8.66898ZM69.389 11.8632H68.389C68.389 13.0333 68.2869 14.0178 68.0962 14.8284L69.0696 15.0575L70.043 15.2865C70.2782 14.2871 70.389 13.142 70.389 11.8632H69.389ZM69.0696 15.0575L68.0995 15.3C68.2858 16.0455 68.389 17.0223 68.389 18.2517H69.389H70.389C70.389 16.9258 70.2793 15.7731 70.0397 14.8149L69.0696 15.0575ZM69.389 18.2517H68.389C68.389 19.4219 68.2869 20.4063 68.0962 21.2169L69.0696 21.446L70.043 21.675C70.2782 20.6756 70.389 19.5305 70.389 18.2517H69.389ZM69.0696 21.446V22.446H81.8466V21.446V20.446H69.0696V21.446Z" fill="url(#paint1_linear_3700_1236)" mask="url(#path-1-outside-1_3700_1236)"/>
</g>
<defs>
<filter id="filter0_d_3700_1236" x="0.608521" y="0.132519" width="98.0938" height="55.0152" filterUnits="userSpaceOnUse" color-interpolation-filters="sRGB">
<feFlood flood-opacity="0" result="BackgroundImageFix"/>
<feColorMatrix in="SourceAlpha" type="matrix" values="0 0 0 0 0 0 0 0 0 0 0 0 0 0 0 0 0 0 127 0" result="hardAlpha"/>
<feMorphology radius="1.24775" operator="dilate" in="SourceAlpha" result="effect1_dropShadow_3700_1236"/>
<feOffset dx="5" dy="3"/>
<feGaussianBlur stdDeviation="1.45"/>
<feComposite in2="hardAlpha" operator="out"/>
<feColorMatrix type="matrix" values="0 0 0 0 0 0 0 0 0 0.116667 0 0 0 0 1 0 0 0 1 0"/>
<feBlend mode="normal" in2="BackgroundImageFix" result="effect1_dropShadow_3700_1236"/>
<feBlend mode="normal" in="SourceGraphic" in2="effect1_dropShadow_3700_1236" result="shape"/>
</filter>
<linearGradient id="paint0_linear_3700_1236" x1="43.5" y1="-38" x2="43.5" y2="47.1648" gradientUnits="userSpaceOnUse">
<stop offset="0.29899" stop-color="#FFC530"/>
<stop offset="1" stop-color="#FF0000"/>
</linearGradient>
<linearGradient id="paint1_linear_3700_1236" x1="43.5" y1="-38" x2="43.5" y2="47.1648" gradientUnits="userSpaceOnUse">
<stop offset="0.29899" stop-color="#FFC530"/>
<stop offset="1" stop-color="#FF0000"/>
</linearGradient>
</defs>
</svg>
