<svg width="1218" height="715" viewBox="0 0 1218 715" fill="none" xmlns="http://www.w3.org/2000/svg">
<path d="M1170.26 678.302C1170.26 687.889 1162.55 695.606 1153 695.606H64.9976C55.4516 695.606 47.7324 687.889 47.7324 678.302V25.2247C47.7324 15.6764 55.4516 7.91699 64.9976 7.91699H1153C1162.55 7.91699 1170.26 15.6764 1170.26 25.2247V678.302Z" fill="#23673A"/>
<mask id="mask0_3735_3859" style="mask-type:luminance" maskUnits="userSpaceOnUse" x="0" y="0" width="1218" height="715">
<path d="M0 0H1218V714.991H0V0Z" fill="white"/>
</mask>
<g mask="url(#mask0_3735_3859)">
<path d="M1170.26 678.303C1170.26 687.889 1162.55 695.606 1153 695.606H64.9976C55.4516 695.606 47.7324 687.889 47.7324 678.303V25.2251C47.7324 15.6768 55.4516 7.91739 64.9976 7.91739H1153C1162.55 7.91739 1170.26 15.6768 1170.26 25.2251V678.303Z" stroke="#A37547" stroke-width="13.3765" stroke-miterlimit="10"/>
</g>
<mask id="mask1_3735_3859" style="mask-type:luminance" maskUnits="userSpaceOnUse" x="0" y="675" width="1218" height="40">
<path d="M0 675.64H1218V714.991H0V675.64Z" fill="white"/>
</mask>
<g mask="url(#mask1_3735_3859)">
<path d="M1198.23 715.378H19.8075C8.86915 715.378 0 706.546 0 695.605C0 684.706 8.86915 675.831 19.8075 675.831H1198.23C1209.13 675.831 1218 684.706 1218 695.605C1218 706.546 1209.13 715.378 1198.23 715.378Z" fill="#A37547"/>
</g>
<path d="M292.346 675.833H196.035V652.081H292.346V675.833Z" fill="#F470A4"/>
<path d="M174.474 675.833H96.2246V652.081H174.474V675.833Z" fill="white"/>
<path d="M977.404 644.883V664.057C977.404 670.543 982.658 675.833 989.181 675.833H1107.41C1113.93 675.833 1119.18 670.543 1119.18 664.057V644.883H977.404Z" fill="#BCAF8F"/>
<path d="M997.336 643.61V675.833" stroke="#6E6356" stroke-width="3.3437" stroke-miterlimit="10"/>
<path d="M1017.74 643.61V675.833" stroke="#6E6356" stroke-width="3.3437" stroke-miterlimit="10"/>
<path d="M1038.11 643.61V675.833" stroke="#6E6356" stroke-width="3.3437" stroke-miterlimit="10"/>
<path d="M1058.52 643.61V675.833" stroke="#6E6356" stroke-width="3.3437" stroke-miterlimit="10"/>
<path d="M1078.89 643.61V675.833" stroke="#6E6356" stroke-width="3.3437" stroke-miterlimit="10"/>
<path d="M1099.26 643.61V675.833" stroke="#6E6356" stroke-width="3.3437" stroke-miterlimit="10"/>
<path d="M1133.87 634.696C1133.87 642.575 1127.46 648.899 1119.63 648.899H976.975C969.098 648.899 962.771 642.575 962.771 634.696V622.878C962.771 615.042 969.098 608.675 976.975 608.675H1119.63C1127.46 608.675 1133.87 615.042 1133.87 622.878V634.696Z" fill="#704725"/>
</svg>
