<svg width="22" height="22" viewBox="0 0 22 22" fill="none" xmlns="http://www.w3.org/2000/svg">
<path d="M11 19.5C9.775 19.5 8.63019 19.2703 7.56562 18.8109C6.50106 18.3516 5.575 17.7281 4.7875 16.9406C4 16.1531 3.38021 15.2234 2.92812 14.1516C2.47604 13.0797 2.25 11.9312 2.25 10.7062C2.25 9.48125 2.47604 8.34012 2.92812 7.28281C3.38021 6.22551 4 5.30312 4.7875 4.51562C5.575 3.72812 6.50106 3.11198 7.56562 2.66719C8.63019 2.22239 9.775 2 11 2C12.225 2 13.3698 2.22239 14.4344 2.66719C15.4989 3.11198 16.425 3.72812 17.2125 4.51562C18 5.30312 18.6198 6.22551 19.0719 7.28281C19.5239 8.34012 19.75 9.48125 19.75 10.7062C19.75 11.9312 19.5239 13.0797 19.0719 14.1516C18.6198 15.2234 18 16.1531 17.2125 16.9406C16.425 17.7281 15.4989 18.3516 14.4344 18.8109C13.3698 19.2703 12.225 19.5 11 19.5ZM11 18.2312C11.5104 17.7062 11.937 17.1047 12.2797 16.4266C12.6224 15.7484 12.9031 14.9427 13.1219 14.0094H8.9C9.10418 14.8844 9.37762 15.6719 9.72031 16.3719C10.063 17.0719 10.4896 17.6917 11 18.2312ZM9.14062 17.9687C8.77606 17.4146 8.4625 16.8167 8.2 16.175C7.9375 15.5333 7.71875 14.8114 7.54375 14.0094H4.2625C4.81667 15.0448 5.45832 15.8578 6.1875 16.4484C6.91668 17.0391 7.90106 17.5458 9.14062 17.9687ZM12.8812 17.9469C13.9312 17.6114 14.8755 17.1083 15.7141 16.4375C16.5526 15.7667 17.2271 14.9573 17.7375 14.0094H14.4781C14.2886 14.7969 14.0661 15.5114 13.8109 16.1531C13.5557 16.7948 13.2458 17.3927 12.8812 17.9469ZM3.825 12.6969H7.30312C7.25937 12.3031 7.23387 11.9495 7.22656 11.6359C7.21926 11.3224 7.21562 11.0125 7.21562 10.7062C7.21562 10.3417 7.22293 10.0172 7.2375 9.73281C7.25207 9.44844 7.28125 9.13125 7.325 8.78125H3.825C3.72292 9.13125 3.65364 9.44481 3.61719 9.72187C3.58073 9.99894 3.5625 10.3271 3.5625 10.7062C3.5625 11.0854 3.58073 11.4245 3.61719 11.7234C3.65364 12.0224 3.72292 12.3469 3.825 12.6969ZM8.65937 12.6969H13.3625C13.4208 12.2448 13.4573 11.8766 13.4719 11.5922C13.4864 11.3078 13.4937 11.0125 13.4937 10.7062C13.4937 10.4146 13.4864 10.1339 13.4719 9.86406C13.4573 9.59426 13.4208 9.23332 13.3625 8.78125H8.65937C8.60106 9.23332 8.56457 9.59426 8.55 9.86406C8.53543 10.1339 8.52812 10.4146 8.52812 10.7062C8.52812 11.0125 8.53543 11.3078 8.55 11.5922C8.56457 11.8766 8.60106 12.2448 8.65937 12.6969ZM14.675 12.6969H18.175C18.2771 12.3469 18.3464 12.0224 18.3828 11.7234C18.4193 11.4245 18.4375 11.0854 18.4375 10.7062C18.4375 10.3271 18.4193 9.99894 18.3828 9.72187C18.3464 9.44481 18.2771 9.13125 18.175 8.78125H14.6969C14.7406 9.29168 14.7698 9.68176 14.7844 9.95156C14.7989 10.2214 14.8062 10.4729 14.8062 10.7062C14.8062 11.0271 14.7953 11.3297 14.7734 11.6141C14.7516 11.8984 14.7187 12.2594 14.675 12.6969ZM14.4562 7.46875H17.7375C17.2562 6.4625 16.5964 5.62394 15.7578 4.95312C14.9193 4.28229 13.9531 3.80833 12.8594 3.53125C13.2239 4.07083 13.5339 4.65418 13.7891 5.28125C14.0443 5.90832 14.2667 6.6375 14.4562 7.46875ZM8.9 7.46875H13.1437C12.9833 6.69582 12.7136 5.94844 12.3344 5.22656C11.9552 4.50469 11.5104 3.86667 11 3.3125C10.5333 3.70625 10.1396 4.22396 9.81875 4.86562C9.49793 5.50731 9.19168 6.375 8.9 7.46875ZM4.2625 7.46875H7.56562C7.72606 6.68125 7.93019 5.97762 8.17812 5.35781C8.42605 4.73801 8.73957 4.13646 9.11875 3.55312C8.025 3.83021 7.06981 4.29687 6.25312 4.95312C5.43644 5.60937 4.77292 6.44793 4.2625 7.46875Z" fill="#0A0A0A"/>
</svg>
