<svg width="22" height="24" viewBox="0 0 22 24" fill="none" xmlns="http://www.w3.org/2000/svg">
<path fill-rule="evenodd" clip-rule="evenodd" d="M23.6074 4C23.6074 2.34315 22.2643 1 20.6074 1H4.60742C2.95057 1 1.60742 2.34315 1.60742 4V8C1.60742 9.65685 2.95057 11 4.60742 11H20.6074C22.2643 11 23.6074 9.65685 23.6074 8V4ZM21.6074 4C21.6074 3.44772 21.1597 3 20.6074 3H4.60742C4.05514 3 3.60742 3.44772 3.60742 4V8C3.60742 8.55228 4.05514 9 4.60742 9H20.6074C21.1597 9 21.6074 8.55228 21.6074 8V4Z" fill="#555555"/>
<path fill-rule="evenodd" clip-rule="evenodd" d="M23.6074 16C23.6074 14.3431 22.2643 13 20.6074 13H4.60742C2.95057 13 1.60742 14.3431 1.60742 16V20C1.60742 21.6569 2.95057 23 4.60742 23H20.6074C22.2643 23 23.6074 21.6569 23.6074 20V16ZM21.6074 16C21.6074 15.4477 21.1597 15 20.6074 15H4.60742C4.05514 15 3.60742 15.4477 3.60742 16V20C3.60742 20.5523 4.05514 21 4.60742 21H20.6074C21.1597 21 21.6074 20.5523 21.6074 20V16Z" fill="#555555"/>
</svg>
