<svg width="9" height="11" viewBox="0 0 9 11" fill="none" xmlns="http://www.w3.org/2000/svg">
<path fill-rule="evenodd" clip-rule="evenodd" d="M5.98509 3.06182C5.80673 2.19181 5.07389 1.54909 4.21375 1.54909C3.22308 1.54909 2.40111 2.40204 2.40111 3.47286C2.40111 3.95832 2.57094 4.40101 2.84762 4.7373C3.11802 5.06662 3.26573 5.47946 3.26573 5.90554L3.26607 5.92406C3.26843 6.06818 3.33982 6.19513 3.44858 6.2737V6.63861C3.44858 6.78094 3.49561 6.91215 3.57508 7.01766V10.56C3.57508 10.803 3.77207 11 4.01508 11H5.92964C6.17265 11 6.36964 10.803 6.36964 10.56V9.6837H6.86779C7.65002 9.6837 8.28432 9.04952 8.28432 8.26717V7.76914H8.38915C8.6362 7.76914 8.8589 7.62031 8.95352 7.392C9.04803 7.16381 8.99572 6.90104 8.82107 6.72639L8.28432 6.18952V5.41447C8.28432 4.14397 7.27804 3.10873 6.01921 3.06159L5.98509 3.06182ZM6.02629 3.50227C7.03885 3.55255 7.84432 4.38945 7.84432 5.41447V6.37181C7.84432 6.37181 8.22831 6.75591 8.50993 7.03742C8.55875 7.08636 8.57346 7.15977 8.54697 7.22363C8.52059 7.2875 8.4583 7.32914 8.38915 7.32914H7.84432V8.26717C7.84432 8.80651 7.40712 9.2437 6.86779 9.2437H5.92964V10.56H4.01508V7.26629C4.03618 7.26842 4.05773 7.26954 4.0794 7.26954H4.34822C4.69663 7.26954 4.97904 6.98702 4.97904 6.63861V6.2737C5.08971 6.19379 5.16166 6.06369 5.16166 5.91688V5.90554C5.16166 5.47946 5.30938 5.06651 5.57944 4.73763C5.85096 4.40797 6.01966 3.97628 6.02629 3.50227ZM3.88858 6.35688H4.53904V6.63861C4.53904 6.74401 4.45362 6.82954 4.34822 6.82954H4.0794C3.974 6.82954 3.88858 6.74401 3.88858 6.63861V6.35688ZM4.72166 5.90554C4.72166 5.37765 4.90473 4.86604 5.23978 4.45803C5.45552 4.19605 5.58651 3.8509 5.58651 3.47286C5.58651 2.65392 4.97141 1.98909 4.21375 1.98909C3.45621 1.98909 2.84111 2.65392 2.84111 3.47286C2.84111 3.8509 2.9721 4.19605 3.18761 4.45814C3.52266 4.86615 3.70573 5.37765 3.70573 5.90554C3.70596 5.91295 3.70596 5.91688 3.70596 5.91688H4.72166V5.90554ZM0.776928 3.46646H1.57488C1.69633 3.46646 1.79488 3.56501 1.79488 3.68646C1.79488 3.80791 1.69633 3.90646 1.57488 3.90646H0.776928C0.655478 3.90646 0.556928 3.80791 0.556928 3.68646C0.556928 3.56501 0.655478 3.46646 0.776928 3.46646ZM6.93143 1.44796L6.36717 2.01221C6.28131 2.09808 6.1419 2.09808 6.05603 2.01221C5.97016 1.92635 5.97016 1.78694 6.05603 1.70107L6.62029 1.13682C6.70615 1.05095 6.84556 1.05095 6.93143 1.13682C7.0173 1.22268 7.0173 1.36209 6.93143 1.44796ZM1.78781 1.13682L2.35206 1.70107C2.43793 1.78694 2.43793 1.92635 2.35206 2.01221C2.26619 2.09808 2.12678 2.09808 2.04092 2.01221L1.47666 1.44796C1.3908 1.36209 1.3908 1.22268 1.47666 1.13682C1.56253 1.05095 1.70194 1.05095 1.78781 1.13682ZM4.41344 0.22V1.01806C4.41344 1.13951 4.31477 1.23806 4.19344 1.23806C4.07199 1.23806 3.97344 1.13951 3.97344 1.01806V0.22C3.97344 0.098551 4.07199 0 4.19344 0C4.31477 0 4.41344 0.098551 4.41344 0.22Z" fill="black"/>
</svg>
