<svg width="28" height="28" viewBox="0 0 28 28" fill="none" xmlns="http://www.w3.org/2000/svg">
<path d="M16.5586 21.099C16.3952 21.0996 16.2337 21.0635 16.0861 20.9935C15.9385 20.9235 15.8084 20.8212 15.7055 20.6943L10.4226 14.1318C10.2618 13.9361 10.1738 13.6906 10.1738 13.4373C10.1738 13.184 10.2618 12.9385 10.4226 12.7428L15.8914 6.18028C16.077 5.95691 16.3438 5.81645 16.633 5.78978C16.9223 5.76312 17.2102 5.85244 17.4336 6.03809C17.6569 6.22374 17.7974 6.49052 17.8241 6.77973C17.8507 7.06895 17.7614 7.35691 17.5758 7.58028L12.6867 13.4428L17.4117 19.3053C17.5455 19.4658 17.6304 19.6613 17.6565 19.8686C17.6826 20.076 17.6488 20.2864 17.5591 20.4751C17.4693 20.6638 17.3274 20.8229 17.1501 20.9334C16.9728 21.044 16.7675 21.1015 16.5586 21.099Z" fill="#100C08"/>
</svg>
