<svg width="17" height="18" viewBox="0 0 17 18" fill="none" xmlns="http://www.w3.org/2000/svg">
<path d="M4.7635 7.28172V5.56304C4.7635 3.19041 5.82822 1.26636 8.20085 1.26636C10.5735 1.26636 11.6382 3.19041 11.6382 5.56304V7.28172M0.896484 13.9845V10.0316C0.896484 9.06914 0.896484 8.58791 1.08382 8.22097C1.24845 7.89728 1.51137 7.63405 1.83488 7.46905C2.20268 7.28257 2.68391 7.28257 3.64636 7.28257H12.7553C13.7178 7.28257 14.199 7.28257 14.5668 7.46905C14.8902 7.63382 15.1531 7.89674 15.3179 8.22011C15.5052 8.58791 15.5052 9.06914 15.5052 10.0316V13.9845C15.5052 14.947 15.5052 15.4282 15.3179 15.796C15.1531 16.1194 14.8902 16.3823 14.5668 16.5471C14.199 16.7344 13.7178 16.7344 12.7553 16.7344H3.64636C2.68391 16.7344 2.20268 16.7344 1.83488 16.5471C1.51151 16.3823 1.24859 16.1194 1.08382 15.796C0.896484 15.4291 0.896484 14.9479 0.896484 13.9845Z" stroke="#848484" stroke-width="1.37494" stroke-linecap="round" stroke-linejoin="round"/>
</svg>
