<svg width="8" height="9" viewBox="0 0 8 9" fill="none" xmlns="http://www.w3.org/2000/svg">
<path d="M7.09302 2.86635L2.62163 0.235315C2.35306 0.0772577 2.05016 -0.00381006 1.7429 0.000137581C1.43565 0.00408523 1.13469 0.0929111 0.86983 0.257822C0.60497 0.422733 0.38539 0.65801 0.232827 0.940361C0.0802646 1.22271 1.04655e-05 1.54235 9.45403e-06 1.86762V7.12985C-0.000998583 7.45554 0.0786214 7.77582 0.230939 8.05879C0.383257 8.34176 0.602956 8.57755 0.868151 8.74267C1.13335 8.90779 1.43478 8.99648 1.74244 8.9999C2.05009 9.00332 2.35322 8.92135 2.62163 8.76216L7.09302 6.13112C7.36792 5.96932 7.59697 5.73267 7.75644 5.44568C7.91591 5.15868 8 4.83177 8 4.49881C8 4.16585 7.91591 3.83894 7.75644 3.55195C7.59697 3.26495 7.36792 3.02815 7.09302 2.86635ZM6.74982 5.47812L2.27843 8.10923C2.1173 8.204 1.93559 8.25258 1.75128 8.25018C1.56696 8.24778 1.38643 8.19447 1.22756 8.09553C1.06868 7.99659 0.936964 7.85545 0.84544 7.68608C0.753917 7.51671 0.705759 7.32497 0.705732 7.12985V1.86762C0.705128 1.67224 0.75289 1.4801 0.844261 1.31034C0.935631 1.14058 1.06742 0.999123 1.22651 0.900054C1.38559 0.800985 1.56642 0.747764 1.75098 0.745691C1.93554 0.743618 2.1174 0.792765 2.27843 0.888238L6.74982 3.51935C6.91477 3.61643 7.0522 3.75842 7.14788 3.93062C7.24356 4.10282 7.29401 4.29896 7.29401 4.49874C7.29401 4.69851 7.24356 4.89466 7.14788 5.06685C7.0522 5.23905 6.91477 5.38104 6.74982 5.47812Z" fill="black"/>
</svg>
