<svg width="22" height="22" viewBox="0 0 22 22" fill="none" xmlns="http://www.w3.org/2000/svg">
<path d="M5.41365 16.3603H2.88076C2.68339 16.3603 2.55181 16.4919 2.55181 16.6893V19.2222C2.55181 19.4195 2.68339 19.5511 2.88076 19.5511H5.41365C5.61102 19.5511 5.7426 19.4195 5.7426 19.2222V16.6893C5.7426 16.5248 5.57812 16.3603 5.41365 16.3603ZM5.0847 18.8932H3.2097V17.0182H5.0847V18.8932ZM5.41365 11.0972H2.88076C2.68339 11.0972 2.55181 11.2287 2.55181 11.4261V13.959C2.55181 14.1564 2.68339 14.288 2.88076 14.288H5.41365C5.61102 14.288 5.7426 14.1564 5.7426 13.959V11.4261C5.7426 11.2287 5.57812 11.0972 5.41365 11.0972ZM5.0847 13.6301H3.2097V11.7551H5.0847V13.6301ZM5.41365 5.80112H2.88076C2.68339 5.80112 2.55181 5.93269 2.55181 6.13006V8.66296C2.55181 8.86032 2.68339 8.9919 2.88076 8.9919H5.41365C5.61102 8.9919 5.7426 8.86032 5.7426 8.66296V6.13006C5.7426 5.96559 5.57812 5.80112 5.41365 5.80112ZM5.0847 8.33401H3.2097V6.45901H5.0847V8.33401ZM7.05839 6.5248C7.05839 6.72217 7.18997 6.85375 7.38734 6.85375H11.0058C11.2031 6.85375 11.3347 6.72217 11.3347 6.5248C11.3347 6.32743 11.2031 6.19585 11.0058 6.19585H7.38734C7.18997 6.19585 7.05839 6.36033 7.05839 6.5248ZM7.05839 8.26822C7.05839 8.46559 7.18997 8.59717 7.38734 8.59717H14.361C14.5584 8.59717 14.69 8.46559 14.69 8.26822C14.69 8.07085 14.5584 7.93927 14.361 7.93927H7.38734C7.18997 7.93927 7.05839 8.07085 7.05839 8.26822ZM11.0058 11.4919H7.38734C7.18997 11.4919 7.05839 11.6235 7.05839 11.8209C7.05839 12.0182 7.18997 12.1498 7.38734 12.1498H11.0058C11.2031 12.1498 11.3347 12.0182 11.3347 11.8209C11.3347 11.6235 11.1702 11.4919 11.0058 11.4919ZM7.38734 17.413H11.0058C11.2031 17.413 11.3347 17.2814 11.3347 17.084C11.3347 16.8866 11.2031 16.7551 11.0058 16.7551H7.38734C7.18997 16.7551 7.05839 16.8866 7.05839 17.084C7.05839 17.2814 7.18997 17.413 7.38734 17.413ZM2.88076 3.79454H8.2426C8.43997 3.79454 8.57155 3.66296 8.57155 3.46559C8.57155 3.26822 8.43997 3.13664 8.2426 3.13664H2.88076C2.68339 3.13664 2.55181 3.26822 2.55181 3.46559C2.55181 3.66296 2.68339 3.79454 2.88076 3.79454ZM21.3347 7.84059L20.0189 6.78796C19.69 6.5248 19.2294 6.59059 18.9663 6.91954L16.6637 9.84717V4.71559C16.6637 4.6169 16.6308 4.55111 16.565 4.48533L12.6505 0.570852C12.5847 0.505063 12.486 0.472168 12.4202 0.472168H2.22286C1.30181 0.472168 0.578125 1.19585 0.578125 2.1169V19.8801C0.578125 20.8011 1.30181 21.5248 2.22286 21.5248H15.0189C15.94 21.5248 16.6637 20.8011 16.6637 19.8801V15.0116L21.4663 8.89322C21.5979 8.72875 21.6308 8.53138 21.6308 8.33401C21.6308 8.13664 21.4992 7.97217 21.3347 7.84059ZM12.7492 1.59059L15.5452 4.38664H13.0781C12.8808 4.38664 12.7492 4.25506 12.7492 4.05769V1.59059ZM16.0058 19.8801C16.0058 20.4393 15.5781 20.8669 15.0189 20.8669H2.22286C1.66365 20.8669 1.23602 20.4393 1.23602 19.8801V2.1169C1.23602 1.55769 1.66365 1.13006 2.22286 1.13006H12.0913V4.05769C12.0913 4.6169 12.5189 5.04454 13.0781 5.04454H16.0058V10.6695L13.9992 13.2024H7.38734C7.18997 13.2024 7.05839 13.334 7.05839 13.5314C7.05839 13.7287 7.18997 13.8603 7.38734 13.8603H13.5058L12.2558 15.4393C12.2229 15.4722 12.2229 15.5051 12.19 15.538L11.3676 18.4656H7.38734C7.18997 18.4656 7.05839 18.5972 7.05839 18.7945C7.05839 18.9919 7.18997 19.1235 7.38734 19.1235H14.361C14.5584 19.1235 14.69 18.9919 14.69 18.7945C14.69 18.5972 14.5584 18.4656 14.361 18.4656H12.8808L14.6242 17.4787C14.6571 17.4459 14.69 17.4459 14.69 17.413L15.94 15.834L16.0058 19.8801ZM12.6834 16.2287L13.9005 17.1827L12.1571 18.1695L12.6834 16.2287ZM14.4268 16.7551L12.9465 15.6037L17.5189 9.81427C17.5518 9.84717 19.0979 11.0643 18.9992 10.9656L14.4268 16.7551ZM19.4268 10.4393L17.9465 9.28796L18.3084 8.82743L19.7887 9.97875L19.4268 10.4393ZM20.94 8.49848L20.1834 9.48532L18.7031 8.33401L19.4597 7.34717C19.4926 7.31427 19.5584 7.31427 19.5913 7.34717L20.9071 8.3998C20.9729 8.3669 20.9729 8.3998 20.9729 8.43269C20.9729 8.46559 20.9729 8.46559 20.94 8.49848Z" fill="white"/>
</svg>
