<svg width="27" height="28" viewBox="0 0 27 28" fill="none" xmlns="http://www.w3.org/2000/svg">
<path d="M11.1914 6.90097C11.3548 6.90042 11.5163 6.93648 11.6639 7.00651C11.8115 7.07655 11.9416 7.17877 12.0445 7.30566L17.3274 13.8682C17.4882 14.0639 17.5762 14.3094 17.5762 14.5627C17.5762 14.816 17.4882 15.0615 17.3274 15.2572L11.8586 21.8197C11.673 22.0431 11.4062 22.1836 11.117 22.2102C10.8277 22.2369 10.5398 22.1476 10.3164 21.9619C10.0931 21.7763 9.95259 21.5095 9.92593 21.2203C9.89926 20.931 9.98858 20.6431 10.1742 20.4197L15.0633 14.5572L10.3383 8.69472C10.2045 8.53418 10.1196 8.33868 10.0935 8.13136C10.0674 7.92404 10.1012 7.71358 10.1909 7.52488C10.2807 7.33617 10.4226 7.17713 10.5999 7.06656C10.7772 6.956 10.9825 6.89853 11.1914 6.90097Z" fill="#100C08"/>
</svg>
