<svg width="273" height="213" viewBox="0 0 273 213" fill="none" xmlns="http://www.w3.org/2000/svg">
<mask id="mask0_3786_7173" style="mask-type:luminance" maskUnits="userSpaceOnUse" x="0" y="0" width="273" height="213">
<path d="M0.262695 0.110352H272.332V212.434H0.262695V0.110352Z" fill="white"/>
</mask>
<g mask="url(#mask0_3786_7173)">
<mask id="mask1_3786_7173" style="mask-type:luminance" maskUnits="userSpaceOnUse" x="-1" y="-1" width="274" height="214">
<path d="M272.362 -0.394531H-0.319336V212.849H272.362V-0.394531Z" fill="white"/>
</mask>
<g mask="url(#mask1_3786_7173)">
<path d="M20.8958 69.6157C18.069 72.7179 18.1336 77.6727 18.7751 79.7001C21.9849 89.8395 58.7773 87.1514 64.4646 86.7349C76.4638 85.8589 94.1359 83.5107 115.286 76.6195C115.346 76.3897 116.241 72.8112 113.744 70.1136C111.88 68.0982 108.897 67.4136 106.217 68.4022C106.233 67.6554 106.181 65.5227 104.675 63.6078C104.333 63.1721 102.262 60.5343 99.2104 60.9269C97.0298 61.207 95.7397 62.8538 95.4357 63.2655C95.7684 62.4086 96.2878 60.7091 95.9479 58.6434C95.8378 57.9588 95.1556 53.7987 91.5006 52.4798C89.0256 51.587 86.1364 52.3362 84.1426 54.3636C83.8194 53.8442 81.4593 50.1939 77.1268 49.7391C72.6101 49.2676 68.2106 52.5037 67.2005 56.5873C66.6835 58.6841 67.1742 60.5343 67.5428 61.554C66.7266 60.7737 64.984 59.3208 62.339 58.6218C61.4007 58.3729 58.1167 57.6285 54.7106 59.1556C49.1119 61.6689 48.1018 68.1054 48.0371 68.5721C47.4962 67.6913 45.5406 64.7352 42.3882 64.2923C38.1946 63.7035 33.0794 67.7391 31.7797 74.5658C30.164 70.0418 27.0163 67.337 24.2469 67.6362C22.5666 67.8181 21.3985 69.0652 20.8958 69.6157Z" fill="#71B24B"/>
<path d="M49.0908 185.414C48.502 187.602 47.4943 190.625 45.7062 193.96C43.9996 197.143 42.2307 200.461 39.8658 202.941C38.1998 204.7 36.2275 206.045 33.7836 206.627C28.5583 207.874 21.5929 205.578 19.6516 200.882C18.9479 199.185 19.0221 197.454 19.5296 195.597C20.0131 193.826 20.8844 191.935 21.8586 189.835C24.6735 183.76 28.5583 179.514 31.6269 176.773C37.4434 179.658 43.2671 182.537 49.0908 185.414Z" fill="#965208"/>
<path d="M86.0029 185.414C86.5918 187.602 87.5995 190.625 89.3875 193.96C91.0942 197.143 92.8654 200.461 95.228 202.941C96.8939 204.7 98.8663 206.045 101.31 206.627C106.535 207.874 113.501 205.578 115.442 200.882C116.146 199.185 116.072 197.454 115.564 195.597C115.081 193.826 114.209 191.935 113.235 189.835C110.42 183.76 106.535 179.514 103.467 176.773C97.6503 179.658 91.8266 182.537 86.0029 185.414Z" fill="#965208"/>
<path d="M54.3034 205.461C54.7486 206.545 55.359 207.515 56.1896 208.369C59.0835 211.347 63.7199 212.297 67.7221 211.847C70.513 211.536 73.5673 210.382 75.2117 207.982C75.5971 207.412 75.8795 206.77 76.0806 206.079C76.7843 203.668 76.5258 200.698 76.4971 198.407C76.4324 191.669 75.7694 186.097 75.1471 182.157C68.6843 181.503 62.2215 180.852 55.7635 180.206C55.1747 182.432 54.4997 185.525 54.0975 189.24C53.3364 196.353 52.7643 201.648 54.3034 205.461Z" fill="#965208"/>
<path d="M14.9443 79.9354C15.4613 82.5109 15.964 86.5131 15.2004 91.2333C13.8911 99.3261 8.16795 105.887 5.41049 113.511C0.345587 127.509 2.57166 143.761 11.4592 156.053C21.3544 169.742 39.3808 174.797 56.2941 176.403C71.9245 177.887 87.9833 175.793 102.465 170.103C114.995 165.182 123.766 153.53 126.966 141.504C127.047 141.193 127.126 140.879 127.203 140.566C129.623 130.671 128.337 120.438 124.192 111.105C120.261 102.256 114.842 93.6891 116.331 83.7389C116.666 81.508 117.205 79.7008 117.614 78.5088C83.39 78.9827 49.1683 79.4591 14.9443 79.9354Z" fill="#1B2026"/>
<path d="M10.0677 78.2193C10.0222 78.4084 9.83549 79.172 10.0677 80.1917C11.7959 87.7483 30.8395 86.4175 94.6799 87.7029C103.802 87.8872 121.697 88.3013 123.777 82.2119C123.844 82.0108 124.119 81.0869 123.861 80.0696C122.293 73.8414 103.132 73.6499 84.2485 73.3722C29.5901 72.568 11.7384 71.5507 10.0677 78.2193Z" fill="#1B2026"/>
<path d="M114.528 87.2792C114.698 87.2792 114.841 87.1476 114.856 86.9752C114.868 86.7957 114.734 86.6377 114.554 86.6233C108.723 86.1757 102.818 85.7808 96.9994 85.4529C96.8223 85.4409 96.6643 85.5797 96.6523 85.7616C96.6427 85.9412 96.7816 86.0968 96.9611 86.1063C102.778 86.4343 108.678 86.8292 114.504 87.2768C114.511 87.2768 114.521 87.2792 114.528 87.2792Z" fill="white"/>
<path d="M90.5157 85.7643C90.6904 85.7643 90.834 85.6303 90.8436 85.4531C90.8508 85.2736 90.712 85.118 90.5325 85.1108C89.3356 85.051 88.1364 84.9959 86.9348 84.9409C86.7505 84.9313 86.6021 85.0725 86.5925 85.2545C86.5854 85.434 86.7266 85.5872 86.9061 85.5967C88.1077 85.6494 89.3045 85.7068 90.4989 85.7643C90.5061 85.7643 90.5109 85.7643 90.5157 85.7643Z" fill="white"/>
<path d="M17.1973 85.2634C17.2021 85.2634 17.2045 85.2634 17.2093 85.2634C35.0298 84.6339 53.1041 84.5525 70.927 85.024C71.1041 85.024 71.2573 84.8876 71.2645 84.7057C71.2669 84.5238 71.1257 84.3754 70.9437 84.3682C53.1065 83.8967 35.0202 83.978 17.1854 84.61C17.0058 84.6147 16.8622 84.7679 16.8694 84.9475C16.8766 85.1246 17.0202 85.2634 17.1973 85.2634Z" fill="white"/>
<path d="M104.621 204.394C105.351 204.394 106.078 204.33 106.744 204.22C108.709 203.899 111.131 203.016 111.483 201.594C111.67 200.84 111.234 200.081 110.806 199.662C109.676 198.556 107.416 198.681 105.047 199.976C104.886 200.064 104.829 200.263 104.915 200.421C105.001 200.581 105.202 200.639 105.36 200.553C107.438 199.413 109.444 199.246 110.346 200.131C110.667 200.443 110.959 200.986 110.846 201.436C110.631 202.31 108.86 203.21 106.638 203.573C104.168 203.98 101.238 203.696 100.252 202.149C99.7327 201.333 99.7088 200.072 100.197 199.083C101.588 196.259 107.567 195.452 115.071 197.075C115.248 197.108 115.421 197.001 115.459 196.823C115.497 196.646 115.385 196.472 115.208 196.433C107.282 194.719 101.159 195.646 99.6083 198.793C99.0171 199.997 99.053 201.486 99.6992 202.501C100.597 203.909 102.624 204.394 104.621 204.394Z" fill="#1B2026"/>
<path d="M36.2362 204.397C36.3559 204.397 36.4708 204.33 36.5282 204.215C37.2798 202.704 37.4904 201.306 37.1601 200.059C36.4468 197.376 33.3567 195.662 30.7045 194.951C27.3151 194.042 24.0981 194.487 22.5111 196.084C21.7739 196.823 21.0271 198.19 21.3454 199.6C21.8457 201.821 24.9143 203.145 27.3893 203.604C29.3497 203.966 31.9253 203.959 32.7367 202.74C33.1699 202.092 33.0168 201.232 32.7535 200.691C32.0665 199.269 29.9003 198.618 27.229 199.035C27.0495 199.061 26.9274 199.229 26.9561 199.408C26.9848 199.588 27.1524 199.712 27.3295 199.681C29.6705 199.317 31.6141 199.837 32.1646 200.976C32.3585 201.378 32.4519 201.989 32.1933 202.376C31.6931 203.126 29.7231 203.37 27.509 202.958C25.0484 202.503 22.3867 201.242 21.9845 199.456C21.7404 198.379 22.3077 197.218 22.9755 196.546C24.3997 195.114 27.3678 194.736 30.5346 195.583C33.6942 196.431 35.9896 198.209 36.5258 200.229C36.8154 201.318 36.6192 202.561 35.9418 203.923C35.8604 204.085 35.9274 204.282 36.0902 204.363C36.1356 204.385 36.1859 204.397 36.2362 204.397Z" fill="#1B2026"/>
<path d="M64.7181 209.268C65.2518 209.268 65.7808 209.23 66.2859 209.163C68.2175 208.899 69.5388 208.217 69.8189 207.334C69.9003 207.075 69.9362 206.654 69.6465 206.12C68.3324 203.727 62.3795 204.995 61.7045 205.149C61.5274 205.189 61.4173 205.364 61.4579 205.541C61.4962 205.716 61.6734 205.828 61.8481 205.788C63.9617 205.309 68.1912 204.83 69.0721 206.436C69.2516 206.764 69.2372 206.999 69.1941 207.135C69.0003 207.741 67.7963 208.294 66.1973 208.512C63.7463 208.847 60.5508 208.346 59.3276 206.467C59.1553 206.204 58.7005 205.503 58.8561 204.723C58.9782 204.112 59.4712 203.519 60.2827 203.006C62.346 201.707 65.8191 201.266 68.5407 201.955C71.4561 202.698 73.4141 204.663 74.5415 206.18C74.6492 206.324 74.8551 206.355 75.0011 206.247C75.1471 206.14 75.1758 205.934 75.0681 205.788C73.8761 204.186 71.8056 202.109 68.7034 201.321C65.8215 200.589 62.1353 201.065 59.9332 202.451C58.9662 203.061 58.3726 203.801 58.2146 204.593C58.0039 205.637 58.588 206.532 58.7795 206.827C59.9093 208.562 62.3651 209.268 64.7181 209.268Z" fill="#1B2026"/>
<path d="M47.6073 41.0108C47.6791 46.2672 52.1983 51.1334 57.7443 50.8893C62.8188 50.6643 66.7419 46.2456 66.9598 41.669C67.2566 35.4217 60.5927 29.9786 54.7092 31.4219C50.6089 32.4272 47.5475 36.6113 47.6073 41.0108Z" fill="#71B24B"/>
<path d="M70.4516 26.6272C70.4827 29.052 72.57 31.2972 75.1287 31.1847C77.4697 31.0794 79.2793 29.0424 79.3798 26.9312C79.5163 24.0469 76.4428 21.5384 73.7261 22.2038C71.8351 22.6682 70.4229 24.5974 70.4516 26.6272Z" fill="#71B24B"/>
<path d="M17.0118 174.871C20.9948 186.135 47.3773 192.268 71.1891 191.676C81.6636 191.415 111.356 190.788 118.185 175.213C119.018 173.31 120.73 169.636 119.895 165.284C118.102 155.92 106.495 153.058 106.591 145.467C106.624 142.904 107.979 140.776 109.286 139.261C108.056 139.16 103.345 138.916 99.1897 142.171C92.8873 147.109 93.8279 155.427 93.8854 155.868C92.8059 155.147 91.0633 153.795 89.7779 151.588C85.8859 144.905 90.642 138.057 86.8697 132.413C86.0152 131.134 84.3348 129.339 80.7109 128.133C81.2135 129.337 81.8407 131.271 81.7354 133.612C81.3763 141.662 72.7976 144.5 70.143 153.299C69.4058 155.743 68.8792 159.461 70.2723 164.6C69.0348 162.591 67.7925 161.213 66.9356 160.361C63.8885 157.33 61.4039 156.643 60.5183 153.769C60.4417 153.517 60.1377 152.476 60.2622 151.116C60.4896 148.625 61.9784 146.961 62.572 146.365C62.1771 146.269 58.4119 145.408 55.2571 148.036C51.9563 150.779 52.2722 154.877 52.3034 155.226C48.2007 151.25 47.4898 148.215 47.6837 146.109C47.9565 143.172 50.0031 141.848 49.4813 138.789C48.969 135.802 46.4988 134.059 46.1158 133.799C43.4613 131.984 40.6847 132.401 40.1126 132.499C41.1969 133.315 42.6068 134.658 42.8079 136.479C43.1501 139.579 39.3156 140.393 36.7759 145.082C34.0783 150.066 36.2804 152.962 32.9509 158.3C31.8714 160.033 30.6794 161.263 29.844 162.031C29.9709 161.155 30.7105 155.341 26.6365 150.99C24.7264 148.948 22.5291 148.05 21.2461 147.65C22.395 149.446 23.6972 152.153 23.1706 155.097C22.352 159.695 17.7897 160.902 16.241 165.883C16.241 165.883 15.1136 169.507 17.0118 174.871Z" fill="#D68525"/>
<path d="M100.538 164.603C100.546 164.603 100.55 164.603 100.557 164.601C100.739 164.591 100.876 164.438 100.866 164.256C100.773 162.568 100.297 161.008 99.454 159.62C98.1351 157.448 96.2753 156.266 94.9492 155.656C94.7841 155.579 94.5902 155.651 94.5136 155.816C94.4394 155.981 94.5112 156.175 94.6764 156.249C95.9186 156.824 97.6612 157.932 98.8939 159.959C99.679 161.257 100.124 162.712 100.213 164.292C100.222 164.467 100.366 164.603 100.538 164.603Z" fill="#1B2026"/>
<path d="M57.6945 178.623C57.8429 178.623 57.9794 178.522 58.0129 178.371C58.7717 175.178 59.607 168.842 56.7132 162.279C55.66 159.895 54.2166 157.693 52.419 155.73C52.2969 155.598 52.0887 155.589 51.9546 155.711C51.823 155.833 51.8134 156.041 51.9355 156.175C53.6852 158.083 55.0903 160.225 56.1124 162.545C58.9297 168.931 58.1134 175.106 57.3762 178.218C57.3355 178.395 57.4432 178.572 57.6203 178.613C57.6443 178.62 57.6706 178.623 57.6945 178.623Z" fill="#1B2026"/>
<path d="M26.4855 166.534C26.6028 166.534 26.7177 166.47 26.7751 166.357C28.0629 163.842 30.0281 162.307 30.0472 162.29C30.1908 162.18 30.2172 161.975 30.1071 161.831C29.997 161.687 29.7887 161.661 29.6475 161.771C29.5613 161.838 27.5507 163.406 26.1935 166.058C26.1097 166.218 26.1743 166.417 26.3347 166.498C26.3826 166.525 26.4352 166.534 26.4855 166.534Z" fill="#1B2026"/>
<path d="M95.0415 71.9767C95.0678 71.9767 95.0965 71.9743 95.1229 71.9671C95.2976 71.9216 95.4029 71.7421 95.3574 71.5674C95.1516 70.7727 94.4598 68.8027 92.5138 67.6442C90.9412 66.7083 89.3662 66.7873 88.6098 66.828C87.4776 66.8854 86.3502 67.1918 85.3282 67.7184C84.8111 66.4929 83.6957 64.5876 81.4625 63.3979C80.9335 63.1179 79.325 62.2562 77.2976 62.462C74.813 62.7158 72.5654 64.4822 71.2608 67.1511C70.9928 66.208 70.6146 65.3057 70.131 64.4559C69.6332 63.5846 69.0252 62.7732 68.3263 62.0479C68.1994 61.9187 67.9911 61.9139 67.8619 62.0407C67.7326 62.1652 67.7279 62.3735 67.8547 62.5027C68.5177 63.1897 69.0898 63.9556 69.5614 64.7814C70.1741 65.8562 70.6074 67.0219 70.8491 68.245C70.8779 68.3886 70.9975 68.4964 71.1412 68.5083C71.2872 68.5179 71.4236 68.4365 71.4763 68.3001C72.5965 65.3559 74.8537 63.3692 77.3622 63.1155C79.1909 62.9264 80.6678 63.7187 81.1537 63.9772C83.4228 65.186 84.4449 67.2014 84.8518 68.2977C84.8853 68.3862 84.9572 68.4581 85.0481 68.4916C85.1391 68.5227 85.2372 68.5155 85.321 68.4676C86.3407 67.8836 87.4896 67.5413 88.6409 67.4815C89.3901 67.4432 90.7761 67.3713 92.1787 68.2067C93.9165 69.2432 94.5364 71.0168 94.7231 71.7325C94.7614 71.8785 94.8955 71.9767 95.0415 71.9767Z" fill="#1B2026"/>
<path d="M153.389 187.478C149.052 187.155 144.674 186.803 140.26 186.42C137.836 186.21 135.425 185.992 133.027 185.765C135.337 171.685 138.3 156.739 142.096 141.08C145.026 129 148.198 117.539 151.503 106.729C155.967 110.27 160.434 113.807 164.9 117.348C161.063 140.724 157.226 164.1 153.389 187.478Z" fill="#1B2026"/>
<mask id="mask2_3786_7173" style="mask-type:luminance" maskUnits="userSpaceOnUse" x="221" y="87" width="52" height="100">
<path d="M221.503 87.2314H272.339V186.5H221.503V87.2314Z" fill="white"/>
</mask>
<g mask="url(#mask2_3786_7173)">
<path d="M234.798 87.4727C238.906 101.698 243.655 112.639 247.248 120.024C254.598 135.132 260.441 142.21 266.241 158.029C269.628 167.266 271.421 175.173 272.402 180.372C267.064 182.078 260.685 183.696 253.409 184.738C243.899 186.1 235.49 186.104 228.709 185.63C226.323 154.465 223.934 123.3 221.545 92.1378C225.964 90.582 230.382 89.0285 234.798 87.4727Z" fill="#1B2026"/>
</g>
<path d="M216.619 92.3751C224.685 92.8035 231.929 92.344 237.855 91.1543C246.812 89.3424 252.76 85.8477 254.005 81.1609C254.654 78.7266 254.173 75.4426 252.296 73.2835C249.347 69.8894 244.581 71.1724 236.749 72.1442C232.321 72.6971 226.912 73.1495 220.298 72.6013C212.581 71.9623 209.189 70.4591 207.636 72.429C204.957 75.8184 211.114 85.1487 216.619 92.3751Z" fill="#D68525"/>
<path d="M216.619 92.3752C224.685 92.8037 231.929 92.3441 237.855 91.1545C237.805 86.8029 236.905 74.3153 236.749 72.1443C232.321 72.6972 226.912 73.1496 220.298 72.6015C212.581 71.9624 209.189 70.4592 207.636 72.4292C204.957 75.8185 211.114 85.1489 216.619 92.3752Z" fill="#FFABD7"/>
<path d="M144.064 116.766C146.2 119.916 150.7 121.965 154.489 121.113C158.934 120.115 161.27 115.382 162.78 112.218C173.903 88.8777 179.435 77.1801 177.889 75.8229C173.865 72.2971 158.539 81.0386 150.089 92.8799C148.789 94.699 138.696 108.845 144.064 116.766Z" fill="#D68525"/>
<path d="M144.021 196.338C161.519 197.585 180.378 198.248 200.444 198.001C217.8 197.79 234.218 196.922 249.599 195.607C249.427 193.465 249.221 191.052 248.96 188.396C248.513 183.845 247.914 178.579 247.1 172.741C246.698 169.859 246.241 166.831 245.724 163.689C239.132 123.607 231.961 79.9787 205.712 69.7556C203.63 68.9441 194.599 65.4255 184.912 68.6593C156.969 77.9872 150.333 134.594 146.137 170.439C145.85 172.866 145.604 175.204 145.383 177.433C145.096 180.355 144.864 183.096 144.675 185.617C144.352 189.839 144.151 193.465 144.021 196.338Z" fill="#FFABD7"/>
<path d="M210.465 199.411C212.844 204.943 222.191 204.498 223.249 204.435C225.492 204.301 231.931 203.916 234.15 199.203C235.567 196.187 234.791 192.374 232.891 189.992C228.202 184.116 215.236 185.545 211.303 191.981C211.183 192.178 208.955 195.904 210.465 199.411Z" fill="#D68525"/>
<path d="M180.775 199.411C178.393 204.943 169.046 204.498 167.988 204.435C165.748 204.301 159.309 203.916 157.09 199.203C155.671 196.187 156.446 192.374 158.347 189.992C163.038 184.116 176.002 185.545 179.937 191.981C180.057 192.178 182.283 195.904 180.775 199.411Z" fill="#D68525"/>
<path d="M169.599 204.453C169.778 204.453 169.924 204.307 169.927 204.128C169.948 201.205 170.238 199.688 170.243 199.673C170.276 199.496 170.161 199.324 169.984 199.288C169.805 199.255 169.632 199.369 169.599 199.547C169.587 199.609 169.293 201.131 169.271 204.123C169.271 204.305 169.417 204.451 169.597 204.453C169.599 204.453 169.599 204.453 169.599 204.453Z" fill="#1B2026"/>
<path d="M165.206 203.973C165.385 203.973 165.534 203.827 165.534 203.647C165.555 200.725 165.845 199.207 165.85 199.193C165.883 199.016 165.768 198.843 165.591 198.808C165.414 198.774 165.242 198.889 165.206 199.066C165.194 199.128 164.899 200.651 164.878 203.643C164.878 203.822 165.024 203.971 165.203 203.973C165.206 203.973 165.206 203.973 165.206 203.973Z" fill="#1B2026"/>
<path d="M220.76 204.212C220.762 204.212 220.762 204.212 220.762 204.212C220.944 204.212 221.09 204.063 221.088 203.881C221.066 200.889 220.774 199.369 220.762 199.305C220.726 199.128 220.556 199.015 220.377 199.046C220.2 199.082 220.082 199.254 220.118 199.432C220.121 199.448 220.413 200.966 220.432 203.886C220.434 204.068 220.58 204.212 220.76 204.212Z" fill="#1B2026"/>
<path d="M225.153 203.731C225.155 203.731 225.155 203.731 225.155 203.731C225.337 203.731 225.483 203.582 225.481 203.4C225.459 200.408 225.167 198.889 225.155 198.824C225.119 198.647 224.949 198.532 224.77 198.565C224.593 198.601 224.475 198.774 224.511 198.951C224.514 198.968 224.806 200.485 224.825 203.405C224.827 203.587 224.973 203.731 225.153 203.731Z" fill="#1B2026"/>
<path d="M142.5 102.575C147.101 107.599 158.823 112.463 158.823 112.463L182.694 91.3704C182.694 91.3704 197.195 65.1937 174.738 73.411C164.488 77.1618 156.881 83.56 151.639 89.4076C149.633 91.6528 147.975 93.8095 146.644 95.7052C143.834 99.7241 142.5 102.575 142.5 102.575Z" fill="#FFABD7"/>
<path d="M155.618 111.345C155.762 111.345 155.893 111.249 155.934 111.103C157.322 106.057 159.038 101.05 161.037 96.2194C161.537 95.0082 162.064 93.7898 162.6 92.6002C162.674 92.435 162.6 92.2412 162.437 92.167C162.272 92.0904 162.078 92.1646 162.002 92.3297C161.463 93.5265 160.937 94.7497 160.431 95.968C158.423 100.825 156.697 105.858 155.302 110.928C155.254 111.103 155.355 111.285 155.529 111.333C155.558 111.34 155.589 111.345 155.618 111.345Z" fill="#1B2026"/>
<path d="M227.439 91.6998C227.479 91.6998 227.518 91.6926 227.558 91.6759C227.726 91.6112 227.81 91.4221 227.745 91.2522C227.735 91.2259 226.735 88.6671 224.705 85.4668C224.607 85.3136 224.403 85.2681 224.253 85.3663C224.099 85.462 224.054 85.6655 224.15 85.8187C226.144 88.9591 227.125 91.4652 227.135 91.4892C227.185 91.6184 227.307 91.6998 227.439 91.6998Z" fill="#1B2026"/>
<path d="M104.224 38.7391C104.54 40.1585 105.22 41.6378 106.225 43.1553C114.895 56.2269 147.654 71.9937 177.632 75.4573C189.011 76.7762 212.023 79.4355 222.715 65.9833C223.228 65.3394 223.694 64.6812 224.118 64.011C228.259 57.4644 228.46 49.5463 228.687 39.2082C229.073 21.5241 224.539 0.498555 219.115 0.326214C216.88 0.256799 213.627 3.70601 209.335 19.8462C205.63 19.7098 201.924 19.5686 198.217 19.4321C194.109 4.12489 191.345 0.338182 189.47 0.484193C187.448 0.639779 185.87 5.39112 184.216 10.3699C182.936 14.238 182.297 17.6584 181.954 20.2579C172.385 20.1023 133.218 19.7194 114.323 26.9625C108.748 29.0952 104.937 31.8957 104.169 35.5603C103.958 36.5776 103.982 37.638 104.224 38.7391Z" fill="#D68525"/>
<path d="M213.963 19.8672C216.931 20.097 219.897 20.3244 222.863 20.5518C221.233 10.9007 219.845 8.74645 218.842 8.73927C218.126 8.73449 217.556 9.8188 216.618 11.6499C214.945 14.91 214.27 17.8733 213.963 19.8672Z" fill="#965208"/>
<path d="M186.046 20.2456C189.019 20.2073 191.994 20.169 194.969 20.1307C192.482 10.664 190.91 8.64134 189.909 8.72511C189.196 8.78496 188.724 9.91475 187.954 11.8225C186.58 15.219 186.17 18.2302 186.046 20.2456Z" fill="#965208"/>
<path d="M104.225 38.739C104.541 40.1584 105.221 41.6377 106.226 43.1552C114.896 56.2268 147.655 71.9936 177.633 75.4572C189.012 76.7761 212.024 79.4354 222.717 65.9832C223.229 65.3394 223.696 64.6811 224.119 64.0109C216.9 52.5789 192.421 35.0074 109.74 38.459C107.825 38.5379 105.989 38.6289 104.225 38.739Z" fill="#EFE9E1"/>
<path d="M106.224 43.1548C118.946 45.1511 116.16 32.5845 114.321 26.9619C108.747 29.0946 104.936 31.8952 104.168 35.5598C103.679 37.8888 104.443 40.4643 106.224 43.1548Z" fill="#1B2026"/>
<path d="M210.097 37.3282C209.721 38.0438 209.63 39.0516 210.078 39.8439C210.789 41.1029 212.498 41.1771 213.508 41.2202C214.391 41.2585 216.864 41.3638 217.934 39.6141C218.36 38.9175 218.638 37.8021 218.178 36.8997C217.199 34.9848 213.666 35.5736 213.245 35.643C212.275 35.8034 210.767 36.0547 210.097 37.3282Z" fill="#FFABD7"/>
<path d="M181.835 62.1216C184.921 62.1216 187.532 61.3652 189.631 59.862C193.394 57.1692 194.103 53.0857 194.131 52.9109C194.163 52.7338 194.04 52.5662 193.863 52.5351C193.684 52.504 193.516 52.6261 193.485 52.8056C193.48 52.8319 193.018 55.4936 190.917 57.8346C188.104 60.9702 183.834 62.0833 178.231 61.1474C178.051 61.1187 177.884 61.2383 177.852 61.4179C177.824 61.595 177.943 61.7649 178.123 61.7937C179.427 62.0115 180.665 62.1216 181.835 62.1216Z" fill="#1B2026"/>
<path d="M195.656 53.8351C195.711 53.8351 195.768 53.8231 195.819 53.792C195.974 53.7034 196.029 53.5048 195.941 53.3468C195.929 53.3276 194.732 51.2811 192.049 52.5641C191.886 52.6407 191.816 52.8369 191.895 52.9997C191.974 53.1649 192.168 53.2343 192.333 53.1553C194.449 52.1428 195.335 53.6101 195.371 53.6723C195.433 53.7776 195.543 53.8351 195.656 53.8351Z" fill="#1B2026"/>
<path d="M225.771 46.3912C225.788 46.3912 225.807 46.3888 225.824 46.3864C228.699 45.9196 232.71 45.3739 235.484 45.4457L235.611 45.4481C235.791 45.4481 235.939 45.3021 235.939 45.1201C235.939 44.9406 235.791 44.7922 235.611 44.7922L235.501 44.7898C232.67 44.7228 228.62 45.2661 225.719 45.7401C225.541 45.7688 225.419 45.9364 225.448 46.1159C225.474 46.2763 225.613 46.3912 225.771 46.3912Z" fill="#1B2026"/>
<path d="M235.611 50.5846C235.759 50.5846 235.893 50.4841 235.929 50.3333C235.972 50.1586 235.862 49.9814 235.687 49.9383C235.647 49.9288 231.52 48.945 226.101 49.0407C225.919 49.0431 225.775 49.1915 225.778 49.3735C225.783 49.5554 225.933 49.7181 226.111 49.6966C231.448 49.6008 235.494 50.5655 235.534 50.5751C235.558 50.5822 235.585 50.5846 235.611 50.5846Z" fill="#1B2026"/>
<path d="M203.926 35.8227C204.821 35.8227 205.666 35.648 206.408 35.2937C209.098 34.0203 209.912 30.7985 210.099 29.8411C210.132 29.6615 210.017 29.4892 209.838 29.4557C209.663 29.4198 209.488 29.5371 209.455 29.7142C209.285 30.5951 208.538 33.5608 206.128 34.7025C203.181 36.098 198.425 34.3961 196.039 29.6304C195.957 29.4677 195.759 29.403 195.598 29.4844C195.435 29.5658 195.371 29.7621 195.452 29.9248C197.422 33.8552 200.938 35.8227 203.926 35.8227Z" fill="#1B2026"/>
<path d="M175.286 32.9604C176.179 32.9604 177.027 32.7857 177.769 32.4314C180.457 31.158 181.273 27.9338 181.457 26.9764C181.493 26.7992 181.376 26.6269 181.199 26.5934C181.022 26.5575 180.849 26.6748 180.816 26.8519C180.643 27.7327 179.899 30.6984 177.489 31.8402C174.542 33.2357 169.783 31.5314 167.397 26.7681C167.318 26.6054 167.119 26.5407 166.959 26.6221C166.796 26.7035 166.732 26.8998 166.813 27.0625C168.781 30.9929 172.299 32.9604 175.286 32.9604Z" fill="#1B2026"/>
<path d="M196.852 76.5124C200.148 84.6268 208.674 89.0287 216.446 87.1521C222.933 85.5842 227.957 79.8659 228.948 72.7999C226.748 72.8765 224.338 72.8645 221.755 72.7065C219.484 72.5677 217.363 72.3331 215.412 72.0459C213.493 73.0153 211.168 74.0063 208.461 74.8057C203.942 76.1438 199.911 76.4956 196.852 76.5124Z" fill="#1B2026"/>
<path d="M158.222 83.04C159.85 84.2967 162.48 86.0296 166.054 87.1522C177.022 90.5967 186.685 85.0794 188.664 83.8826C190.74 82.6283 193.887 80.3687 196.853 76.5126C192.111 76.5724 186.927 76.4049 181.376 75.8759C177.982 75.5527 174.757 75.1219 171.72 74.624C169.077 75.7921 166.09 77.3551 162.978 79.452C161.205 80.6488 159.622 81.8623 158.222 83.04Z" fill="#1B2026"/>
<path d="M190.437 77.4603C190.42 80.505 193.862 82.8268 196.797 82.2834C198.693 81.9316 200.553 80.3494 200.835 78.2406C201.204 75.5214 198.834 72.7855 195.926 72.6228C193.075 72.4648 190.454 74.8153 190.437 77.4603Z" fill="#2062C4"/>
<path d="M195.782 80.4443C196.687 80.4443 197.68 80.059 198.243 79.1805C198.65 78.5438 198.765 77.7204 198.557 76.9185C198.334 76.0568 197.774 75.3316 197.022 74.9294C196.285 74.5345 195.387 74.4651 194.557 74.7403C193.796 74.9917 193.18 75.5135 192.869 76.1717C192.532 76.885 192.553 77.7204 192.929 78.5247C193.35 79.4247 194.164 80.1236 195.052 80.3534C195.28 80.4132 195.529 80.4443 195.782 80.4443ZM195.579 75.231C195.979 75.231 196.369 75.3244 196.713 75.5087C197.305 75.8246 197.745 76.3991 197.922 77.0837C198.085 77.7084 198.001 78.3427 197.692 78.8262C197.144 79.6808 196.007 79.9249 195.215 79.7191C194.511 79.5372 193.863 78.9723 193.523 78.247C193.231 77.6246 193.209 76.9856 193.461 76.4518C193.695 75.9563 194.169 75.559 194.763 75.3627C195.031 75.2741 195.306 75.231 195.579 75.231Z" fill="#1B2026"/>
<path d="M185.387 118.619C186.057 118.411 187.002 118.042 188.015 117.372C188.991 116.728 190.205 115.926 190.169 115.21C190.102 113.848 185.54 113.336 185.02 113.281C185.162 112.735 185.317 112.017 185.42 111.168C185.59 109.777 185.904 107.197 185.087 106.787C184.329 106.409 182.596 107.893 180.798 110.203C177.806 109.193 175.281 108.87 174.812 109.684C174.242 110.672 176.614 113.506 177.236 114.248C177.509 114.574 177.746 114.832 177.909 115.002C177.55 115.347 177.105 115.811 176.636 116.4C176.008 117.188 174.237 119.411 174.692 120.223C175.319 121.34 180.03 119.567 180.334 119.45C180.64 119.9 181.054 120.481 181.576 121.137C183.039 122.98 183.845 123.993 184.415 123.847C185.456 123.581 185.406 119.536 185.387 118.619Z" fill="#EFE9E1"/>
<path d="M229.1 154.775C229.772 154.567 230.718 154.198 231.728 153.53C232.705 152.884 233.918 152.082 233.882 151.366C233.815 150.004 229.253 149.492 228.734 149.437C228.875 148.891 229.03 148.173 229.133 147.323C229.303 145.933 229.619 143.355 228.801 142.946C228.042 142.567 226.309 144.049 224.511 146.359C221.522 145.349 218.994 145.026 218.525 145.839C217.955 146.828 220.33 149.662 220.952 150.406C221.225 150.73 221.462 150.988 221.622 151.158C221.265 151.503 220.818 151.967 220.349 152.556C219.722 153.346 217.95 155.567 218.407 156.381C219.032 157.496 223.743 155.723 224.047 155.608C224.353 156.058 224.77 156.637 225.289 157.293C226.754 159.136 227.558 160.149 228.128 160.002C229.169 159.737 229.119 155.692 229.1 154.775Z" fill="#EFE9E1"/>
<path d="M203.864 182.328C204.537 182.119 205.483 181.753 206.493 181.083C207.469 180.437 208.683 179.635 208.647 178.919C208.58 177.557 204.018 177.047 203.498 176.992C203.639 176.446 203.795 175.726 203.898 174.876C204.068 173.488 204.384 170.908 203.565 170.498C202.806 170.12 201.073 171.602 199.276 173.912C196.286 172.904 193.759 172.581 193.289 173.392C192.72 174.381 195.094 177.215 195.717 177.959C195.989 178.285 196.226 178.541 196.387 178.711C196.03 179.055 195.583 179.522 195.113 180.109C194.486 180.899 192.715 183.122 193.172 183.934C193.797 185.049 198.508 183.278 198.812 183.161C199.118 183.611 199.534 184.192 200.054 184.846C201.519 186.691 202.323 187.704 202.893 187.558C203.934 187.29 203.884 183.244 203.864 182.328Z" fill="#EFE9E1"/>
<path d="M169.833 167.945C170.505 167.736 171.451 167.368 172.461 166.7C173.438 166.054 174.651 165.252 174.615 164.536C174.548 163.174 169.986 162.664 169.467 162.609C169.608 162.064 169.763 161.343 169.866 160.493C170.036 159.105 170.352 156.525 169.534 156.115C168.775 155.737 167.042 157.219 165.244 159.529C162.255 158.521 159.727 158.198 159.258 159.009C158.688 159.998 161.062 162.832 161.685 163.576C161.958 163.902 162.195 164.158 162.355 164.328C161.998 164.673 161.551 165.139 161.082 165.726C160.455 166.516 158.683 168.737 159.14 169.551C159.765 170.666 164.476 168.895 164.78 168.778C165.086 169.228 165.503 169.809 166.022 170.463C167.487 172.306 168.291 173.321 168.861 173.175C169.902 172.907 169.852 168.861 169.833 167.945Z" fill="#EFE9E1"/>
<path d="M144.674 185.616C144.899 185.745 145.141 185.877 145.397 186.013C147.482 187.105 148.624 187.708 149.086 187.34C149.931 186.676 148.253 183 147.865 182.164C148.399 181.703 149.112 180.989 149.77 179.967C150.402 178.981 151.187 177.755 150.867 177.116C150.251 175.903 145.9 177.267 145.383 177.432C145.096 180.355 144.863 183.096 144.674 185.616Z" fill="#EFE9E1"/>
<path d="M146.644 95.7049C146.936 96.1213 147.311 96.6408 147.764 97.2128C149.231 99.0535 150.035 100.071 150.603 99.9248C151.644 99.6567 151.594 95.6091 151.574 94.6947C152.247 94.4889 153.193 94.1203 154.203 93.4477C155.184 92.8038 156.395 92.0043 156.359 91.2838C156.304 90.1133 152.905 89.57 151.639 89.4072C149.633 91.6524 147.974 93.8091 146.644 95.7049Z" fill="#EFE9E1"/>
<path d="M238.821 185.169C239.445 186.284 244.154 184.508 244.46 184.393C244.769 184.841 245.185 185.425 245.702 186.078C247.165 187.924 247.969 188.934 248.544 188.788C248.709 188.75 248.85 188.609 248.96 188.396C248.512 183.845 247.914 178.579 247.1 172.741C246.432 173.34 245.683 174.17 244.924 175.144C241.932 174.134 239.409 173.811 238.938 174.627C238.368 175.614 240.74 178.45 241.365 179.194C241.636 179.515 241.873 179.771 242.033 179.944C241.676 180.291 241.233 180.753 240.762 181.342C240.132 182.131 238.363 184.353 238.821 185.169Z" fill="#EFE9E1"/>
<path d="M211.103 95.9815C210.543 95.5578 209.693 95.0025 208.561 94.5669C207.467 94.148 206.11 93.6286 205.549 94.0738C204.482 94.9211 206.72 98.9304 206.978 99.3852C206.452 99.5887 205.777 99.8807 205.025 100.29C203.797 100.96 201.516 102.205 201.66 103.107C201.794 103.945 204.008 104.493 206.931 104.613C207.85 107.634 209.058 109.876 209.992 109.786C211.127 109.675 212.051 106.095 212.292 105.156C212.398 104.745 212.469 104.402 212.512 104.172C213.001 104.261 213.64 104.354 214.389 104.393C215.397 104.445 218.233 104.591 218.628 103.749C219.172 102.59 214.99 99.7898 214.719 99.6102C214.906 99.098 215.138 98.423 215.368 97.6187C216.014 95.3544 216.369 94.1097 215.919 93.7291C215.095 93.0397 211.837 95.4334 211.103 95.9815Z" fill="#EFE9E1"/>
<path d="M242.848 130.137C219.424 131.798 195.752 132.547 172.306 131.542C164.498 131.295 156.779 130.649 149.006 130.158L146.565 145.047C148.592 145.518 150.634 145.944 152.681 146.368C166.865 149.144 181.481 149.949 195.919 149.75C208.177 149.611 220.593 148.704 232.745 147.076C236.838 146.528 240.969 145.87 245.027 145.066L242.848 130.137Z" fill="#2062C4"/>
<path d="M199.3 154.485C202.012 154.485 204.788 154.121 206.816 151.962C208.223 150.461 208.846 148.547 208.563 141.732C208.178 132.399 207.515 130.343 206.076 129.034C203.558 126.745 200.267 126.791 197.074 126.839C194.058 126.884 191.454 126.923 189.17 128.775C185.984 131.365 185.972 135.305 185.958 141.83C185.946 146.273 185.939 149.207 187.978 151.46C190.458 154.198 194.043 154.325 197.208 154.437C197.89 154.461 198.594 154.485 199.3 154.485ZM202.608 132.682C202.79 133.124 203.252 134.922 203.541 141.94C203.762 147.268 203.343 148.317 203.151 148.52C202.158 149.578 199.838 149.497 197.385 149.411C194.9 149.322 192.758 149.248 191.705 148.085C191.004 147.309 190.975 145.411 190.984 141.844C190.996 136.243 191.059 133.723 192.339 132.682C193.23 131.956 194.529 131.906 197.148 131.868C199.499 131.834 201.536 131.803 202.608 132.682Z" fill="#1B2026"/>
<path d="M224.095 106.013C222.613 113.153 225.512 119.489 228.796 123.235C236.664 132.207 253.543 134.112 262.546 124.724C267.675 119.374 269.956 110.657 266.945 102.667C262.811 91.7041 251.425 89.2985 250.76 89.1716C249.383 82.3498 248.007 75.5256 246.631 68.7037C246.858 68.608 248.05 68.0766 248.423 66.8439C248.818 65.5537 248.038 64.4 247.88 64.1798C246.331 62.0207 242.088 62.6479 239.048 63.0955C235.974 63.5479 230.895 64.2971 230.021 67.1479C229.937 67.4231 229.547 68.845 230.378 69.8431C231.079 70.688 232.29 70.7096 232.659 70.7024C233.564 77.7947 234.471 84.8894 235.376 91.9817C234.473 92.3934 226.089 96.4123 224.095 106.013Z" fill="#AEBAFF"/>
<path d="M228.498 108.391C230.783 119.411 241.342 125.785 250.222 123.492C257.125 121.709 262.475 114.825 262.904 106.552C256.979 102.284 253.19 102.179 250.792 102.936C247.244 104.058 246.878 107.029 243.388 107.457C239.108 107.979 236.911 103.855 233.031 104.721C230.836 105.212 229.369 107.017 228.498 108.391Z" fill="#71B24B"/>
<path d="M233.335 70.9332C233.366 70.9332 233.399 70.9284 233.431 70.9188C236.944 69.825 245.43 69.1141 245.514 69.1069C245.695 69.0925 245.829 68.9345 245.815 68.7526C245.798 68.5731 245.645 68.4462 245.461 68.4534C245.109 68.4821 236.82 69.1763 233.237 70.2917C233.064 70.3468 232.966 70.5287 233.021 70.701C233.064 70.8423 233.194 70.9332 233.335 70.9332Z" fill="#1B2026"/>
<path d="M243.312 83.5141C245.358 85.1968 248.408 85.429 251.139 84.2848C251.213 83.1143 251.201 81.7715 251.012 80.3042C250.478 76.1585 248.805 73.0204 247.548 71.1175C246.6 71.0696 244.674 71.1247 243.139 72.3861C240.164 74.8324 239.961 80.759 243.312 83.5141Z" fill="#D68525"/>
<path d="M241.185 78.3771C241.225 78.3771 241.268 78.3675 241.312 78.3508C242.642 77.7907 243.985 77.817 244 77.817C244.174 77.829 244.33 77.6782 244.335 77.4962C244.339 77.3167 244.196 77.1659 244.016 77.1611C243.956 77.1635 242.518 77.1324 241.055 77.7476C240.89 77.817 240.811 78.0085 240.881 78.176C240.936 78.3005 241.055 78.3771 241.185 78.3771Z" fill="#1B2026"/>
<path d="M242.082 81.2205C242.125 81.2205 242.168 81.2109 242.209 81.1942C243.202 80.7729 244.844 80.6748 244.861 80.6724C245.041 80.6628 245.179 80.5096 245.167 80.3277C245.158 80.1458 245 80.0022 244.823 80.0189C244.751 80.0237 243.054 80.1242 241.955 80.591C241.788 80.6604 241.711 80.8519 241.78 81.0194C241.833 81.1439 241.955 81.2205 242.082 81.2205Z" fill="#1B2026"/>
<path d="M147.059 118.98C147.21 118.98 147.344 118.879 147.379 118.726C147.664 117.501 148.327 116.206 148.335 116.191C148.418 116.031 148.354 115.835 148.193 115.751C148.033 115.67 147.834 115.729 147.753 115.892C147.724 115.947 147.047 117.271 146.74 118.578C146.7 118.755 146.81 118.932 146.985 118.973C147.011 118.978 147.035 118.98 147.059 118.98Z" fill="#1B2026"/>
<path d="M145.095 117.676C145.243 117.676 145.379 117.573 145.413 117.423C145.7 116.192 146.363 114.9 146.37 114.888C146.452 114.727 146.389 114.529 146.229 114.445C146.066 114.363 145.87 114.426 145.786 114.586C145.758 114.644 145.08 115.965 144.776 117.274C144.735 117.451 144.843 117.626 145.02 117.667C145.044 117.674 145.071 117.676 145.095 117.676Z" fill="#1B2026"/>
<path d="M178.295 82.0823C184.992 82.0823 190.184 80.457 190.268 80.4307C190.44 80.3756 190.534 80.1913 190.478 80.019C190.423 79.8466 190.242 79.7533 190.067 79.8059C189.933 79.849 176.464 84.0546 165.039 78.7503C164.874 78.6761 164.68 78.7456 164.603 78.9107C164.527 79.0759 164.599 79.2698 164.764 79.3464C169.269 81.4384 174.08 82.0823 178.295 82.0823Z" fill="white"/>
<path d="M208.465 81.1585C219.613 81.1585 223.919 74.8801 223.969 74.8035C224.069 74.6527 224.029 74.4492 223.878 74.3511C223.727 74.2505 223.524 74.2912 223.423 74.442C223.366 74.5282 217.552 82.9537 201.715 79.7966C201.538 79.763 201.366 79.8779 201.33 80.0551C201.297 80.2322 201.411 80.4045 201.589 80.4404C204.123 80.9455 206.412 81.1585 208.465 81.1585Z" fill="white"/>
<path d="M175.585 145.499C175.597 145.499 175.609 145.499 175.621 145.497C175.8 145.478 175.93 145.315 175.911 145.136C175.724 143.46 176.583 136.803 176.593 136.736C176.614 136.557 176.49 136.394 176.31 136.37C176.128 136.351 175.966 136.473 175.942 136.653C175.906 136.93 175.066 143.455 175.259 145.207C175.279 145.375 175.42 145.499 175.585 145.499Z" fill="#1B2026"/>
<path d="M163.232 143.976C163.409 143.976 163.555 143.835 163.56 143.656C163.603 141.004 164.084 136.346 164.089 136.3C164.108 136.121 163.976 135.958 163.797 135.939C163.62 135.924 163.457 136.051 163.438 136.233C163.433 136.279 162.949 140.963 162.904 143.644C162.901 143.826 163.045 143.974 163.225 143.976C163.227 143.976 163.229 143.976 163.232 143.976Z" fill="#1B2026"/>
<path d="M153.061 142.157C153.231 142.157 153.375 142.026 153.389 141.853C153.592 139.211 154.354 134.591 154.361 134.546C154.389 134.366 154.27 134.196 154.09 134.167C153.913 134.139 153.743 134.258 153.714 134.438C153.705 134.486 152.941 139.132 152.735 141.803C152.721 141.985 152.855 142.143 153.037 142.155C153.044 142.157 153.054 142.157 153.061 142.157Z" fill="#1B2026"/>
<path d="M216.655 144.743C216.82 144.743 216.961 144.618 216.98 144.451C217.174 142.698 216.334 136.173 216.298 135.896C216.274 135.716 216.111 135.594 215.929 135.613C215.75 135.637 215.623 135.8 215.647 135.98C215.657 136.047 216.516 142.703 216.329 144.379C216.31 144.558 216.439 144.721 216.619 144.74C216.631 144.743 216.643 144.743 216.655 144.743Z" fill="#1B2026"/>
<path d="M229.009 143.22C229.011 143.22 229.013 143.22 229.013 143.22C229.195 143.218 229.339 143.07 229.337 142.888C229.291 140.209 228.808 135.523 228.803 135.477C228.784 135.295 228.621 135.168 228.444 135.185C228.264 135.204 228.133 135.365 228.152 135.544C228.157 135.592 228.635 140.248 228.681 142.9C228.683 143.079 228.829 143.22 229.009 143.22Z" fill="#1B2026"/>
<path d="M239.18 141.401C239.187 141.401 239.197 141.401 239.204 141.399C239.386 141.387 239.52 141.229 239.506 141.047C239.3 138.375 238.534 133.727 238.527 133.682C238.498 133.502 238.328 133.38 238.151 133.411C237.971 133.44 237.852 133.61 237.88 133.787C237.887 133.835 238.649 138.454 238.852 141.097C238.866 141.269 239.01 141.401 239.18 141.401Z" fill="#1B2026"/>
</g>
</g>
</svg>
