<svg width="31" height="41" viewBox="0 0 31 41" fill="none" xmlns="http://www.w3.org/2000/svg">
<path d="M15.874 0C16.8782 7.27791e-08 17.8417 0.382863 18.5518 1.06445C19.256 1.74056 19.6537 2.65582 19.6602 3.61133H19.666C19.666 4.85337 19.2251 6.24393 18.4619 7.26855C17.669 8.33306 16.3068 9.3649 15.7861 9.36523C15.2657 9.36523 13.8195 8.18943 13.0654 7.00098C12.4354 6.00802 12.084 4.85337 12.084 3.61133H12.0889C12.0954 2.65582 12.493 1.74056 13.1973 1.06445C13.9072 0.383002 14.8701 0.00010587 15.874 0Z" fill="white"/>
<path d="M25.7742 5.82202C23.057 8.68188 21.0513 10.9744 18.332 13.5506C14.6819 19.5331 15.517 22.3765 18.7593 27.1496C17.7627 24.9983 17.7574 23.1422 19.1886 20.7092C20.6199 18.2761 25.0566 13.9825 25.0566 13.9825C25.0566 13.9825 28.6387 10.8287 30.211 8.54132C31.7833 6.25395 28.4915 2.96217 25.7742 5.82202Z" fill="white"/>
<path d="M8.45664 8.25508C7.18665 6.72267 8.17217 7.6801 5.30798 4.24769C2.44379 0.815291 -1.4207 4.67962 1.01435 7.53947C1.01435 7.53947 3.77803 10.0973 5.4491 11.8357C6.65548 13.0906 8.45464 15.1274 8.45464 15.1274C9.95508 16.9264 12.0326 20.1367 12.0326 20.1367C13.7778 22.9626 13.7679 25.0208 11.8895 27.8652C11.8895 27.8652 8.5977 31.8726 7.45273 33.4469C6.30777 35.0212 6.16465 35.88 6.16465 35.88C4.87656 39.6011 9.3133 42.4635 11.8895 37.7405C11.8895 37.7405 13.1776 34.1625 13.4638 33.3038C13.7501 32.4451 14.7519 29.8689 14.7519 29.8689C15.2416 28.9169 15.495 29.0534 15.8969 29.8689C15.8969 29.8689 17.1849 33.4469 18.7593 37.7405C20.3336 42.0342 25.9153 40.3167 24.341 35.5937C23.6857 33.9914 23.1924 33.1959 22.1942 31.8726L19.3318 28.1514L18.7593 27.1496C15.517 22.3765 14.6819 19.5331 18.332 13.5506C15.6127 16.1267 13.3228 13.6937 13.1796 13.5506C13.0365 13.4074 10.2248 10.3886 8.45664 8.25508Z" fill="white"/>
</svg>
