<svg width="1393" height="132" viewBox="0 0 1393 132" fill="none" xmlns="http://www.w3.org/2000/svg">
<path d="M0.267578 0.00390625H1392.27C1392.27 7.04226 1385.76 12.881 1378.78 13.7615C1373.02 14.4879 1365.52 16.074 1356.5 19.3372C1346.85 22.828 1331.45 41.8387 1336.39 100.663C1336.57 102.802 1336.45 105.001 1335.94 107.084C1329.13 134.545 1321.43 131.483 1319.28 131.471C1312.88 131.433 1301.4 130.987 1296.08 101.987C1291.83 78.7872 1338.62 20.7872 1297.53 22.7206C1256.45 24.6539 1287.38 86.5206 1269.02 86.0372C1250.65 85.5539 1249.58 56.0706 1248.72 50.2706C1239.53 -11.5961 1229.13 21.5361 1216.33 20.7872C1202.37 19.9699 1204.73 1.93724 1178.15 6.77057C1151.57 11.6039 1142.87 23.2039 1109.52 17.8872C1076.17 12.5706 1085.31 53.3198 1062.63 53.6539C1049.57 53.8463 1044.42 28.0964 1032.27 23.9429C1030.06 23.1884 1027.69 23.8033 1025.49 24.5785C1008.03 30.7279 988.968 34.5555 963.068 15.4706C942.768 5.80391 949.149 9.51638 927.301 9.67057C867.368 35.2872 825.318 41.5706 780.368 19.6583C780.368 19.6583 755.521 9.64097 739.284 9.67057C724.341 9.69782 690.779 23.189 674.518 23.2039C656.903 23.2201 650.351 26.5872 634.884 19.8206C622.707 15.4717 614.835 5.64481 604.577 8.2953C602.152 8.92189 600.215 10.6705 598.465 12.4628C582.037 29.2921 571.307 22.8496 569.634 21.7539C555.618 12.5706 556.44 10.3847 548.368 11.1206C526.938 13.0741 536.244 32.3872 537.251 44.4706C538.258 56.5539 528.551 65.2539 518.401 63.8039C508.251 62.3539 528.068 34.3206 520.334 19.8206C512.601 5.32057 485.315 8.23593 473.451 8.22057C461.002 8.20446 436.494 24.2069 425.118 24.1706C407.591 24.1146 368.692 9.77898 354.068 9.67057C334.747 9.52735 302.681 21.9996 289.301 21.7539C267.242 21.3488 261.182 17.1658 258.851 16.4372C237.501 9.76544 227.612 3.91227 208.09 17.7113C204.56 20.2069 200.3 22.7405 199.264 26.9382C197.308 34.8629 197.455 50.6015 197.467 65.1575C197.468 66.1878 197.398 67.2197 197.204 68.2315C194.678 81.402 186.744 87.692 184.901 87.4872C181.044 87.0587 171.487 89.6701 165.664 79.4853C164.036 76.6373 163.922 73.2261 164.31 69.9685C167.245 45.3584 161.378 37.4953 152.034 38.1872C140.385 39.0499 148.168 56.5539 130.284 56.5539C112.401 56.5539 110.966 13.3837 98.8676 14.5039C67.7261 17.3873 81.4676 79.7539 83.8842 93.7706C86.3009 107.787 71.3176 108.271 64.5509 107.304C57.7842 106.337 51.0176 101.021 49.5676 90.3872C48.1176 79.7539 59.4915 44.249 52.4676 24.1706C47.4235 9.75158 27.4287 21.9559 22.9842 21.7539C18.6455 21.5567 14.0653 20.1524 10.1631 18.5589C3.75486 15.9421 0.267578 9.34969 0.267578 2.42775V0.00390625Z" fill="#F4FAFC"/>
<path d="M80.2634 96.0917C79.9028 97.6522 73.1255 104.364 65.8431 102.681C58.5607 100.998 54.4728 91.7764 54.8334 90.2159C55.1939 88.6554 56.7868 95.9563 64.0691 97.639C71.3515 99.3216 80.6239 94.5312 80.2634 96.0917Z" fill="#0083CA" fill-opacity="0.2"/>
<path d="M529.554 58.1181C529.327 59.0975 525.074 63.31 520.503 62.2539C515.932 61.1978 517.801 52.3595 518.027 51.38C518.253 50.4006 517.697 57.9126 522.268 58.9687C526.838 60.0248 529.78 57.1387 529.554 58.1181Z" fill="#0083CA" fill-opacity="0.2"/>
<path d="M138.074 49.6731C137.888 50.4775 132.735 53.554 126.546 52.124C120.357 50.6939 121.804 43.4143 121.99 42.6099C122.175 41.8054 122.315 48.1131 128.504 49.5432C134.693 50.9733 138.26 48.8686 138.074 49.6731Z" fill="#0083CA" fill-opacity="0.2"/>
<path d="M1329.26 114.066C1328.54 115.499 1317.61 125.417 1310.92 122.074C1304.24 118.731 1303.41 103.639 1304.12 102.207C1304.84 100.774 1304.24 112.881 1310.92 116.223C1317.61 119.566 1329.98 112.633 1329.26 114.066Z" fill="#0083CA" fill-opacity="0.2"/>
<path d="M1274.14 74.507C1273.99 75.4356 1269.29 82.86 1264.53 82.0841C1259.77 81.3082 1256.24 72.9193 1256.39 71.9907C1256.54 71.0621 1258.6 78.0024 1263.36 78.7783C1268.12 79.5542 1274.29 73.5784 1274.14 74.507Z" fill="#0083CA" fill-opacity="0.2"/>
<path d="M594.324 12.7846C593.608 14.2171 580.564 23.6475 573.879 20.3048C567.193 16.9621 564.084 12.5541 564.8 11.1216C565.517 9.68903 567.193 13.5789 573.879 16.9216C580.564 20.2643 595.04 11.3521 594.324 12.7846Z" fill="#0083CA" fill-opacity="0.2"/>
<path d="M677.192 17.3525C676.422 18.757 651.311 25.1485 642.505 20.3216C633.7 15.4947 628.067 11.3794 628.837 9.9749C629.607 8.57044 637.331 12.8646 646.136 17.6915C654.942 22.5184 677.962 15.948 677.192 17.3525Z" fill="#0083CA" fill-opacity="0.2"/>
<path d="M304.056 11.5385C303.59 13.3371 288.092 18.2446 280.856 16.3718C276.117 15.1453 268.366 14.2806 263.237 12.337C259.03 10.7423 260.417 7.82219 264.792 8.87174C270.177 10.1632 277.542 12.3638 281.823 13.4718C289.058 15.3446 304.457 9.988 304.056 11.5385Z" fill="#0083CA" fill-opacity="0.2"/>
<path d="M7.08221 12.6202C7.54772 14.4188 17.5022 20.7613 21.7297 19.6671C24.6598 18.9087 29.6902 18.8853 32.5716 17.2599C34.9749 15.9041 33.4854 13.3709 30.7938 13.9792C27.6362 14.6927 23.3526 16.0969 20.8472 16.7453C16.6197 17.8395 6.6809 11.0697 7.08221 12.6202Z" fill="#0083CA" fill-opacity="0.2"/>
<path d="M1011.6 22.841C1010.79 24.5126 994.632 26.2707 987.907 23.0091C983.503 20.8731 976.074 18.4983 971.429 15.5825C967.618 13.1901 969.553 10.6004 973.636 12.4915C978.66 14.8183 985.447 18.4267 989.426 20.3564C996.151 23.618 1012.3 21.3999 1011.6 22.841Z" fill="#0083CA" fill-opacity="0.2"/>
<path d="M1148.29 10.3327C1148.11 11.7822 1133.63 16.8929 1126.21 16.0105C1121.89 15.4961 1115.26 15.4005 1110.07 14.6038C1104.64 13.7684 1105.39 10.9822 1110.85 11.6089C1116.15 12.2163 1122.74 13.1839 1126.7 13.6556C1134.13 14.5381 1148.44 9.083 1148.29 10.3327Z" fill="#0083CA" fill-opacity="0.2"/>
<path d="M1068.62 48.8137C1067.64 49.7413 1055.32 46.8387 1053.73 43.5974C1052.87 41.8488 1051.36 40.1098 1050.6 38.4477C1049.37 35.789 1052.47 35.071 1053.89 37.6272C1054.9 39.4406 1055.95 41.6365 1056.71 43.1836C1058.3 46.4249 1071.44 46.1661 1068.62 48.8137Z" fill="#0083CA" fill-opacity="0.2"/>
<path d="M1219.1 18.6972C1218.37 19.3797 1209.31 17.2443 1208.14 14.8596C1207.68 13.9267 1206.97 12.9974 1206.4 12.0907C1204.84 9.61394 1207.46 8.90044 1208.81 11.4961C1209.37 12.5705 1209.91 13.6982 1210.33 14.5552C1211.5 16.9398 1221.17 16.7494 1219.1 18.6972Z" fill="#0083CA" fill-opacity="0.2"/>
<path d="M852.445 25.4533C854.054 29.3836 809.791 29.9504 796.315 23.5523C788.409 19.7986 780.031 15.7742 774.29 12.2832C768.929 9.02395 770.417 6.85237 776.148 9.40433C783.667 12.7523 794.614 17.8359 803.852 21.5494C819.505 27.8421 850.836 21.523 852.445 25.4533Z" fill="#0083CA" fill-opacity="0.2"/>
<path d="M440.356 14.437C439.89 16.2355 424.392 21.143 417.156 19.2702C412.417 18.0437 404.666 17.179 399.537 15.2355C395.329 13.6408 396.716 10.7206 401.092 11.7702C406.477 13.0616 413.841 15.2622 418.122 16.3703C425.358 18.2431 440.757 12.8864 440.356 14.437Z" fill="#0083CA" fill-opacity="0.2"/>
<path d="M185.287 76.5156C191.677 73.5299 192.405 75.8594 186.428 79.605C185.769 80.018 185.096 80.397 184.419 80.723C180.177 82.7677 175.929 82.2781 172.819 80.723C170.431 79.5285 167.239 70.7079 167.503 68.1564C168.075 62.6165 171.6 64.1583 172.572 69.6424C173.122 72.7484 174.507 76.0086 177.169 77.3397C179.597 78.5533 182.532 77.8026 185.287 76.5156Z" fill="#0083CA" fill-opacity="0.2"/>
</svg>
