<svg width="16" height="17" viewBox="0 0 16 17" fill="none" xmlns="http://www.w3.org/2000/svg">
<path d="M7.32159 1.76974C7.70176 1.55025 8.17014 1.55025 8.55031 1.76974L14.0609 4.95129C14.4411 5.17078 14.6753 5.57641 14.6753 6.01539V12.3785C14.6753 12.8175 14.4411 13.2231 14.0609 13.4426L8.55031 16.6241C8.17015 16.8436 7.70176 16.8436 7.32159 16.6241L1.81099 13.4426C1.43082 13.2231 1.19663 12.8175 1.19663 12.3785V6.01539C1.19663 5.57641 1.43082 5.17078 1.81099 4.95129L7.32159 1.76974Z" fill="#F9B52E"/>
<path d="M14.8132 8.25446C14.8132 7.55592 14.6729 6.88684 14.4156 6.26754C14.2398 8.09227 13.1415 9.02952 11.9938 8.59306C10.9184 8.18403 11.6432 6.58955 11.6968 5.82871C11.787 4.53897 11.6922 3.06266 9.04707 1.83522C10.1462 3.69754 9.17438 4.85421 8.1548 4.92498C7.02397 5.00285 5.98872 4.06425 6.37101 2.54053C5.13314 3.34844 5.09682 4.70827 5.47873 5.58796C5.87709 6.5049 5.46306 7.26675 4.49127 7.35141C3.40593 7.44621 2.80267 6.32171 3.35891 4.52983C2.36036 5.56913 1.45751 7.02816 1.4597 8.39285C1.4597 9.56832 1.15043 11.559 1.4035 13.0898C1.43525 13.2819 1.5567 13.4454 1.72457 13.544C3.67703 14.6912 5.7307 15.8209 7.87813 16.7111C8.05466 16.7843 8.25292 16.7809 8.42767 16.7036C10.2139 15.9132 12.5069 14.8838 14.1822 13.8384C14.6266 13.561 14.9386 13.108 14.9981 12.5875C15.1301 11.4346 14.9488 10.4204 14.8132 8.25446Z" fill="#FF7C16"/>
<path d="M12.8882 12.2841C12.8882 11.4452 12.6642 10.6594 12.2726 9.98239C12.329 11.1653 11.2899 11.629 10.7307 11.405C9.92336 11.0816 10.1397 10.5263 9.9318 9.37562C9.72392 8.22498 8.92499 7.42566 7.74213 7.07433C8.60511 9.50334 7.26384 10.3985 6.5608 10.5585C5.8428 10.7219 5.12135 10.5581 5.03888 9.0216C4.60858 9.44888 4.26721 9.95718 4.03449 10.5172C3.80177 11.0771 3.68232 11.6777 3.68304 12.2841C3.68304 12.969 3.76907 14.272 4.03745 14.8562C5.10629 15.5636 4.3863 15.3018 7.92771 16.9785C9.69632 16.2711 10.05 15.9173 12.2014 14.7039C12.6368 14.0008 12.8882 13.1718 12.8882 12.2841Z" fill="#FF9848"/>
<path d="M5.10535 9.49366L6.91923 11.3075L11.1516 7.0752" stroke="white" stroke-width="1.41489" stroke-linecap="round" stroke-linejoin="round"/>
</svg>
