<svg width="34" height="29" viewBox="0 0 34 29" fill="none" xmlns="http://www.w3.org/2000/svg">
<path d="M2.60046 0.478299C1.23548 0.478299 0.552989 1.12287 0.552989 2.41203C0.552989 3.09451 0.818402 3.62534 1.34923 4.00451C5.29251 6.96197 7.3779 10.4123 7.6054 14.3556C5.33043 14.5073 3.58628 15.2656 2.37297 16.6306C1.15965 17.9197 0.552989 19.5501 0.552989 21.5218C0.552989 23.4176 1.23548 25.0859 2.60046 26.5267C3.96545 27.8917 5.63376 28.5742 7.6054 28.5742C9.57704 28.5742 11.2833 27.778 12.7241 26.1855C14.1649 24.593 14.8853 22.1284 14.8853 18.7918C14.8853 15.4552 13.7478 12.0427 11.4729 8.55444C9.19788 5.06615 6.77124 2.56369 4.19294 1.04704C3.58629 0.66788 3.05546 0.478299 2.60046 0.478299ZM21.0277 0.478299C19.6627 0.478299 18.9803 1.12287 18.9803 2.41203C18.9803 3.09451 19.2457 3.62534 19.7765 4.00451C23.7198 6.96197 25.8052 10.4123 26.0327 14.3556C23.7577 14.5073 22.0135 15.2656 20.8002 16.6306C19.5869 17.9197 18.9803 19.5501 18.9803 21.5218C18.9803 23.4176 19.6627 25.0859 21.0277 26.5267C22.3927 27.8917 24.061 28.5742 26.0327 28.5742C28.0043 28.5742 29.7105 27.778 31.1513 26.1855C32.5922 24.593 33.3126 22.1284 33.3126 18.7918C33.3126 15.4552 32.1751 12.0427 29.9001 8.55444C27.6251 5.06615 25.1985 2.56369 22.6202 1.04704C22.0135 0.66788 21.4827 0.478299 21.0277 0.478299Z" fill="#E5E5EA"/>
</svg>
