<svg width="18" height="23" viewBox="0 0 18 23" fill="none" xmlns="http://www.w3.org/2000/svg">
<path fill-rule="evenodd" clip-rule="evenodd" d="M9.68799 0.555664C10.0596 0.555664 10.3606 0.856653 10.3606 1.22772V5.26108C10.3606 5.79594 10.573 6.30889 10.9512 6.68709C11.3294 7.06529 11.8424 7.27776 12.3772 7.27776H17.0827C17.261 7.27776 17.432 7.34859 17.558 7.47468C17.6841 7.60076 17.755 7.77176 17.755 7.95007C17.755 8.12838 17.6841 8.29938 17.558 8.42547C17.432 8.55155 17.261 8.62238 17.0827 8.62238H12.3772C11.9358 8.62238 11.4987 8.53544 11.0909 8.36652C10.6831 8.1976 10.3126 7.95001 10.0004 7.63788C9.68831 7.32575 9.44072 6.95521 9.2718 6.54739C9.10288 6.13958 9.01594 5.70249 9.01594 5.26108V1.22772C9.01594 0.856653 9.31693 0.555664 9.68799 0.555664ZM0.949219 13.6641C0.949219 13.293 1.25021 12.992 1.62128 12.992H12.3772C12.5555 12.992 12.7265 13.0629 12.8526 13.1889C12.9787 13.315 13.0495 13.486 13.0495 13.6643C13.0495 13.8426 12.9787 14.0136 12.8526 14.1397C12.7265 14.2658 12.5555 14.3366 12.3772 14.3366H1.62128C1.53298 14.3366 1.44555 14.3192 1.36398 14.2854C1.2824 14.2516 1.2083 14.2021 1.14588 14.1396C1.08347 14.0772 1.03398 14.003 1.00023 13.9214C0.966487 13.8398 0.949153 13.7524 0.949219 13.6641ZM0.949219 17.6974C0.949219 17.3264 1.25021 17.0254 1.62128 17.0254H12.3772C12.5555 17.0254 12.7265 17.0962 12.8526 17.2223C12.9787 17.3484 13.0495 17.5194 13.0495 17.6977C13.0495 17.876 12.9787 18.047 12.8526 18.1731C12.7265 18.2992 12.5555 18.37 12.3772 18.37H1.62128C1.53298 18.37 1.44555 18.3526 1.36398 18.3188C1.2824 18.285 1.2083 18.2354 1.14588 18.173C1.08347 18.1105 1.03398 18.0364 1.00023 17.9548C0.966487 17.8732 0.949153 17.7857 0.949219 17.6974ZM0.949219 21.7308C0.949219 21.3597 1.25021 21.0587 1.62128 21.0587H12.3772C12.5555 21.0587 12.7265 21.1296 12.8526 21.2557C12.9787 21.3817 13.0495 21.5527 13.0495 21.731C13.0495 21.9094 12.9787 22.0804 12.8526 22.2064C12.7265 22.3325 12.5555 22.4034 12.3772 22.4034H1.62128C1.53298 22.4034 1.44555 22.386 1.36398 22.3522C1.2824 22.3183 1.2083 22.2688 1.14588 22.2063C1.08347 22.1439 1.03398 22.0697 1.00023 21.9881C0.966487 21.9065 0.949153 21.8191 0.949219 21.7308Z" fill="#333333"/>
</svg>
