<svg width="153" height="229" viewBox="0 0 153 229" fill="none" xmlns="http://www.w3.org/2000/svg">
<mask id="mask0_3786_7263" style="mask-type:luminance" maskUnits="userSpaceOnUse" x="75" y="0" width="45" height="52">
<path d="M75.4019 0.197266H119.142V51.1216H75.4019V0.197266Z" fill="white"/>
</mask>
<g mask="url(#mask0_3786_7263)">
<path d="M75.5625 48.3923C82.2372 48.7755 88.912 49.1635 95.5899 49.5436C95.5931 49.5436 95.5931 49.5436 95.5931 49.5436C96.0258 49.5691 96.457 49.5963 96.8929 49.6186C104.21 50.0418 111.531 50.465 118.852 50.8833C118.79 50.1871 118.723 49.4238 118.638 48.5935C118.322 45.4845 117.819 41.4669 116.991 36.8504C116.984 36.8217 116.981 36.7897 116.975 36.7562C116.647 34.9406 116.254 32.745 115.793 30.3513C115.315 27.8922 114.766 25.2144 114.143 22.5061C113.955 21.6918 113.759 20.8758 113.557 20.063C113.497 19.8123 113.434 19.5648 113.369 19.3141C112.808 17.0929 112.194 14.8973 111.525 12.8278C110.985 11.1495 110.407 9.55909 109.797 8.10757C107.988 3.81052 105.87 0.73982 103.427 0.303887C102.975 0.222449 102.3 0.1969 101.378 0.554589C100.631 0.846808 99.7177 1.39771 98.627 2.37976C97.1484 3.71311 95.3456 5.84806 93.1835 9.23014C92.0146 11.0585 90.7403 13.2573 89.3575 15.8889C88.9567 16.6538 88.5447 17.457 88.1231 18.3001C86.7786 20.9828 85.3399 24.0631 83.7989 27.5936C83.4125 28.4751 83.0229 29.3853 82.6237 30.3258C80.6723 34.9486 78.5645 40.2692 76.297 46.401C76.0527 47.0557 75.81 47.7184 75.5625 48.3923Z" fill="#D68525"/>
</g>
<path d="M42.4265 65.348C45.9842 74.7085 67.1278 76.0595 94.5421 77.5717C115.695 78.7357 133.69 79.6172 143.811 76.176C144.59 75.9126 145.324 75.6203 146.006 75.3042C147.702 74.5137 149.096 73.5572 150.158 72.4027C150.655 71.863 151.079 71.2802 151.427 70.6494C151.459 70.5871 151.493 70.5297 151.525 70.4674C152.885 67.8677 152.464 65.4486 152.32 64.7747C150.385 55.6536 132.986 50.9462 118.638 48.5941C109.522 47.0978 101.642 46.5581 99.7382 46.4383C97.2918 46.2851 87.3021 45.7166 76.2968 46.4016C68.3302 46.8966 59.8271 48.0511 53.2785 50.4975C48.4354 52.3067 44.6621 54.8169 42.9567 58.2948C42.888 58.4353 42.8193 58.5806 42.7586 58.7243C42.4105 59.5243 41.2672 62.2932 42.4265 65.348Z" fill="#1B2026"/>
<path d="M107.057 40.3765C107.272 40.6847 107.615 41.1062 108.122 41.5134C108.61 41.9046 109.217 42.3917 109.576 42.2559C110.258 41.9988 109.77 39.5876 109.712 39.313C110.014 39.2954 110.405 39.2571 110.855 39.1693C111.59 39.0287 112.955 38.7653 113.029 38.2814C113.097 37.8327 112.059 37.1908 110.587 36.6543C110.611 34.9632 110.36 33.6203 109.87 33.5149C109.273 33.3856 108.221 35.0622 107.943 35.5014C107.823 35.6946 107.73 35.8574 107.67 35.9676C107.437 35.8415 107.127 35.6914 106.75 35.5477C106.245 35.3576 104.823 34.8195 104.484 35.1852C104.019 35.6882 105.694 37.7992 105.803 37.9349C105.624 38.1665 105.397 38.473 105.148 38.8467C104.451 39.8958 104.067 40.4723 104.235 40.7389C104.542 41.226 106.592 40.5361 107.057 40.3765Z" fill="#965208"/>
<path d="M96.8505 26.7095C97.0661 27.0177 97.4094 27.4392 97.9156 27.8448C98.4042 28.2376 99.0126 28.7247 99.3703 28.5889C100.052 28.3303 99.5635 25.919 99.5076 25.646C99.8078 25.6284 100.201 25.5885 100.649 25.5023C101.384 25.3602 102.749 25.0983 102.824 24.6128C102.891 24.1641 101.853 23.5238 100.383 22.9857C100.405 21.2946 100.154 19.9533 99.6641 19.8479C99.0669 19.7186 98.0146 21.3952 97.7383 21.8344C97.617 22.0276 97.5243 22.1905 97.4653 22.3006C97.2305 22.1745 96.9207 22.0228 96.5439 21.8807C96.0393 21.6907 94.6181 21.1525 94.2796 21.5182C93.8133 22.0212 95.4884 24.1322 95.5986 24.2679C95.4197 24.4979 95.1914 24.8061 94.9439 25.1781C94.2445 26.2288 93.8612 26.8053 94.0289 27.072C94.3355 27.559 96.3874 26.8692 96.8505 26.7095Z" fill="#965208"/>
<path d="M107.963 17.8315C108.268 18.3202 110.316 17.6303 110.781 17.4707C111 17.7804 111.34 18.1988 111.846 18.606C112.338 19.0004 112.945 19.4843 113.302 19.3517C113.325 19.3405 113.35 19.3278 113.369 19.315C112.809 17.0938 112.194 14.8982 111.525 12.8287C111.474 12.9197 111.431 12.9979 111.396 13.0602C111.161 12.9357 110.853 12.784 110.476 12.6435C109.973 12.4518 108.55 11.9121 108.212 12.2794C107.744 12.784 109.421 14.895 109.531 15.0275C109.352 15.2591 109.122 15.5672 108.874 15.9393C108.177 16.99 107.793 17.5649 107.963 17.8315Z" fill="#965208"/>
<path d="M86.1581 40.3765C86.3737 40.6847 86.7154 41.1062 87.2232 41.5134C87.7118 41.9046 88.3186 42.3917 88.6779 42.2559C89.3597 41.9988 88.8711 39.5876 88.8136 39.313C89.1154 39.2954 89.5066 39.2571 89.9569 39.1693C90.6915 39.0287 92.0568 38.7653 92.1302 38.2814C92.1989 37.8327 91.161 37.1908 89.6887 36.6543C89.7126 34.9632 89.4619 33.6203 88.9717 33.5149C88.3745 33.3856 87.3206 35.0622 87.0443 35.5014C86.9246 35.6946 86.832 35.8574 86.7713 35.9676C86.5381 35.8415 86.2268 35.6914 85.8515 35.5477C85.3469 35.3576 83.9241 34.8195 83.5856 35.1852C83.1209 35.6882 84.796 37.7992 84.9046 37.9349C84.7257 38.1665 84.499 38.473 84.2499 38.8467C83.5521 39.8958 83.1688 40.4723 83.3365 40.7389C83.6431 41.226 85.6934 40.5361 86.1581 40.3765Z" fill="#965208"/>
<path d="M93.1836 9.23124C93.9165 9.19611 95.0503 8.81128 95.3824 8.6979C95.5996 9.00768 95.9413 9.42925 96.4475 9.83644C96.9377 10.2261 97.5461 10.7147 97.9022 10.5774C98.5841 10.3219 98.097 7.91067 98.0395 7.63761C98.3413 7.61845 98.731 7.57853 99.1829 7.4907C99.9158 7.35178 101.281 7.0883 101.355 6.60287C101.423 6.15416 100.384 5.51383 98.9162 4.9773C98.9322 3.88986 98.8316 2.94294 98.6272 2.38086C97.1485 3.71421 95.3457 5.84916 93.1836 9.23124Z" fill="#965208"/>
<path d="M48.1661 154.59V154.607C47.0323 175.65 45.7006 196.655 44.1676 217.608C43.9169 221.019 43.6614 224.432 43.4011 227.842C42.1908 227.802 40.9852 227.766 39.7764 227.726C39.7221 224.382 39.6853 221.006 39.6726 217.604C39.6103 205.779 39.7716 193.597 40.2011 181.083C40.5189 171.875 40.9676 162.863 41.5281 154.055L48.1661 154.59Z" fill="#D68525"/>
<path d="M52.8207 158.541C52.4614 163.468 47.4665 166.717 42.9986 165.991C39.6181 165.44 36.6512 162.631 36.1897 159.17C35.5574 154.423 39.7906 149.522 44.8876 149.754C49.2949 149.954 53.1576 153.938 52.8207 158.541Z" fill="#D68525"/>
<path d="M44.1684 217.608C43.9177 221.019 43.6622 224.432 43.4019 227.842C42.1915 227.802 40.9859 227.766 39.7771 227.726C39.7228 224.382 39.6861 221.006 39.6733 217.604L44.1684 217.608Z" fill="#1B2026"/>
<path d="M44.2534 166.071C42.5113 166.071 41.253 165.793 41.1747 165.774C41.0182 165.739 40.9192 165.582 40.9543 165.424C40.9895 165.268 41.1444 165.169 41.3041 165.204C41.3312 165.21 44.1272 165.827 47.1165 165.202C47.2714 165.17 47.4295 165.271 47.4614 165.429C47.4949 165.589 47.3927 165.744 47.2347 165.775C46.176 165.996 45.1508 166.071 44.2534 166.071Z" fill="#1B2026"/>
<path d="M72.3634 123.261C74.5894 125.783 70.1486 132.94 65.9586 139.699C60.3809 148.696 53.449 159.873 45.1934 158.923C41.6134 158.511 38.0716 155.851 36.9347 152.53C34.3654 145.026 44.7543 136.164 48.344 133.085C56.7497 125.874 69.4796 119.993 72.3634 123.261Z" fill="#71B24B"/>
<path d="M127.777 164.425C129.227 164.475 133.169 164.414 136.703 161.731C141.23 158.293 143.637 151.647 141.318 146.049C139.577 141.844 135.865 139.912 134.605 139.326C132.328 147.692 130.052 156.058 127.777 164.425Z" fill="black"/>
<path d="M59.8834 197.889C59.8834 197.889 99.8232 201.478 115.574 197.392C131.324 193.306 87.2674 170.04 87.2674 170.04L56.9293 173.706C56.9293 173.706 52.8207 198.462 53.6223 198.462C54.4239 198.462 59.8834 197.889 59.8834 197.889Z" fill="#1B2026"/>
<path d="M140.124 185.622C140.097 189.353 131.544 192.311 126.944 193.306C121.376 194.506 116.615 193.909 113.701 193.306C115.989 180.571 118.279 167.836 120.568 155.102C120.879 162.179 122.562 171.222 129.189 177.184C134.315 181.794 140.146 182.537 140.124 185.622Z" fill="#71B24B"/>
<mask id="mask1_3786_7263" style="mask-type:luminance" maskUnits="userSpaceOnUse" x="0" y="56" width="126" height="68">
<path d="M0.263672 56.8447H125.276V123.886H0.263672V56.8447Z" fill="white"/>
</mask>
<g mask="url(#mask1_3786_7263)">
<path d="M120.662 109.853C120.528 110.055 120.389 110.257 120.25 110.455C111.187 123.271 92.223 123.531 76.2324 123.751C44.5482 124.186 3.6359 112.182 0.609912 92.3019C0.542845 91.8484 0.458213 91.288 0.408712 90.6412C0.304918 89.2456 0.364001 87.4588 1.05862 85.5234C5.50418 73.18 30.2055 70.9173 55.2597 68.6194C61.3963 68.0541 66.3177 67.7939 68.9796 67.6725C69.1632 66.7288 70.2075 61.9623 74.6004 59.3355C78.9885 56.7103 85.272 57.0967 88.7898 60.8173C90.722 62.8597 91.2649 65.3156 91.4437 66.6394C93.411 66.6122 95.3799 66.5819 97.3424 66.5499C97.5308 65.8761 99.2698 59.9103 105.105 57.7387C105.405 57.6253 109.981 55.9965 114.406 58.1155C116.126 58.9411 120.618 61.6748 123.051 74.9476C125.063 85.9194 127.546 99.4669 120.662 109.853Z" fill="#71B24B"/>
</g>
<path d="M109.625 66.6455C111.081 67.5796 110.867 71.1501 109.409 71.8847C108.924 72.129 108.284 72.0667 107.827 71.8112C107.03 71.3673 106.886 70.3773 106.821 69.9238C106.658 68.8044 106.899 66.9792 108.097 66.513C108.553 66.3341 109.162 66.3485 109.625 66.6455Z" fill="#1B2026"/>
<path d="M79.6058 67.272C81.0621 68.2061 80.8482 71.7766 79.3903 72.5111C78.9048 72.7555 78.2661 72.6932 77.8078 72.4393C77.011 71.9938 76.8673 71.0037 76.8018 70.5502C76.6389 69.4309 76.8801 67.6057 78.0777 67.1394C78.5344 66.9606 79.1428 66.9765 79.6058 67.272Z" fill="#1B2026"/>
<path d="M117.665 80.0146C118.069 80.6118 118.249 81.4964 117.93 82.2437C117.424 83.4318 115.915 83.6633 115.024 83.8007C114.244 83.9204 112.063 84.2557 110.944 82.809C110.498 82.2326 110.142 81.2713 110.461 80.4266C111.142 78.6301 114.332 78.8058 114.711 78.8265C115.586 78.876 116.949 78.9511 117.665 80.0146Z" fill="#FFABD7"/>
<path d="M12.6212 81.6597C12.5988 81.6597 12.5748 81.6565 12.5525 81.6517C12.396 81.6134 12.3002 81.4537 12.3385 81.2972C12.4327 80.9107 12.99 78.9562 14.6539 78.4165C14.8551 78.351 15.3885 78.177 16.024 78.3494C16.9597 78.6049 17.6847 79.5087 17.9162 80.7095C17.9466 80.8692 17.8428 81.0225 17.6847 81.0529C17.525 81.0832 17.3733 80.9794 17.343 80.8197C17.1545 79.8409 16.5909 79.1095 15.8707 78.9131C15.4028 78.787 15.0052 78.9163 14.8344 78.9738C13.4371 79.4273 12.9549 81.2333 12.9054 81.4377C12.8735 81.5702 12.7537 81.6597 12.6212 81.6597Z" fill="#1B2026"/>
<path d="M23.8576 80.7222C23.8337 80.7222 23.8113 80.7206 23.7874 80.7142C23.6309 80.6759 23.5351 80.5178 23.5734 80.3597C23.6692 79.9748 24.2265 78.0203 25.8888 77.479C26.0916 77.4135 26.6265 77.2395 27.2589 77.4119C28.1962 77.6674 28.9212 78.5728 29.1511 79.7736C29.1814 79.9317 29.0776 80.085 28.9196 80.1154C28.7599 80.1457 28.6082 80.0419 28.5778 79.8838C28.3894 78.9034 27.8257 78.1736 27.1056 77.9772C26.6393 77.8511 26.2401 77.9804 26.0692 78.0363C24.7007 78.4802 24.2233 80.1665 24.1403 80.5002C24.1083 80.6343 23.9886 80.7222 23.8576 80.7222Z" fill="#1B2026"/>
<path d="M109.414 190.426C98.8685 196.843 82.7932 196.68 72.3053 190.21C62.464 184.141 57.6576 172.599 57.0077 160.281C56.4712 150.176 58.7355 139.552 63.312 130.998C66.2262 125.542 70.0841 120.927 74.758 117.829C75.2003 117.537 75.6506 117.258 76.1089 116.991C77.0606 116.437 78.0443 115.947 79.0583 115.52C90.4261 110.755 102.07 115.856 102.704 116.141C127.704 127.533 133.473 175.78 109.414 190.426Z" fill="#71B24B"/>
<mask id="mask2_3786_7263" style="mask-type:luminance" maskUnits="userSpaceOnUse" x="0" y="87" width="121" height="37">
<path d="M0.263672 87.5039H120.37V123.886H0.263672V87.5039Z" fill="white"/>
</mask>
<g mask="url(#mask2_3786_7263)">
<path d="M120.25 110.455C111.187 123.271 92.223 123.531 76.2323 123.751C44.5481 124.186 3.63588 112.182 0.609891 92.3019C0.542825 91.8484 0.458193 91.2879 0.408691 90.6412C16.773 88.7378 111.398 79.1041 120.107 109.916C120.156 110.095 120.206 110.276 120.25 110.455Z" fill="#ABD871"/>
</g>
<path d="M87.2543 207.472C85.3349 216.813 84.2347 222.175 79.5656 225.067C73.4306 228.869 63.4345 226.982 61.2708 222.421C60.319 220.419 60.8652 217.872 60.9386 217.549C61.6652 214.327 64.0428 212.574 64.6975 212.123C65.1766 200.163 65.6556 188.204 66.1347 176.244C73.7276 180.156 81.3205 184.069 88.9134 187.982C89.0603 192.439 88.9326 199.301 87.2543 207.472Z" fill="#71B24B"/>
<path d="M95.934 207.472C97.8534 216.813 98.9536 222.175 103.623 225.067C109.758 228.869 119.754 226.982 121.919 222.421C122.869 220.419 122.323 217.872 122.25 217.549C121.523 214.327 119.145 212.574 118.491 212.123C118.012 200.163 117.533 188.204 117.054 176.244C109.461 180.156 101.868 184.069 94.2765 187.982C94.128 192.439 94.2557 199.301 95.934 207.472Z" fill="#71B24B"/>
<path d="M101.804 175.25C96.261 178.605 88.3679 179.173 81.8992 176.914C71.4064 173.247 68.3852 163.441 67.6523 160.482C67.5788 160.188 67.5293 159.968 67.5022 159.843C65.8 152.064 66.9944 137.028 77.6548 131.073C84.9762 126.984 94.8031 128.273 101.176 133.058C113.927 142.631 114.291 167.689 101.804 175.25Z" fill="#ABD871"/>
<path d="M89.2766 201.674C89.2447 203.804 89.1026 206.961 88.5628 210.746C87.4786 218.348 86.9373 222.149 84.1907 224.965C79.3124 229.97 71.4097 228.822 70.0093 228.617C68.9826 228.469 59.5453 227.097 58.7325 221.725C58.2407 218.482 61.1693 215.598 61.9933 214.832C62.4356 209.848 62.8795 204.865 63.3218 199.881L89.2766 201.674Z" fill="#AEBAFF"/>
<path d="M69.6789 217.893C69.6773 217.893 69.6741 217.893 69.6709 217.893C62.9818 217.725 61.7746 215.06 61.7251 214.947C61.6628 214.798 61.7315 214.626 61.88 214.562C62.0269 214.5 62.1978 214.568 62.2616 214.715C62.2792 214.754 63.4449 217.15 69.6869 217.309C69.8482 217.312 69.9759 217.446 69.9711 217.609C69.9663 217.767 69.837 217.893 69.6789 217.893Z" fill="#1B2026"/>
<path d="M93.458 201.997C93.5235 204.128 93.7151 207.281 94.3139 211.058C95.5147 218.641 96.1151 222.434 98.9048 225.207C103.86 230.137 111.743 228.864 113.14 228.639C114.164 228.474 123.581 226.956 124.31 221.573C124.751 218.322 121.778 215.483 120.943 214.73C120.424 209.755 119.901 204.779 119.382 199.802L93.458 201.997Z" fill="#AEBAFF"/>
<path d="M113.3 217.912C113.145 217.912 113.016 217.787 113.01 217.631C113.002 217.47 113.128 217.332 113.289 217.326C119.545 217.07 120.662 214.643 120.673 214.618C120.735 214.471 120.906 214.399 121.054 214.463C121.201 214.525 121.273 214.693 121.213 214.841C121.166 214.956 119.999 217.639 113.313 217.91C113.308 217.912 113.305 217.912 113.3 217.912Z" fill="#1B2026"/>
<path d="M91.3653 195.471C91.212 195.471 91.0587 195.471 90.9039 195.468C83.6575 195.367 77.9488 192.907 74.4342 190.86C74.2953 190.778 74.2474 190.599 74.3288 190.459C74.4086 190.32 74.5859 190.272 74.728 190.353C78.1819 192.365 83.7932 194.785 90.9134 194.884C100.672 195.018 107.869 190.745 111.3 188.186C111.429 188.089 111.613 188.116 111.709 188.246C111.805 188.375 111.779 188.559 111.65 188.654C108.213 191.219 101.048 195.471 91.3653 195.471Z" fill="#1B2026"/>
<path d="M55.9114 157.537C52.2611 155.559 48.2786 153.123 44.1524 150.125C41.3324 148.076 38.7967 146.019 36.5308 144.03C36.5308 144.03 46.4566 130.597 64.6301 123.386L69.6793 123.761C67.8365 130.857 66.1551 138.382 64.7243 146.316C60.7482 168.359 59.6145 188.57 59.9179 206.141C58.6707 205.697 57.2065 205.06 55.6575 204.136C54.5653 203.484 53.6296 202.807 52.8407 202.17C52.8807 194.178 53.1952 185.676 53.8899 176.725C54.4104 170.032 55.1002 163.629 55.9114 157.537Z" fill="black"/>
<path d="M127.739 166.091C128.381 176.94 129.023 187.788 129.663 198.637C128.287 200.076 126.035 202.08 122.799 203.677C118.787 205.655 115.123 206.09 112.959 206.181C112.98 204.542 112.98 202.886 112.957 201.213C112.812 189.737 111.694 178.972 109.963 169.008C115.889 168.036 121.813 167.063 127.739 166.091Z" fill="black"/>
<path d="M107.865 121.103C108.068 122.875 108.034 125.218 106.95 127.52C103.217 135.444 90.3367 135.872 83.539 136.097C78.2248 136.274 62.405 136.799 59.1156 128.895C58.2277 126.762 58.4752 124.552 58.9176 122.851C62.9671 123.111 67.1556 123.281 71.475 123.336C84.6887 123.509 96.8821 122.597 107.865 121.103Z" fill="#D68525"/>
<path d="M110.858 111.423C110.245 112.35 108.908 113.597 107.743 113.237C107.102 113.037 106.785 112.435 106.742 112.35C105.78 110.468 108.069 106.723 109.95 106.837C110.7 106.883 111.193 107.531 111.28 107.649C112.126 108.809 111.436 110.546 110.858 111.423Z" fill="#71B24B"/>
<path d="M108.538 103.844C108.289 104.545 107.62 105.574 106.804 105.524C106.355 105.499 106.052 105.158 106.01 105.111C105.084 104.041 105.97 101.238 107.211 101.01C107.707 100.917 108.132 101.261 108.207 101.323C108.943 101.941 108.774 103.182 108.538 103.844Z" fill="#71B24B"/>
<path d="M104.464 108.655C104.157 109.005 103.531 109.447 103.067 109.23C102.813 109.112 102.715 108.844 102.701 108.805C102.409 107.969 103.573 106.544 104.347 106.699C104.655 106.76 104.825 107.058 104.853 107.111C105.139 107.641 104.754 108.325 104.464 108.655Z" fill="#71B24B"/>
<path d="M56.103 156.771C56.095 156.771 56.0886 156.771 56.0806 156.769C55.9194 156.758 55.7996 156.617 55.8108 156.456C56.2164 151.099 57.0403 145.737 58.2603 140.518C58.642 138.882 59.0699 137.235 59.5282 135.627C59.5729 135.472 59.7326 135.38 59.8891 135.426C60.0456 135.471 60.135 135.632 60.0903 135.789C59.6336 137.387 59.2088 139.024 58.8288 140.652C57.6152 145.841 56.796 151.172 56.3936 156.499C56.3824 156.654 56.2547 156.771 56.103 156.771Z" fill="#1B2026"/>
<path d="M140.124 119.835C136.64 136.651 132.683 153.776 128.202 171.173C127.375 174.381 126.538 177.57 125.692 180.741C109.32 176.898 92.9493 173.052 76.5786 169.209C78.1419 159.899 80.1315 149.997 82.6657 139.61C85.3516 128.6 88.3297 118.352 91.4195 108.911C107.654 112.552 123.889 116.194 140.124 119.835Z" fill="#1B2026"/>
<path d="M125.273 144.29C126.438 148.744 124.573 154.152 121.039 157.455C116.126 162.045 109.491 161.165 106.518 160.77C105.001 160.568 91.779 158.622 89.4467 148.96C88.2578 144.041 90.1994 138.401 93.8548 135.251C102.702 127.631 122.526 133.799 125.273 144.29Z" fill="#FF0B0B"/>
<path d="M109.271 157.762C108.607 157.762 108.026 157.73 107.571 157.706C105.656 157.608 95.9934 156.75 93.6347 149.569C92.4147 145.863 93.4789 141.332 96.2211 138.557C99.227 135.512 104.623 134.417 110.301 135.699C115.68 136.912 119.817 139.94 121.1 143.6C122.272 146.951 121.253 151.304 118.626 154.19C115.795 157.301 111.878 157.762 109.271 157.762ZM105.687 136.049C102.048 136.049 98.8555 137.138 96.8444 139.175C94.3251 141.725 93.3471 145.887 94.4665 149.295C96.6933 156.072 106.504 156.772 107.614 156.829C109.918 156.949 114.705 157.193 117.977 153.598C120.397 150.942 121.342 146.949 120.27 143.892C119.089 140.513 115.194 137.701 110.107 136.555C108.597 136.215 107.108 136.049 105.687 136.049Z" fill="#1B2026"/>
<path d="M101.511 148.029C101.367 148.029 101.226 147.958 101.142 147.826C101.01 147.622 101.072 147.349 101.276 147.219C101.494 147.078 106.71 143.76 111.358 142.483C111.59 142.416 111.832 142.555 111.897 142.79C111.962 143.022 111.823 143.267 111.59 143.329C107.072 144.573 101.798 147.926 101.748 147.96C101.674 148.005 101.592 148.029 101.511 148.029Z" fill="#1B2026"/>
<path d="M92.6161 156.091C92.4722 156.091 92.3332 156.022 92.2493 155.892C92.1151 155.691 92.1726 155.418 92.3764 155.286C93.0092 154.869 96.2308 152.795 97.4101 152.755C97.6546 152.74 97.856 152.939 97.8631 153.181C97.8727 153.423 97.681 153.627 97.4389 153.634C96.7174 153.658 94.2436 155.111 92.8558 156.019C92.7815 156.067 92.6976 156.091 92.6161 156.091Z" fill="#1B2026"/>
<path d="M139.507 152.554C138.435 155.771 135.133 160.605 130.509 160.434C127.578 160.325 125.132 158.245 124.024 156.244C120.854 150.518 126.382 141.368 132.286 140.796C134.981 140.536 137.118 142.126 137.423 142.36C141.697 145.636 139.658 152.097 139.507 152.554Z" fill="#71B24B"/>
<path d="M127.739 148.365C127.68 148.365 127.621 148.349 127.57 148.312C126.436 147.506 125.098 147.017 125.084 147.011C124.932 146.956 124.854 146.789 124.908 146.637C124.964 146.485 125.133 146.405 125.282 146.461C125.339 146.482 126.707 146.98 127.908 147.834C128.039 147.927 128.071 148.111 127.977 148.242C127.919 148.322 127.83 148.365 127.739 148.365Z" fill="#1B2026"/>
<path d="M129.843 145.659C129.784 145.659 129.725 145.641 129.674 145.604C128.537 144.796 127.202 144.309 127.188 144.304C127.036 144.25 126.958 144.081 127.012 143.929C127.068 143.778 127.235 143.699 127.387 143.754C127.445 143.774 128.811 144.274 130.012 145.127C130.143 145.221 130.174 145.403 130.081 145.536C130.023 145.615 129.934 145.659 129.843 145.659Z" fill="#1B2026"/>
<path d="M42.9822 158.212C42.9534 158.212 42.9247 158.207 42.8943 158.198C42.741 158.15 42.6564 157.985 42.7043 157.832C42.7219 157.773 43.1626 156.384 43.9626 155.145C44.0504 155.011 44.2309 154.971 44.3666 155.058C44.5007 155.146 44.5407 155.328 44.4528 155.464C43.6975 156.633 43.2664 157.993 43.2616 158.006C43.2217 158.131 43.1067 158.212 42.9822 158.212Z" fill="#1B2026"/>
<path d="M40.1931 156.222C40.1643 156.222 40.134 156.217 40.1053 156.209C39.952 156.159 39.8657 155.997 39.9136 155.842C39.9328 155.783 40.3719 154.393 41.1719 153.156C41.2598 153.02 41.4402 152.982 41.5759 153.07C41.7117 153.157 41.75 153.338 41.6622 153.474C40.9069 154.642 40.4757 156.003 40.4709 156.017C40.4326 156.142 40.3176 156.222 40.1931 156.222Z" fill="#1B2026"/>
<path d="M87.7235 94.6977C87.6644 94.6977 87.6037 94.6785 87.551 94.6402C85.6029 93.2174 83.3833 94.2027 83.3609 94.2122C83.214 94.2793 83.04 94.2154 82.9729 94.0685C82.9059 93.9216 82.9697 93.7476 83.1166 93.6805C83.2204 93.6342 85.6652 92.5388 87.8959 94.1675C88.0269 94.2633 88.0556 94.447 87.9598 94.5763C87.9023 94.6562 87.8145 94.6977 87.7235 94.6977Z" fill="#1B2026"/>
<path d="M47.379 108.871C46.9335 112.598 45.656 115.135 44.3275 115.195C43.1777 115.244 42.0807 113.436 41.7326 112.863C40.7985 111.322 40.6995 109.797 40.7043 109.04C42.9286 108.983 45.1546 108.927 47.379 108.871Z" fill="#EFE9E1"/>
<path d="M63.9985 107.343C63.9107 111.097 62.8808 113.744 61.5634 113.93C60.4232 114.089 59.1602 112.395 58.7594 111.859C57.6815 110.413 57.4372 108.906 57.3701 108.151C59.5801 107.881 61.7885 107.613 63.9985 107.343Z" fill="#EFE9E1"/>
<path d="M77.8338 104.488C78.4805 108.185 77.9903 110.984 76.7352 111.425C75.6477 111.805 74.0781 110.392 73.5783 109.945C72.2401 108.739 71.7052 107.308 71.4912 106.58C73.6054 105.882 75.7196 105.186 77.8338 104.488Z" fill="#EFE9E1"/>
<path d="M39.5974 109.162C32.3031 109.162 24.937 108.756 17.5964 107.947C17.4367 107.931 17.3201 107.785 17.3377 107.624C17.3569 107.463 17.5022 107.343 17.6602 107.365C28.2424 108.533 38.8757 108.858 49.2694 108.335C64.1822 107.586 81.0862 106.736 84.7078 97.96C85.2123 96.74 85.4487 95.3907 85.4104 93.9535C85.4072 93.7922 85.5333 93.6581 85.6946 93.6533C85.6978 93.6533 85.701 93.6533 85.7026 93.6533C85.8607 93.6533 85.9916 93.7795 85.9948 93.9392C86.0347 95.4577 85.784 96.8869 85.2475 98.1835C81.4854 107.301 64.385 108.16 49.2982 108.919C46.0853 109.08 42.847 109.162 39.5974 109.162Z" fill="#1B2026"/>
</svg>
